<svg width="41" height="40" viewBox="0 0 41 40" fill="none" xmlns="http://www.w3.org/2000/svg">
<path fill-rule="evenodd" clip-rule="evenodd" d="M20.5 40C31.5457 40 40.5 31.0457 40.5 20C40.5 8.9543 31.5457 0 20.5 0C9.4543 0 0.5 8.9543 0.5 20C0.5 31.0457 9.4543 40 20.5 40Z" fill="#A5D6A7"/>
<path d="M14.5001 10.7501C14.5001 10.3958 14.2523 10.0899 13.9058 10.0164C13.5601 9.94307 13.2103 10.1209 13.0658 10.4431L13.0643 10.4464C13.0623 10.4507 13.0584 10.4589 13.0528 10.4705C13.0414 10.4937 13.0228 10.5306 12.997 10.5782C12.9453 10.6736 12.8658 10.8095 12.7594 10.9626C12.5418 11.2754 12.2354 11.625 11.8527 11.864C11.5014 12.0834 11.3946 12.5461 11.614 12.8974C11.8335 13.2487 12.2962 13.3556 12.6475 13.1362C12.772 13.0583 12.8896 12.9748 13.0001 12.8877V15.2501C13.0001 15.6643 13.3359 16.0001 13.7501 16.0001C14.1643 16.0001 14.5001 15.6643 14.5001 15.2501V10.7501ZM28.9995 26.7501C28.9995 26.3359 28.6637 26.0001 28.2495 26.0001H19.2495C18.8353 26.0001 18.4995 26.3359 18.4995 26.7501C18.4995 27.1643 18.8353 27.5001 19.2495 27.5001H28.2495C28.6637 27.5001 28.9995 27.1643 28.9995 26.7501ZM28.9995 20.2437C28.9995 19.8295 28.6637 19.4937 28.2495 19.4937H19.2495C18.8353 19.4937 18.4995 19.8295 18.4995 20.2437C18.4995 20.658 18.8353 20.9937 19.2495 20.9937H28.2495C28.6637 20.9937 28.9995 20.658 28.9995 20.2437ZM28.9995 13.7501C28.9995 13.3359 28.6637 13.0001 28.2495 13.0001H19.2495C18.8353 13.0001 18.4995 13.3359 18.4995 13.7501C18.4995 14.1643 18.8353 14.5001 19.2495 14.5001H28.2495C28.6637 14.5001 28.9995 14.1643 28.9995 13.7501ZM13.6509 18.52C13.3496 18.4668 12.9744 18.5864 12.7803 18.7805C12.4874 19.0733 12.0125 19.0733 11.7197 18.7804C11.4268 18.4875 11.4268 18.0127 11.7197 17.7198C12.2756 17.1639 13.1504 16.9085 13.9116 17.0428C14.309 17.1129 14.7173 17.2972 15.0272 17.6484C15.3426 18.0058 15.5 18.4727 15.5 19.0001C15.5 19.6195 15.229 20.0801 14.8941 20.4206C14.6163 20.7029 14.2631 20.9311 13.9883 21.1087L13.9087 21.1602C13.7135 21.2871 13.5543 21.3971 13.4269 21.5001H14.75C15.1642 21.5001 15.5 21.8359 15.5 22.2501C15.5 22.6643 15.1642 23.0001 14.75 23.0001H12.25C11.8358 23.0001 11.5 22.6643 11.5 22.2501C11.5 20.9365 12.4839 20.2972 13.0751 19.913L13.1352 19.8739C13.4526 19.6678 13.6684 19.5275 13.8247 19.3687C13.9585 19.2326 14 19.1307 14 19.0001C14 18.7775 13.9386 18.6819 13.9025 18.6409C13.8608 18.5937 13.7847 18.5436 13.6509 18.52ZM11.4697 29.2804C11.4697 29.2804 11.5625 29.3641 11.4743 29.2849L11.4796 29.2902L11.4929 29.3028C11.5029 29.3122 11.5151 29.3233 11.5296 29.336C11.5585 29.3613 11.5965 29.3928 11.6438 29.4282C11.7381 29.499 11.87 29.5861 12.0396 29.6709C12.3813 29.8418 12.8704 30.0001 13.5 30.0001C14.1392 30.0001 14.696 29.8187 15.1013 29.4606C15.5092 29.1001 15.7116 28.6032 15.6955 28.1011C15.6822 27.6847 15.529 27.3054 15.2699 27.0001C15.529 26.6948 15.6822 26.3155 15.6955 25.8991C15.7116 25.3969 15.5092 24.9 15.1013 24.5396C14.696 24.1814 14.1392 24.0001 13.5 24.0001C12.8704 24.0001 12.3813 24.1584 12.0396 24.3293C11.87 24.4141 11.7381 24.5012 11.6438 24.572C11.5965 24.6074 11.5585 24.6389 11.5296 24.6642C11.5151 24.6768 11.5029 24.688 11.4929 24.6973L11.4796 24.71L11.4742 24.7152L11.4719 24.7176L11.4709 24.7185L11.4697 24.7197C11.1768 25.0126 11.1768 25.4875 11.4697 25.7804C11.7586 26.0693 12.2246 26.0732 12.5183 25.7921C12.5217 25.7892 12.5302 25.7821 12.5437 25.772C12.5744 25.749 12.63 25.7111 12.7104 25.6709C12.8687 25.5918 13.1296 25.5001 13.5 25.5001C13.8608 25.5001 14.036 25.6 14.1081 25.6637C14.1777 25.7251 14.1982 25.7907 14.1963 25.8511C14.1942 25.9156 14.164 26.0028 14.0728 26.0819C13.9845 26.1585 13.8096 26.2501 13.5 26.2501C13.0858 26.2501 12.75 26.5859 12.75 27.0001C12.75 27.4143 13.0858 27.7501 13.5 27.7501C13.8096 27.7501 13.9845 27.8417 14.0728 27.9183C14.164 27.9974 14.1942 28.0845 14.1963 28.1491C14.1982 28.2094 14.1777 28.275 14.1081 28.3365C14.036 28.4002 13.8608 28.5001 13.5 28.5001C13.1296 28.5001 12.8687 28.4084 12.7104 28.3293C12.63 28.2891 12.5744 28.2512 12.5437 28.2282C12.5302 28.218 12.5217 28.2109 12.5183 28.208C12.2246 27.9269 11.7586 27.9308 11.4697 28.2197C11.1768 28.5126 11.1768 28.9875 11.4697 29.2804ZM11.4719 24.7176L11.4709 24.7185C11.4776 24.713 11.6718 24.5516 11.4719 24.7176Z" fill="white"/>
</svg>
