<svg width="41" height="40" viewBox="0 0 41 40" fill="none" xmlns="http://www.w3.org/2000/svg">
<path fill-rule="evenodd" clip-rule="evenodd" d="M20.5 40C31.5457 40 40.5 31.0457 40.5 20C40.5 8.9543 31.5457 0 20.5 0C9.4543 0 0.5 8.9543 0.5 20C0.5 31.0457 9.4543 40 20.5 40Z" fill="#CE93D8"/>
<path d="M14.7479 24.0021C15.7144 24.0021 16.4979 24.7856 16.4979 25.7521V28.25C16.4979 29.2165 15.7144 30 14.7479 30H12.25C11.2835 30 10.5 29.2165 10.5 28.25V25.7521C10.5 24.7856 11.2835 24.0021 12.25 24.0021H14.7479ZM14.7479 25.5021H12.25C12.1119 25.5021 12 25.6141 12 25.7521V28.25C12 28.3881 12.1119 28.5 12.25 28.5H14.7479C14.8859 28.5 14.9979 28.3881 14.9979 28.25V25.7521C14.9979 25.6141 14.8859 25.5021 14.7479 25.5021ZM18.2481 26H29.7529C30.1671 26 30.5029 26.3358 30.5029 26.75C30.5029 27.1297 30.2207 27.4435 29.8547 27.4932L29.7529 27.5H18.2481C17.8339 27.5 17.4981 27.1642 17.4981 26.75C17.4981 26.3703 17.7802 26.0565 18.1463 26.0068L18.2481 26H29.7529H18.2481ZM14.7479 17.0011C15.7144 17.0011 16.4979 17.7846 16.4979 18.7511V21.2489C16.4979 22.2154 15.7144 22.9989 14.7479 22.9989H12.25C11.2835 22.9989 10.5 22.2154 10.5 21.2489V18.7511C10.5 17.7846 11.2835 17.0011 12.25 17.0011H14.7479ZM14.7479 18.5011H12.25C12.1119 18.5011 12 18.613 12 18.7511V21.2489C12 21.387 12.1119 21.4989 12.25 21.4989H14.7479C14.8859 21.4989 14.9979 21.387 14.9979 21.2489V18.7511C14.9979 18.613 14.8859 18.5011 14.7479 18.5011ZM18.2481 19H29.7529C30.1671 19 30.5029 19.3358 30.5029 19.75C30.5029 20.1297 30.2207 20.4435 29.8547 20.4932L29.7529 20.5H18.2481C17.8339 20.5 17.4981 20.1642 17.4981 19.75C17.4981 19.3703 17.7802 19.0565 18.1463 19.0068L18.2481 19H29.7529H18.2481ZM14.7479 10C15.7144 10 16.4979 10.7835 16.4979 11.75V14.2479C16.4979 15.2144 15.7144 15.9979 14.7479 15.9979H12.25C11.2835 15.9979 10.5 15.2144 10.5 14.2479V11.75C10.5 10.7835 11.2835 10 12.25 10H14.7479ZM14.7479 11.5H12.25C12.1119 11.5 12 11.6119 12 11.75V14.2479C12 14.3859 12.1119 14.4979 12.25 14.4979H14.7479C14.8859 14.4979 14.9979 14.3859 14.9979 14.2479V11.75C14.9979 11.6119 14.8859 11.5 14.7479 11.5ZM18.2481 12H29.7529C30.1671 12 30.5029 12.3358 30.5029 12.75C30.5029 13.1297 30.2207 13.4435 29.8547 13.4932L29.7529 13.5H18.2481C17.8339 13.5 17.4981 13.1642 17.4981 12.75C17.4981 12.3703 17.7802 12.0565 18.1463 12.0068L18.2481 12H29.7529H18.2481Z" fill="white"/>
</svg>
