<svg width="41" height="40" viewBox="0 0 41 40" fill="none" xmlns="http://www.w3.org/2000/svg">
<path fill-rule="evenodd" clip-rule="evenodd" d="M20.5 40C31.5457 40 40.5 31.0457 40.5 20C40.5 8.9543 31.5457 0 20.5 0C9.4543 0 0.5 8.9543 0.5 20C0.5 31.0457 9.4543 40 20.5 40Z" fill="#80DEEA"/>
<path d="M15.2803 12.7803C15.5732 12.4874 15.5732 12.0126 15.2803 11.7197C14.9874 11.4268 14.5126 11.4268 14.2197 11.7197L12.25 13.6893L11.7803 13.2197C11.4874 12.9268 11.0126 12.9268 10.7197 13.2197C10.4268 13.5126 10.4268 13.9874 10.7197 14.2803L11.7197 15.2803C12.0126 15.5732 12.4874 15.5732 12.7803 15.2803L15.2803 12.7803ZM29.75 26.0068H18.25L18.1482 26.0137C17.7822 26.0634 17.5 26.3772 17.5 26.7568C17.5 27.1711 17.8358 27.5068 18.25 27.5068H29.75L29.8518 27.5C30.2178 27.4503 30.5 27.1365 30.5 26.7568C30.5 26.3426 30.1642 26.0068 29.75 26.0068ZM29.75 19.5H18.25L18.1482 19.5068C17.7822 19.5565 17.5 19.8703 17.5 20.25C17.5 20.6642 17.8358 21 18.25 21H29.75L29.8518 20.9932C30.2178 20.9435 30.5 20.6297 30.5 20.25C30.5 19.8358 30.1642 19.5 29.75 19.5ZM29.75 13H18.25L18.1482 13.0068C17.7822 13.0565 17.5 13.3703 17.5 13.75C17.5 14.1642 17.8358 14.5 18.25 14.5H29.75L29.8518 14.4932C30.2178 14.4435 30.5 14.1297 30.5 13.75C30.5 13.3358 30.1642 13 29.75 13ZM15.2803 25.7803C15.5732 25.4874 15.5732 25.0126 15.2803 24.7197C14.9874 24.4268 14.5126 24.4268 14.2197 24.7197L12.25 26.6893L11.7803 26.2197C11.4874 25.9268 11.0126 25.9268 10.7197 26.2197C10.4268 26.5126 10.4268 26.9874 10.7197 27.2803L11.7197 28.2803C12.0126 28.5732 12.4874 28.5732 12.7803 28.2803L15.2803 25.7803ZM15.2803 18.2197C15.5732 18.5126 15.5732 18.9874 15.2803 19.2803L12.7803 21.7803C12.4874 22.0732 12.0126 22.0732 11.7197 21.7803L10.7197 20.7803C10.4268 20.4874 10.4268 20.0126 10.7197 19.7197C11.0126 19.4268 11.4874 19.4268 11.7803 19.7197L12.25 20.1893L14.2197 18.2197C14.5126 17.9268 14.9874 17.9268 15.2803 18.2197Z" fill="white"/>
</svg>
