<svg width="41" height="40" viewBox="0 0 41 40" fill="none" xmlns="http://www.w3.org/2000/svg">
<path fill-rule="evenodd" clip-rule="evenodd" d="M20.5 40C31.5457 40 40.5 31.0457 40.5 20C40.5 8.9543 31.5457 0 20.5 0C9.4543 0 0.5 8.9543 0.5 20C0.5 31.0457 9.4543 40 20.5 40Z" fill="#FFCC80"/>
<path d="M21.5 21C22.4315 21 23.2149 21.6372 23.437 22.5H22.25C22.0784 22.5 21.9126 22.5247 21.7559 22.5707C21.7055 22.5405 21.6493 22.5189 21.5896 22.5081L21.5 22.5L12.5 22.499L12.3993 22.509C12.275 22.5343 12.19 22.6018 12.146 22.645C12.1028 22.689 12.0353 22.7733 12.01 22.898L12 22.999V24.5C12 25.509 12.45 26.222 13.417 26.742C14.2432 27.1869 15.4195 27.4563 16.6826 27.4951L17 27.5L17.3174 27.4951C18.5388 27.4576 19.6786 27.2044 20.5003 26.7853C20.5098 27.2609 20.7089 27.69 21.0253 28C20.9296 28.0937 20.8447 28.1983 20.7725 28.3117C19.593 28.8115 18.2087 29 17 29C14.2779 29 10.6647 28.044 10.5055 24.7296L10.5 24.5V22.999C10.5 21.9452 11.3164 21.0809 12.3508 21.0045L12.5 20.999L21.5 21ZM24.449 22.5C24.365 21.9986 24.1554 21.5432 23.8545 21.1598L23.72 21H28.5C29.4862 21 30.3065 21.715 30.4702 22.6546C30.2506 22.5553 30.0067 22.5 29.75 22.5H24.449ZM29.75 23.5C30.1401 23.5 30.4607 23.7979 30.4966 24.1786C30.4989 24.2021 30.5 24.2259 30.5 24.25C30.5 24.3073 30.4936 24.3631 30.4814 24.4167C30.4056 24.7507 30.1069 25 29.75 25H22.25C22.1501 25 22.0548 24.9805 21.9677 24.945C21.6934 24.8335 21.5 24.5643 21.5 24.25C21.5 23.9234 21.7087 23.6456 22 23.5427C22.0782 23.515 22.1623 23.5 22.25 23.5H29.75ZM29.75 26C29.8201 26 29.8879 26.0096 29.9522 26.0276C30.2682 26.1158 30.5 26.4058 30.5 26.75C30.5 27.1642 30.1642 27.5 29.75 27.5H22.25C22.2131 27.5 22.1769 27.4973 22.1414 27.4922C21.7787 27.4396 21.5 27.1273 21.5 26.75C21.5 26.3358 21.8358 26 22.25 26H29.75ZM17 10C19.485 10 21.5 12.015 21.5 14.5C21.5 16.985 19.485 19 17 19C14.515 19 12.5 16.985 12.5 14.5C12.5 12.015 14.515 10 17 10ZM17 11.5C15.346 11.5 14 12.846 14 14.5C14 16.154 15.346 17.5 17 17.5C18.654 17.5 20 16.154 20 14.5C20 12.846 18.654 11.5 17 11.5ZM26 12C27.933 12 29.5 13.567 29.5 15.5C29.5 17.433 27.933 19 26 19C24.067 19 22.5 17.433 22.5 15.5C22.5 13.567 24.067 12 26 12ZM26 13.5C24.897 13.5 24 14.397 24 15.5C24 16.603 24.897 17.5 26 17.5C27.103 17.5 28 16.603 28 15.5C28 14.397 27.103 13.5 26 13.5ZM21.5 29.25C21.5 28.8358 21.8358 28.5 22.25 28.5H29.75C30.1642 28.5 30.5 28.8358 30.5 29.25C30.5 29.6642 30.1642 30 29.75 30H22.25C21.8358 30 21.5 29.6642 21.5 29.25Z" fill="white"/>
</svg>
