<svg width="41" height="40" viewBox="0 0 41 40" fill="none" xmlns="http://www.w3.org/2000/svg">
<path fill-rule="evenodd" clip-rule="evenodd" d="M20.5 40C31.5457 40 40.5 31.0457 40.5 20C40.5 8.9543 31.5457 0 20.5 0C9.4543 0 0.5 8.9543 0.5 20C0.5 31.0457 9.4543 40 20.5 40Z" fill="#EF9A9A"/>
<path d="M18.6253 21.9951C18.2822 22.4104 18.0587 22.9281 18.0077 23.4956L12.7489 23.4953C12.3353 23.4953 12 23.8306 12 24.2442V24.8219C12 25.3575 12.1911 25.8756 12.539 26.283C13.7164 27.6618 15.5227 28.4035 18.0076 28.4883C18.0569 29.0584 18.2808 29.5787 18.6253 29.9957L18.4965 29.9964C15.3506 29.9964 12.9646 29.0913 11.3983 27.257C10.8185 26.5781 10.5 25.7146 10.5 24.8219V24.2442C10.5 23.0539 11.4247 22.0796 12.5949 22.0005L12.7489 21.9953L18.6253 21.9951ZM23.2465 19.4954H26.2465C26.8937 19.4954 27.426 19.9872 27.49 20.6176L27.4965 20.7454L27.496 21.995L28.7465 21.9954C29.713 21.9954 30.4965 22.7789 30.4965 23.7454V28.2454C30.4965 29.2119 29.713 29.9954 28.7465 29.9954H20.7465C19.78 29.9954 18.9965 29.2119 18.9965 28.2454V23.7454C18.9965 22.7789 19.78 21.9954 20.7465 21.9954L21.996 21.995L21.9965 20.7454C21.9965 20.0982 22.4883 19.5658 23.1187 19.5018L23.2465 19.4954H26.2465H23.2465ZM28.7465 23.4954H20.7465C20.6084 23.4954 20.4965 23.6073 20.4965 23.7454V28.2454C20.4965 28.3834 20.6084 28.4954 20.7465 28.4954H28.7465C28.8845 28.4954 28.9965 28.3834 28.9965 28.2454V23.7454C28.9965 23.6073 28.8845 23.4954 28.7465 23.4954ZM25.9965 20.9954H23.4965L23.496 21.995H25.996L25.9965 20.9954ZM18.4965 10C21.2579 10 23.4965 12.2386 23.4965 15C23.4965 17.7614 21.2579 20 18.4965 20C15.735 20 13.4965 17.7614 13.4965 15C13.4965 12.2386 15.735 10 18.4965 10ZM18.4965 11.5C16.5635 11.5 14.9965 13.067 14.9965 15C14.9965 16.933 16.5635 18.5 18.4965 18.5C20.4295 18.5 21.9965 16.933 21.9965 15C21.9965 13.067 20.4295 11.5 18.4965 11.5Z" fill="white"/>
</svg>
