<svg width="41" height="40" viewBox="0 0 41 40" fill="none" xmlns="http://www.w3.org/2000/svg">
<path fill-rule="evenodd" clip-rule="evenodd" d="M20.5 40C31.5457 40 40.5 31.0457 40.5 20C40.5 8.9543 31.5457 0 20.5 0C9.4543 0 0.5 8.9543 0.5 20C0.5 31.0457 9.4543 40 20.5 40Z" fill="#EF9A9A"/>
<path d="M22.5 22.0002H12.7528C11.5108 22.0002 10.5039 23.007 10.5039 24.2491V24.8267C10.5039 25.7195 10.8224 26.583 11.4022 27.2619C12.9685 29.0962 15.3545 30.0013 18.5004 30.0013C19.2149 30.0013 19.8903 29.9546 20.5258 29.861C20.5088 29.7432 20.5 29.6227 20.5 29.5002V28.3473C19.8859 28.4499 19.2197 28.5013 18.5004 28.5013C15.7621 28.5013 13.7962 27.7555 12.5429 26.2878C12.195 25.8805 12.0039 25.3624 12.0039 24.8267V24.2491C12.0039 23.8355 12.3392 23.5002 12.7528 23.5002H20.708C21.0294 22.7647 21.6944 22.2138 22.5 22.0503V22.0002ZM18.5004 10.0049C21.2618 10.0049 23.5004 12.2435 23.5004 15.0049C23.5004 17.7663 21.2618 20.0049 18.5004 20.0049C15.7389 20.0049 13.5004 17.7663 13.5004 15.0049C13.5004 12.2435 15.7389 10.0049 18.5004 10.0049ZM18.5004 11.5049C16.5674 11.5049 15.0004 13.0719 15.0004 15.0049C15.0004 16.9379 16.5674 18.5049 18.5004 18.5049C20.4334 18.5049 22.0004 16.9379 22.0004 15.0049C22.0004 13.0719 20.4334 11.5049 18.5004 11.5049ZM23.5 23.0002H23C22.1716 23.0002 21.5 23.6718 21.5 24.5002V29.5002C21.5 30.3287 22.1716 31.0002 23 31.0002H29C29.8284 31.0002 30.5 30.3287 30.5 29.5002V24.5002C30.5 23.6718 29.8284 23.0002 29 23.0002H28.5V22.0002C28.5 20.6195 27.3807 19.5002 26 19.5002C24.6193 19.5002 23.5 20.6195 23.5 22.0002V23.0002ZM25 22.0002C25 21.448 25.4477 21.0002 26 21.0002C26.5523 21.0002 27 21.448 27 22.0002V23.0002H25V22.0002ZM27 27.0002C27 27.5525 26.5523 28.0002 26 28.0002C25.4477 28.0002 25 27.5525 25 27.0002C25 26.448 25.4477 26.0002 26 26.0002C26.5523 26.0002 27 26.448 27 27.0002Z" fill="white"/>
</svg>
