<svg width="41" height="40" viewBox="0 0 41 40" fill="none" xmlns="http://www.w3.org/2000/svg">
<path fill-rule="evenodd" clip-rule="evenodd" d="M20.5 40C31.5457 40 40.5 31.0457 40.5 20C40.5 8.9543 31.5457 0 20.5 0C9.4543 0 0.5 8.9543 0.5 20C0.5 31.0457 9.4543 40 20.5 40Z" fill="#EF9A9A"/>
<path d="M26.4999 10C26.6738 10 26.8411 10.0604 26.9742 10.169L27.0497 10.2399L30.322 13.7682L30.3527 13.8071C30.4544 13.9428 30.5003 14.0967 30.5003 14.2478L30.4988 16.1667C30.4988 17.1609 30.1202 18.0667 29.4994 18.7478L29.4986 29.25C29.4986 29.6297 29.2165 29.9435 28.8504 29.9932L28.7486 30H12.2511C11.8714 30 11.5576 29.7178 11.508 29.3518L11.5011 29.25L11.5004 18.7478C10.9273 18.1191 10.5607 17.2989 10.5077 16.3945L10.501 16.1667L10.5008 14.291C10.4927 14.1537 10.5224 14.0124 10.5967 13.8831L10.662 13.7877L10.7012 13.7419L13.9501 10.2399C14.0683 10.1124 14.2264 10.0308 14.3966 10.0071L14.4999 10H26.4999ZM23.5818 18.4421L23.5699 18.4598C22.871 19.3944 21.7555 19.9993 20.4987 19.9993C19.2349 19.9993 18.1139 19.3876 17.4158 18.4441C16.7183 19.3876 15.5974 19.9993 14.3336 19.9993C13.8645 19.9993 13.415 19.915 12.9996 19.7608L13.0009 28.499H14.4995L14.4999 21.751C14.4999 21.3713 14.782 21.0575 15.1481 21.0079L15.2499 21.001H19.7458C20.1255 21.001 20.4393 21.2832 20.489 21.6492L20.4958 21.751L20.4955 28.499H27.9979L27.9981 19.7615C27.5833 19.9153 27.1346 19.9993 26.6662 19.9993C25.4015 19.9993 24.2799 19.3867 23.5818 18.4421ZM18.9949 22.501H15.9999V28.499H18.9949V22.501ZM25.7546 21.001C26.1343 21.001 26.4481 21.2832 26.4978 21.6492L26.5046 21.751V25.253C26.5046 25.6327 26.2225 25.9465 25.8564 25.9962L25.7546 26.003H22.2532C21.8735 26.003 21.5597 25.7209 21.51 25.3548L21.5032 25.253V21.751C21.5032 21.3713 21.7853 21.0575 22.1514 21.0079L22.2532 21.001H25.7546ZM25.0039 22.501H23.0029V24.503H25.0039V22.501ZM16.6659 15.002H12.0009L12.001 16.1667L12.0072 16.3378L12.0356 16.569L12.0683 16.7253L12.1177 16.8973L12.172 17.0451L12.2127 17.1391C12.2439 17.207 12.2782 17.2731 12.3155 17.3373L12.4185 17.4987L12.4727 17.5734L12.6015 17.7291L12.7433 17.8732L12.8395 17.9581L12.8816 17.9924C13.1961 18.2429 13.5769 18.4138 13.9933 18.4747L14.1739 18.4939L14.3336 18.4993C15.5681 18.4993 16.5787 17.5402 16.6608 16.3264L16.6661 16.1667L16.6659 15.002ZM22.8309 15.002H18.1659L18.1661 16.1667C18.1661 17.3476 19.0437 18.3236 20.1822 18.478L20.339 18.4939L20.4987 18.4993C21.7333 18.4993 22.7438 17.5402 22.8259 16.3264L22.8313 16.1667L22.8309 15.002ZM28.9979 15.002H24.3329L24.3336 16.1667C24.3336 17.3476 25.2112 18.3236 26.3497 18.478L26.5065 18.4939L26.6662 18.4993C27.2305 18.4993 27.748 18.2989 28.1514 17.9654L28.2412 17.8873L28.357 17.7736L28.5032 17.6044C28.5572 17.5355 28.6075 17.4634 28.6536 17.3885L28.7571 17.2018L28.82 17.0638L28.8783 16.9087L28.9081 16.8131L28.9463 16.6611L28.9747 16.5035L28.9927 16.3368L28.9988 16.1667L28.9979 15.002ZM17.5615 11.499H14.8269L12.9689 13.502H16.9455L17.5615 11.499ZM21.8685 11.499H19.1305L18.5145 13.502H22.4845L21.8685 11.499ZM26.1719 11.499H23.4375L24.0535 13.502H28.0299L26.1719 11.499Z" fill="white"/>
</svg>
