<svg width="41" height="40" viewBox="0 0 41 40" fill="none" xmlns="http://www.w3.org/2000/svg">
<path fill-rule="evenodd" clip-rule="evenodd" d="M20.5 40C31.5457 40 40.5 31.0457 40.5 20C40.5 8.9543 31.5457 0 20.5 0C9.4543 0 0.5 8.9543 0.5 20C0.5 31.0457 9.4543 40 20.5 40Z" fill="#90CAF9"/>
<path d="M26 20C29.0376 20 31.5 22.4624 31.5 25.5C31.5 28.5376 29.0376 31 26 31C22.9624 31 20.5 28.5376 20.5 25.5C20.5 22.4624 22.9624 20 26 20ZM23.3536 25.1465C23.1583 24.9512 22.8417 24.9512 22.6464 25.1465C22.4512 25.3417 22.4512 25.6583 22.6464 25.8536L24.6464 27.8536C24.8417 28.0488 25.1583 28.0488 25.3536 27.8536L29.3536 23.8536C29.5488 23.6583 29.5488 23.3417 29.3536 23.1465C29.1583 22.9512 28.8417 22.9512 28.6464 23.1465L25 26.7929L23.3536 25.1465ZM20.5223 21.9993C20.2256 22.4626 19.986 22.966 19.8136 23.4996L12.7524 23.4999C12.3388 23.4999 12.0035 23.8352 12.0035 24.2488V24.8265C12.0035 25.3622 12.1946 25.8802 12.5425 26.2876C13.7958 27.7553 15.7617 28.5011 18.5 28.5011C19.0964 28.5011 19.6563 28.4657 20.1802 28.3952C20.4254 28.8901 20.733 29.3486 21.0917 29.7615C20.2962 29.9217 19.4314 30.0011 18.5 30.0011C15.3541 30.0011 12.9681 29.0959 11.4018 27.2617C10.8221 26.5828 10.5035 25.7193 10.5035 24.8265V24.2488C10.5035 23.0068 11.5104 21.9999 12.7524 21.9999L20.5223 21.9993ZM18.5 10.0046C21.2614 10.0046 23.5 12.2432 23.5 15.0046C23.5 17.7661 21.2614 20.0046 18.5 20.0046C15.7386 20.0046 13.5 17.7661 13.5 15.0046C13.5 12.2432 15.7386 10.0046 18.5 10.0046ZM18.5 11.5046C16.567 11.5046 15 13.0716 15 15.0046C15 16.9376 16.567 18.5046 18.5 18.5046C20.433 18.5046 22 16.9376 22 15.0046C22 13.0716 20.433 11.5046 18.5 11.5046Z" fill="white"/>
</svg>
