<svg width="41" height="40" viewBox="0 0 41 40" fill="none" xmlns="http://www.w3.org/2000/svg">
<path fill-rule="evenodd" clip-rule="evenodd" d="M20.5 40C31.5457 40 40.5 31.0457 40.5 20C40.5 8.9543 31.5457 0 20.5 0C9.4543 0 0.5 8.9543 0.5 20C0.5 31.0457 9.4543 40 20.5 40Z" fill="#F48FB1"/>
<path d="M29.5 26.251C29.5 25.0089 28.4931 24.002 27.2509 24.002H13.7491C12.5069 24.002 11.5 25.0089 11.5 26.251C11.5 27.4932 12.5069 28.5001 13.7491 28.5001H27.2509C28.4931 28.5001 29.5 27.4932 29.5 26.251ZM25.5 19.751C25.5 18.5089 24.4931 17.502 23.2509 17.502L13.7491 17.502C12.5069 17.502 11.5 18.5089 11.5 19.751C11.5 20.9932 12.5069 22.0001 13.7491 22.0001H23.2509C24.4931 22.0001 25.5 20.9932 25.5 19.751ZM21.5 13.251C21.5 12.0089 20.4931 11.002 19.2509 11.002L13.7491 11.002C12.5069 11.002 11.5 12.0089 11.5 13.251C11.5 14.4932 12.5069 15.5001 13.7491 15.5001L19.2509 15.5001C20.4931 15.5001 21.5 14.4932 21.5 13.251ZM28 26.251C28 26.6647 27.6646 27.0001 27.2509 27.0001H13.7491C13.3354 27.0001 13 26.6647 13 26.251C13 25.8373 13.3354 25.502 13.7491 25.502H27.2509C27.6646 25.502 28 25.8373 28 26.251ZM24 19.751C24 20.1647 23.6646 20.5001 23.2509 20.5001H13.7491C13.3354 20.5001 13 20.1647 13 19.751C13 19.3373 13.3354 19.002 13.7491 19.002H23.2509C23.6646 19.002 24 19.3373 24 19.751ZM20 13.251C20 13.6647 19.6646 14.0001 19.2509 14.0001L13.7491 14.0001C13.3354 14.0001 13 13.6647 13 13.251C13 12.8373 13.3354 12.502 13.7491 12.502L19.2509 12.502C19.6646 12.502 20 12.8373 20 13.251Z" fill="white"/>
</svg>
