<svg width="41" height="40" viewBox="0 0 41 40" fill="none" xmlns="http://www.w3.org/2000/svg">
<path fill-rule="evenodd" clip-rule="evenodd" d="M20.5 40C31.5457 40 40.5 31.0457 40.5 20C40.5 8.9543 31.5457 0 20.5 0C9.4543 0 0.5 8.9543 0.5 20C0.5 31.0457 9.4543 40 20.5 40Z" fill="#FFCC80"/>
<path d="M19.5 23.0002C19.5 22.6496 19.5602 22.313 19.6707 22.0002H12.7523C11.5103 22.0002 10.5034 23.007 10.5034 24.2491V24.8267C10.5034 25.7195 10.8219 26.583 11.4017 27.2619C12.968 29.0962 15.354 30.0013 18.4999 30.0013C18.8974 30.0013 19.2829 29.9869 19.6561 29.9579C19.5549 29.6572 19.5 29.3351 19.5 29.0002V28.4657C19.1788 28.4894 18.8455 28.5013 18.4999 28.5013C15.7616 28.5013 13.7957 27.7555 12.5424 26.2878C12.1945 25.8805 12.0034 25.3624 12.0034 24.8267V24.2491C12.0034 23.8355 12.3387 23.5002 12.7523 23.5002H19.5V23.0002Z" fill="white"/>
<path d="M18.4999 10.0049C21.2613 10.0049 23.4999 12.2435 23.4999 15.0049C23.4999 17.7663 21.2613 20.0049 18.4999 20.0049C15.7385 20.0049 13.4999 17.7663 13.4999 15.0049C13.4999 12.2435 15.7385 10.0049 18.4999 10.0049ZM18.4999 11.5049C16.5669 11.5049 14.9999 13.0719 14.9999 15.0049C14.9999 16.9379 16.5669 18.5049 18.4999 18.5049C20.4329 18.5049 21.9999 16.9379 21.9999 15.0049C21.9999 13.0719 20.4329 11.5049 18.4999 11.5049Z" fill="white"/>
<path d="M20.5 23.0002C20.5 21.8957 21.3954 21.0002 22.5 21.0002H29.5C30.6046 21.0002 31.5 21.8957 31.5 23.0002V29.0002C31.5 30.1048 30.6046 31.0002 29.5 31.0002H22.5C21.3954 31.0002 20.5 30.1048 20.5 29.0002V23.0002ZM23 24.0002C22.7239 24.0002 22.5 24.2241 22.5 24.5002C22.5 24.7764 22.7239 25.0002 23 25.0002H29C29.2761 25.0002 29.5 24.7764 29.5 24.5002C29.5 24.2241 29.2761 24.0002 29 24.0002H23ZM23 27.0002C22.7239 27.0002 22.5 27.2241 22.5 27.5002C22.5 27.7764 22.7239 28.0002 23 28.0002H29C29.2761 28.0002 29.5 27.7764 29.5 27.5002C29.5 27.2241 29.2761 27.0002 29 27.0002H23Z" fill="white"/>
</svg>
