<svg width="41" height="40" viewBox="0 0 41 40" fill="none" xmlns="http://www.w3.org/2000/svg">
<path fill-rule="evenodd" clip-rule="evenodd" d="M20.5 40C31.5457 40 40.5 31.0457 40.5 20C40.5 8.9543 31.5457 0 20.5 0C9.4543 0 0.5 8.9543 0.5 20C0.5 31.0457 9.4543 40 20.5 40Z" fill="#EF9A9A"/>
<path d="M26.0004 20.0003C29.0379 20.0003 31.5004 22.4627 31.5004 25.5003C31.5004 28.5378 29.0379 31.0003 26.0004 31.0003C22.9628 31.0003 20.5004 28.5378 20.5004 25.5003C20.5004 22.4627 22.9628 20.0003 26.0004 20.0003ZM20.5226 21.9996C20.2259 22.4629 19.9864 22.9663 19.814 23.4999L12.7528 23.5002C12.3392 23.5002 12.0039 23.8355 12.0039 24.2491V24.8267C12.0039 25.3624 12.195 25.8805 12.5429 26.2878C13.7962 27.7555 15.7621 28.5013 18.5004 28.5013C19.0968 28.5013 19.6567 28.4659 20.1806 28.3954C20.4258 28.8903 20.7333 29.3489 21.0921 29.7618C20.2966 29.922 19.4317 30.0013 18.5004 30.0013C15.3545 30.0013 12.9685 29.0962 11.4022 27.2619C10.8224 26.583 10.5039 25.7195 10.5039 24.8267V24.2491C10.5039 23.007 11.5108 22.0002 12.7528 22.0002L20.5226 21.9996ZM26.0004 22.0002L25.9105 22.0083C25.7064 22.0453 25.5455 22.2063 25.5084 22.4104L25.5004 22.5002L25.4994 25.0003H23.0043L22.9144 25.0083C22.7103 25.0454 22.5494 25.2063 22.5123 25.4104L22.5043 25.5003L22.5123 25.5901C22.5494 25.7942 22.7103 25.9552 22.9144 25.9922L23.0043 26.0003H25.4994L25.5004 28.5002L25.5084 28.5901C25.5455 28.7942 25.7064 28.9551 25.9105 28.9922L26.0004 29.0002L26.0902 28.9922C26.2943 28.9551 26.4553 28.7942 26.4923 28.5901L26.5004 28.5002L26.4994 26.0003H29.0043L29.0941 25.9922C29.2982 25.9552 29.4592 25.7942 29.4962 25.5901L29.5043 25.5003L29.4962 25.4104C29.4592 25.2063 29.2982 25.0454 29.0941 25.0083L29.0043 25.0003H26.4994L26.5004 22.5002L26.4923 22.4104C26.4553 22.2063 26.2943 22.0453 26.0902 22.0083L26.0004 22.0002ZM18.5004 10.0049C21.2618 10.0049 23.5004 12.2435 23.5004 15.0049C23.5004 17.7663 21.2618 20.0049 18.5004 20.0049C15.7389 20.0049 13.5004 17.7663 13.5004 15.0049C13.5004 12.2435 15.7389 10.0049 18.5004 10.0049ZM18.5004 11.5049C16.5674 11.5049 15.0004 13.0719 15.0004 15.0049C15.0004 16.9379 16.5674 18.5049 18.5004 18.5049C20.4334 18.5049 22.0004 16.9379 22.0004 15.0049C22.0004 13.0719 20.4334 11.5049 18.5004 11.5049Z" fill="white"/>
</svg>
