<svg width="41" height="40" viewBox="0 0 41 40" fill="none" xmlns="http://www.w3.org/2000/svg">
<path fill-rule="evenodd" clip-rule="evenodd" d="M20.5 40C31.5457 40 40.5 31.0457 40.5 20C40.5 8.9543 31.5457 0 20.5 0C9.4543 0 0.5 8.9543 0.5 20C0.5 31.0457 9.4543 40 20.5 40Z" fill="#CE93D8"/>
<path d="M10.5 14.25C10.5 13.0074 11.5074 12 12.75 12H28.25C29.4926 12 30.5 13.0074 30.5 14.25V25.75C30.5 26.9926 29.4926 28 28.25 28H12.75C11.5074 28 10.5 26.9926 10.5 25.75V14.25ZM12.75 13.5C12.3358 13.5 12 13.8358 12 14.25V25.75C12 26.1642 12.3358 26.5 12.75 26.5H28.25C28.6642 26.5 29 26.1642 29 25.75V14.25C29 13.8358 28.6642 13.5 28.25 13.5H12.75ZM16.7197 16.2152C17.0126 15.9223 17.4874 15.9223 17.7803 16.2152L20.5007 18.9356L23.2249 16.2189C23.5182 15.9264 23.9931 15.9271 24.2856 16.2204C24.5781 16.5137 24.5774 16.9886 24.2841 17.2811L21.5614 19.9962L24.2848 22.7197C24.5777 23.0126 24.5777 23.4874 24.2848 23.7803C23.9919 24.0732 23.5171 24.0732 23.2242 23.7803L20.5004 21.0565L17.7807 23.78C17.488 24.0731 17.0131 24.0734 16.72 23.7807C16.4269 23.488 16.4266 23.0131 16.7193 22.72L19.4397 19.9959L16.7197 17.2758C16.4268 16.9829 16.4268 16.5081 16.7197 16.2152Z" fill="white"/>
</svg>
