<svg width="41" height="40" viewBox="0 0 41 40" fill="none" xmlns="http://www.w3.org/2000/svg">
<path fill-rule="evenodd" clip-rule="evenodd" d="M20.5 40C31.5457 40 40.5 31.0457 40.5 20C40.5 8.9543 31.5457 0 20.5 0C9.4543 0 0.5 8.9543 0.5 20C0.5 31.0457 9.4543 40 20.5 40Z" fill="#EF9A9A"/>
<path d="M21.5 20.501C22.5538 20.501 23.4181 21.3165 23.4945 22.3517L23.5 22.501V23H22V22.501C22 22.2557 21.8222 22.0514 21.5896 22.0091L21.5 22.001L12.5 22L12.3993 22.01C12.275 22.0353 12.19 22.1028 12.146 22.146C12.1028 22.19 12.0353 22.2743 12.01 22.399L12 22.5V24.5C12 25.509 12.45 26.222 13.417 26.742C14.2432 27.1869 15.4195 27.4563 16.6826 27.4951L17 27.5L17.3174 27.4951C18.099 27.4711 18.8472 27.3588 19.5 27.1712V28.7215C18.6627 28.9188 17.7935 29 17 29C14.2779 29 10.6647 28.044 10.5055 24.7296L10.5 24.5V22.5C10.5 21.4462 11.3164 20.5819 12.3508 20.5055L12.5 20.5L21.5 20.501ZM30 23C30.1712 23 30.3384 23.0172 30.5 23.05V22.501L30.4945 22.3518C30.4181 21.3174 29.5538 20.501 28.5 20.501H23.72L23.8545 20.6608C24.1554 21.0442 24.365 21.4996 24.449 22.001H28.5L28.5896 22.0091C28.8222 22.0514 29 22.2557 29 22.501V23H30ZM17 10C19.485 10 21.5 12.015 21.5 14.5C21.5 16.985 19.485 19 17 19C14.515 19 12.5 16.985 12.5 14.5C12.5 12.015 14.515 10 17 10ZM17 11.5C15.346 11.5 14 12.846 14 14.5C14 16.154 15.346 17.5 17 17.5C18.654 17.5 20 16.154 20 14.5C20 12.846 18.654 11.5 17 11.5ZM26 12C27.933 12 29.5 13.567 29.5 15.5C29.5 17.433 27.933 19 26 19C24.067 19 22.5 17.433 22.5 15.5C22.5 13.567 24.067 12 26 12ZM26 13.5C24.897 13.5 24 14.397 24 15.5C24 16.603 24.897 17.5 26 17.5C27.103 17.5 28 16.603 28 15.5C28 14.397 27.103 13.5 26 13.5ZM20.5 25.5C20.5 24.6716 21.1716 24 22 24H30C30.8284 24 31.5 24.6716 31.5 25.5V29.5C31.5 30.3284 30.8284 31 30 31H22C21.1716 31 20.5 30.3284 20.5 29.5V25.5ZM30.5 26C29.9477 26 29.5 25.5523 29.5 25H28.5C28.5 26.1046 29.3954 27 30.5 27V26ZM30.5 28C29.3954 28 28.5 28.8954 28.5 30H29.5C29.5 29.4477 29.9477 29 30.5 29V28ZM22.5 25C22.5 25.5523 22.0523 26 21.5 26V27C22.6046 27 23.5 26.1046 23.5 25H22.5ZM23.5 30C23.5 28.8954 22.6046 28 21.5 28V29C22.0523 29 22.5 29.4477 22.5 30H23.5ZM27.75 27.5C27.75 26.5335 26.9665 25.75 26 25.75C25.0335 25.75 24.25 26.5335 24.25 27.5C24.25 28.4665 25.0335 29.25 26 29.25C26.9665 29.25 27.75 28.4665 27.75 27.5Z" fill="white"/>
</svg>
