<svg width="41" height="40" viewBox="0 0 41 40" fill="none" xmlns="http://www.w3.org/2000/svg">
<path fill-rule="evenodd" clip-rule="evenodd" d="M20.5 40C31.5457 40 40.5 31.0457 40.5 20C40.5 8.9543 31.5457 0 20.5 0C9.4543 0 0.5 8.9543 0.5 20C0.5 31.0457 9.4543 40 20.5 40Z" fill="#CE93D8"/>
<path d="M31.5 14.5C31.5 17.5376 29.0376 20 26 20C22.9624 20 20.5 17.5376 20.5 14.5C20.5 11.4624 22.9624 9 26 9C29.0376 9 31.5 11.4624 31.5 14.5ZM23 14C22.7239 14 22.5 14.2239 22.5 14.5C22.5 14.7761 22.7239 15 23 15L27.7929 15L26.1464 16.6464C25.9512 16.8417 25.9512 17.1583 26.1464 17.3536C26.3417 17.5488 26.6583 17.5488 26.8536 17.3536L29.3536 14.8536C29.5488 14.6583 29.5488 14.3417 29.3536 14.1464L26.8536 11.6464C26.6583 11.4512 26.3417 11.4512 26.1464 11.6464C25.9512 11.8417 25.9512 12.1583 26.1464 12.3536L27.7929 14L23 14ZM28.9988 23.7518V20.2684C29.5498 19.9814 30.0545 19.6177 30.4988 19.1915V23.7518C30.4988 24.9427 29.5737 25.9175 28.4029 25.9967L28.2488 26.0018L23.999 26.0016V28.4996L25.75 28.5C26.1642 28.5 26.5 28.8358 26.5 29.25C26.5 29.6297 26.2178 29.9435 25.8518 29.9932L25.75 30H15.25C14.8358 30 14.5 29.6642 14.5 29.25C14.5 28.8703 14.7822 28.5565 15.1482 28.5069L15.25 28.5L16.999 28.4996V26.0016L12.75 26.0018C11.5591 26.0018 10.5844 25.0767 10.5052 23.9059L10.5 23.7518V13.2496C10.5 12.0587 11.4252 11.0839 12.596 11.0048L12.75 10.9996H20.5221C20.2255 11.4628 19.986 11.9661 19.8136 12.4996H12.75C12.3703 12.4996 12.0565 12.7817 12.0068 13.1478L12 13.2496V23.7518C12 24.1315 12.2822 24.4453 12.6482 24.495L12.75 24.5018H28.2488C28.6285 24.5018 28.9423 24.2197 28.992 23.8536L28.9988 23.7518ZM22.498 26.0016H18.498L18.499 28.5H22.499L22.498 26.0016Z" fill="white"/>
</svg>
