<svg width="41" height="40" viewBox="0 0 41 40" fill="none" xmlns="http://www.w3.org/2000/svg">
<path fill-rule="evenodd" clip-rule="evenodd" d="M20.5 40C31.5457 40 40.5 31.0457 40.5 20C40.5 8.9543 31.5457 0 20.5 0C9.4543 0 0.5 8.9543 0.5 20C0.5 31.0457 9.4543 40 20.5 40Z" fill="#90CAF9"/>
<path d="M23.437 23.5C23.2149 22.6372 22.4315 22 21.5 22L12.5 21.999L12.3508 22.0045C11.3164 22.0809 10.5 22.9452 10.5 23.999V25.5L10.5055 25.7296C10.6647 29.044 14.2779 30 17 30C17.8552 30 18.7982 29.9056 19.6944 29.6735L19.0126 28.992C18.8344 28.8139 18.6987 28.6014 18.6117 28.3701C18.1988 28.4389 17.7636 28.4814 17.3174 28.4951L17 28.5L16.6826 28.4951C15.4195 28.4563 14.2432 28.1869 13.417 27.742C12.45 27.222 12 26.509 12 25.5V23.999L12.01 23.898C12.0353 23.7733 12.1028 23.689 12.146 23.645C12.19 23.6018 12.275 23.5343 12.3993 23.509L12.5 23.499L23.437 23.5ZM23.28 29.7227C23.5729 30.0156 23.573 30.4904 23.2802 30.7834C22.9874 31.0763 22.5125 31.0764 22.2195 30.7836L19.7195 28.2847C19.6756 28.2408 19.6377 28.192 19.6064 28.1397C19.5372 28.0242 19.4998 27.8913 19.4998 27.7544C19.4997 27.5555 19.5787 27.3647 19.7193 27.224L22.2193 24.723C22.5121 24.43 22.987 24.4299 23.28 24.7227C23.5729 25.0156 23.573 25.4904 23.2802 25.7834L22.0609 27.0032H28.9383L27.7193 25.7833C27.4265 25.4903 27.4266 25.0155 27.7196 24.7227C28.0126 24.4299 28.4875 24.43 28.7803 24.723L31.2803 27.2246C31.4209 27.3653 31.4998 27.5561 31.4998 27.755C31.4997 27.9539 31.4206 28.1447 31.2799 28.2853L28.7799 30.7837C28.4869 31.0765 28.0121 31.0763 27.7193 30.7833C27.4265 30.4903 27.4266 30.0155 27.7196 29.7227L28.9399 28.5032H22.0599L23.28 29.7227ZM30.5 25L30.4999 25.0291L29.4876 24.0161C29.2816 23.81 29.0371 23.6661 28.7772 23.5842C28.7214 23.5469 28.6579 23.5205 28.5896 23.5081L28.5 23.5H24.449C24.365 22.9986 24.1554 22.5432 23.8545 22.1598L23.72 22H28.5C29.5538 22 30.4181 22.8164 30.4945 23.8508L30.5 24V25ZM21.5 15.5C21.5 13.015 19.485 11 17 11C14.515 11 12.5 13.015 12.5 15.5C12.5 17.985 14.515 20 17 20C19.485 20 21.5 17.985 21.5 15.5ZM14 15.5C14 13.846 15.346 12.5 17 12.5C18.654 12.5 20 13.846 20 15.5C20 17.154 18.654 18.5 17 18.5C15.346 18.5 14 17.154 14 15.5ZM29.5 16.5C29.5 14.567 27.933 13 26 13C24.067 13 22.5 14.567 22.5 16.5C22.5 18.433 24.067 20 26 20C27.933 20 29.5 18.433 29.5 16.5ZM24 16.5C24 15.397 24.897 14.5 26 14.5C27.103 14.5 28 15.397 28 16.5C28 17.603 27.103 18.5 26 18.5C24.897 18.5 24 17.603 24 16.5Z" fill="white"/>
</svg>
