<svg width="41" height="40" viewBox="0 0 41 40" fill="none" xmlns="http://www.w3.org/2000/svg">
<path fill-rule="evenodd" clip-rule="evenodd" d="M20.5 40C31.5457 40 40.5 31.0457 40.5 20C40.5 8.9543 31.5457 0 20.5 0C9.4543 0 0.5 8.9543 0.5 20C0.5 31.0457 9.4543 40 20.5 40Z" fill="#A5D6A7"/>
<path d="M13.0239 14.25C13.0239 13.8358 13.3597 13.5 13.7739 13.5H27.2297C27.6439 13.5 27.9797 13.8358 27.9797 14.25V17.75C27.9797 18.1642 27.6439 18.5 27.2297 18.5H13.7739C13.3597 18.5 13.0239 18.1642 13.0239 17.75V14.25ZM14.5239 15V17H26.4797V15H14.5239ZM22.7297 19.979C22.3155 19.979 21.9797 20.3148 21.9797 20.729V25.229C21.9797 25.6432 22.3155 25.979 22.7297 25.979H27.2297C27.6439 25.979 27.9797 25.6432 27.9797 25.229V20.729C27.9797 20.3148 27.6439 19.979 27.2297 19.979H22.7297ZM23.4797 24.479V21.479H26.4797V24.479H23.4797ZM13.0239 21.25C13.0239 20.8358 13.3597 20.5 13.7739 20.5H19.75C20.1642 20.5 20.5 20.8358 20.5 21.25C20.5 21.6642 20.1642 22 19.75 22H13.7739C13.3597 22 13.0239 21.6642 13.0239 21.25ZM13.7739 24C13.3597 24 13.0239 24.3358 13.0239 24.75C13.0239 25.1642 13.3597 25.5 13.7739 25.5H19.75C20.1642 25.5 20.5 25.1642 20.5 24.75C20.5 24.3358 20.1642 24 19.75 24H13.7739ZM10.5 13.75C10.5 12.2312 11.7312 11 13.25 11H27.75C29.2688 11 30.5 12.2312 30.5 13.75V26.25C30.5 27.7688 29.2688 29 27.75 29H13.25C11.7312 29 10.5 27.7688 10.5 26.25V13.75ZM13.25 12.5C12.5596 12.5 12 13.0596 12 13.75V26.25C12 26.9404 12.5596 27.5 13.25 27.5H27.75C28.4404 27.5 29 26.9404 29 26.25V13.75C29 13.0596 28.4404 12.5 27.75 12.5H13.25Z" fill="white"/>
</svg>
