<svg width="41" height="40" viewBox="0 0 41 40" fill="none" xmlns="http://www.w3.org/2000/svg">
<path fill-rule="evenodd" clip-rule="evenodd" d="M20.5 40C31.5457 40 40.5 31.0457 40.5 20C40.5 8.9543 31.5457 0 20.5 0C9.4543 0 0.5 8.9543 0.5 20C0.5 31.0457 9.4543 40 20.5 40Z" fill="#80DEEA"/>
<path d="M15.2803 10.7197C15.5732 11.0126 15.5732 11.4874 15.2803 11.7803L13.0607 14H21.75C26.0302 14 29.5 17.4698 29.5 21.75C29.5 26.0302 26.0302 29.5 21.75 29.5C17.4698 29.5 14 26.0302 14 21.75C14 21.3358 14.3358 21 14.75 21C15.1642 21 15.5 21.3358 15.5 21.75C15.5 25.2018 18.2982 28 21.75 28C25.2018 28 28 25.2018 28 21.75C28 18.2982 25.2018 15.5 21.75 15.5H13.0607L15.2803 17.7197C15.5732 18.0126 15.5732 18.4874 15.2803 18.7803C14.9874 19.0732 14.5126 19.0732 14.2197 18.7803L10.7197 15.2803C10.4268 14.9874 10.4268 14.5126 10.7197 14.2197L14.2197 10.7197C14.5126 10.4268 14.9874 10.4268 15.2803 10.7197Z" fill="white"/>
</svg>
