<svg width="41" height="40" viewBox="0 0 41 40" fill="none" xmlns="http://www.w3.org/2000/svg">
<path fill-rule="evenodd" clip-rule="evenodd" d="M20.5 40C31.5457 40 40.5 31.0457 40.5 20C40.5 8.9543 31.5457 0 20.5 0C9.4543 0 0.5 8.9543 0.5 20C0.5 31.0457 9.4543 40 20.5 40Z" fill="#FFCC80"/>
<path d="M25.75 12.5C26.1642 12.5 26.5 12.8358 26.5 13.25C26.5 13.6642 26.1642 14 25.75 14H16.75C16.3358 14 16 13.6642 16 13.25C16 12.8358 16.3358 12.5 16.75 12.5H25.75ZM30.25 18.5C30.6642 18.5 31 18.8358 31 19.25C31 19.6642 30.6642 20 30.25 20H16.75C16.3358 20 16 19.6642 16 19.25C16 18.8358 16.3358 18.5 16.75 18.5H30.25ZM22.75 24.5C23.1642 24.5 23.5 24.8358 23.5 25.25C23.5 25.6642 23.1642 26 22.75 26H16.75C16.3358 26 16 25.6642 16 25.25C16 24.8358 16.3358 24.5 16.75 24.5H22.75ZM12.4696 16.4697C12.7626 16.1768 13.2374 16.1768 13.5304 16.4697C13.8232 16.7626 13.8232 17.2374 13.5304 17.5303L11.8106 19.25L13.5304 20.9697C13.8232 21.2626 13.8232 21.7374 13.5304 22.0303C13.2374 22.3232 12.7626 22.3232 12.4696 22.0303L10.2196 19.7803C9.9268 19.4874 9.9268 19.0126 10.2196 18.7197L12.4696 16.4697Z" fill="white"/>
</svg>
