<svg width="41" height="40" viewBox="0 0 41 40" fill="none" xmlns="http://www.w3.org/2000/svg">
<path fill-rule="evenodd" clip-rule="evenodd" d="M20.5 40C31.5457 40 40.5 31.0457 40.5 20C40.5 8.9543 31.5457 0 20.5 0C9.4543 0 0.5 8.9543 0.5 20C0.5 31.0457 9.4543 40 20.5 40Z" fill="#FFCC80"/>
<path d="M26.25 11C27.983 11 29.3992 12.3565 29.4948 14.0656L29.5 14.25V25.75C29.5 27.483 28.1435 28.8992 26.4344 28.9949L26.25 29H14.75C13.0169 29 11.6007 27.6435 11.5051 25.9344L11.5 25.75L11.4997 17.3721C11.7344 17.4551 11.9869 17.5002 12.25 17.5002C12.513 17.5002 12.7655 17.4551 13.0002 17.3721L13 25.75C13 26.6682 13.7071 27.4212 14.6065 27.4942L14.75 27.5H26.25C27.1682 27.5 27.9212 26.7929 27.9942 25.8935L28 25.75V14.25C28 13.3318 27.2929 12.5788 26.3935 12.5058L26.25 12.5H14.75C14.1498 12.5 13.6202 12.8021 13.3049 13.2626C12.991 13.095 12.6316 13 12.25 13C12.0688 13 11.8925 13.0214 11.7237 13.0619C12.177 11.909 13.2699 11.0776 14.5656 11.0051L14.75 11H26.25ZM21.746 21.0031C22.1602 21.0031 22.496 21.3388 22.496 21.7531C22.496 22.1327 22.2138 22.4465 21.8478 22.4962L21.746 22.5031H17.2477C16.8335 22.5031 16.4977 22.1673 16.4977 21.7531C16.4977 21.3734 16.7799 21.0596 17.146 21.0099L17.2477 21.0031H21.746ZM23.7522 17.4962C24.1664 17.4962 24.5022 17.832 24.5022 18.2462C24.5022 18.6259 24.2201 18.9397 23.854 18.9894L23.7522 18.9962H17.2477C16.8335 18.9962 16.4977 18.6604 16.4977 18.2462C16.4977 17.8665 16.7799 17.5527 17.146 17.5031L17.2477 17.4962H23.7522ZM12.25 14C12.9404 14 13.5001 14.5597 13.5001 15.2501C13.5001 15.9405 12.9404 16.5002 12.25 16.5002C11.5596 16.5002 10.9999 15.9405 10.9999 15.2501C10.9999 14.5597 11.5596 14 12.25 14Z" fill="white"/>
</svg>
