<svg width="41" height="40" viewBox="0 0 41 40" fill="none" xmlns="http://www.w3.org/2000/svg">
<path fill-rule="evenodd" clip-rule="evenodd" d="M20.5 40C31.5457 40 40.5 31.0457 40.5 20C40.5 8.9543 31.5457 0 20.5 0C9.4543 0 0.5 8.9543 0.5 20C0.5 31.0457 9.4543 40 20.5 40Z" fill="#80CBC4"/>
<path d="M26 20C29.0376 20 31.5 22.4624 31.5 25.5C31.5 28.5376 29.0376 31 26 31C22.9624 31 20.5 28.5376 20.5 25.5C20.5 22.4624 22.9624 20 26 20ZM23.5238 23.0241C23.3285 23.2194 23.3285 23.536 23.5238 23.7312L25.293 25.501L23.5264 27.2675C23.3311 27.4628 23.3311 27.7793 23.5264 27.9746C23.7217 28.1699 24.0382 28.1699 24.2335 27.9746L26 26.208L27.7694 27.9768C27.9647 28.1721 28.2812 28.1721 28.4765 27.9768C28.6718 27.7816 28.6718 27.465 28.4765 27.2697L26.708 25.501L28.4793 23.7313C28.6745 23.536 28.6745 23.2194 28.4793 23.0242C28.284 22.8289 27.9674 22.8289 27.7722 23.0242L26.001 24.794L24.2309 23.0241C24.0356 22.8289 23.7191 22.8289 23.5238 23.0241ZM26.25 11C28.0449 11 29.5 12.4551 29.5 14.25L29.5012 20.0226C29.0378 19.7258 28.5342 19.4861 28.0004 19.3136L28 16.5H13V25.75C13 26.7165 13.7835 27.5 14.75 27.5L19.8136 27.5004C19.9861 28.0342 20.2258 28.5378 20.5226 29.0012L14.75 29C12.9551 29 11.5 27.5449 11.5 25.75V14.25C11.5 12.4551 12.9551 11 14.75 11H26.25ZM26.25 12.5H14.75C13.7835 12.5 13 13.2835 13 14.25V15H28V14.25C28 13.2835 27.2165 12.5 26.25 12.5Z" fill="white"/>
</svg>
