<svg width="41" height="40" viewBox="0 0 41 40" fill="none" xmlns="http://www.w3.org/2000/svg">
<path fill-rule="evenodd" clip-rule="evenodd" d="M20.5 40C31.5457 40 40.5 31.0457 40.5 20C40.5 8.9543 31.5457 0 20.5 0C9.4543 0 0.5 8.9543 0.5 20C0.5 31.0457 9.4543 40 20.5 40Z" fill="#EF9A9A"/>
<path d="M19.75 14.7505C19.75 14.3363 20.0858 14.0005 20.5 14.0005C20.9142 14.0005 21.25 14.3363 21.25 14.7505V16.2505C21.25 16.6647 20.9142 17.0005 20.5 17.0005C20.0858 17.0005 19.75 16.6647 19.75 16.2505V14.7505ZM24.7803 16.2158C24.4874 15.9229 24.0126 15.9229 23.7197 16.2158L22.659 17.2765C22.3661 17.5694 22.3661 18.0443 22.659 18.3372C22.9519 18.6301 23.4268 18.6301 23.7197 18.3372L24.7803 17.2765C25.0732 16.9836 25.0732 16.5087 24.7803 16.2158ZM17.2803 16.2158C16.9874 15.9229 16.5126 15.9229 16.2197 16.2158C15.9268 16.5087 15.9268 16.9836 16.2197 17.2765L17.2803 18.3372C17.5732 18.6301 18.0481 18.6301 18.341 18.3372C18.6339 18.0443 18.6339 17.5694 18.341 17.2765L17.2803 16.2158ZM20.5 10.0007C24.5041 10.0007 27.75 13.2467 27.75 17.2507C27.75 19.3468 26.8493 21.2704 25.0869 22.9926C25.01 23.0678 24.9504 23.1584 24.9118 23.2579L24.8804 23.3602L23.7493 28.2558C23.5266 29.2198 22.7035 29.9181 21.7302 29.9927L21.557 29.9993H19.4433C18.4537 29.9993 17.5879 29.3543 17.2963 28.4226L17.2509 28.2553L16.1213 23.3605C16.089 23.2206 16.0173 23.0929 15.9146 22.9926C14.2352 21.3524 13.3378 19.5295 13.2561 17.549L13.25 17.2507L13.2539 17.0114C13.3801 13.1181 16.576 10.0007 20.5 10.0007ZM22.615 26.4987H18.384L18.7125 27.918C18.7831 28.2242 19.0357 28.4501 19.3401 28.4922L19.4433 28.4993H21.557C21.8713 28.4993 22.1481 28.3042 22.2577 28.0171L22.2878 27.9182L22.615 26.4987ZM20.5 11.5007C17.3982 11.5007 14.8701 13.9567 14.7542 17.0302L14.75 17.2507L14.7567 17.5277C14.8329 19.0911 15.5572 20.5469 16.9626 21.9195C17.2268 22.1774 17.4227 22.4957 17.5342 22.8457L17.5829 23.0232L18.038 24.9987H19.75V18.75C19.75 18.3358 20.0858 18 20.5 18C20.9142 18 21.25 18.3358 21.25 18.75V24.9987H22.961L23.4189 23.0226C23.5019 22.6632 23.6718 22.3307 23.9124 22.0536L24.0386 21.9198C25.4432 20.5472 26.1672 19.0914 26.2433 17.5278L26.25 17.2507L26.2458 17.0302C26.1299 13.9567 23.6018 11.5007 20.5 11.5007Z" fill="white"/>
</svg>
