<svg width="41" height="40" viewBox="0 0 41 40" fill="none" xmlns="http://www.w3.org/2000/svg">
<path fill-rule="evenodd" clip-rule="evenodd" d="M20.5 40C31.5457 40 40.5 31.0457 40.5 20C40.5 8.9543 31.5457 0 20.5 0C9.4543 0 0.5 8.9543 0.5 20C0.5 31.0457 9.4543 40 20.5 40Z" fill="#90CAF9"/>
<path d="M25.75 9.9967C27.2688 9.9967 28.5 11.2279 28.5 12.7467V19.3535C28.2616 19.2861 28.01 19.25 27.75 19.25H27V12.7467C27 12.0563 26.4404 11.4967 25.75 11.4967H13.25C12.5596 11.4967 12 12.0563 12 12.7467V25.2467C12 25.9371 12.5596 26.4967 13.25 26.4967H19.5V27.9967H13.25C11.7312 27.9967 10.5 26.7655 10.5 25.2467V12.7467C10.5 11.2279 11.7312 9.9967 13.25 9.9967H25.75ZM24.5 14.7294V19.25H24.25C23.7999 19.25 23.375 19.3582 23 19.5499V14.7294C23 14.3266 23.3358 14 23.75 14C24.1297 14 24.4435 14.2744 24.4932 14.6304L24.5 14.7294ZM20.2146 19.7159L20.2446 22.72C19.8988 23.061 19.6519 23.502 19.5508 23.9961C19.5422 23.9965 19.5336 23.9967 19.5249 23.9968C19.1542 24.0003 18.8451 23.7301 18.793 23.3761L18.7854 23.2776L18.75 19.7303C18.746 19.3291 19.0707 19.0007 19.4751 18.9967C19.8458 18.9931 20.1549 19.2634 20.207 19.6174L20.2146 19.7159ZM15.25 16C15.6297 16 15.9435 16.281 15.9932 16.6455L16 16.7468V23.2532C16 23.6657 15.6642 24 15.25 24C14.8703 24 14.5565 23.7191 14.5068 23.3546L14.5 23.2532V16.7468C14.5 16.3344 14.8358 16 15.25 16ZM22.5 23H22C21.1716 23 20.5 23.6716 20.5 24.5V26H23V25.75C23 25.3358 23.3358 25 23.75 25C24.1642 25 24.5 25.3358 24.5 25.75V26H27.5V25.75C27.5 25.3358 27.8358 25 28.25 25C28.6642 25 29 25.3358 29 25.75V26H31.5V24.5C31.5 23.6716 30.8284 23 30 23H29.5V22C29.5 21.0335 28.7165 20.25 27.75 20.25H24.25C23.2835 20.25 22.5 21.0335 22.5 22V23ZM24 22C24 21.8619 24.1119 21.75 24.25 21.75H27.75C27.8881 21.75 28 21.8619 28 22V23H24V22ZM20.5 29.5V27.5H23V28.25C23 28.6642 23.3358 29 23.75 29C24.1642 29 24.5 28.6642 24.5 28.25V27.5H27.5V28.25C27.5 28.6642 27.8358 29 28.25 29C28.6642 29 29 28.6642 29 28.25V27.5H31.5V29.5C31.5 30.3284 30.8284 31 30 31H22C21.1716 31 20.5 30.3284 20.5 29.5Z" fill="white"/>
</svg>
