<svg width="41" height="40" viewBox="0 0 41 40" fill="none" xmlns="http://www.w3.org/2000/svg">
<path fill-rule="evenodd" clip-rule="evenodd" d="M20.5 40C31.5457 40 40.5 31.0457 40.5 20C40.5 8.9543 31.5457 0 20.5 0C9.4543 0 0.5 8.9543 0.5 20C0.5 31.0457 9.4543 40 20.5 40Z" fill="#BCAAA4"/>
<path d="M16.794 22L15.0269 29.0681C14.8405 29.814 15.7634 30.324 16.2957 29.7693L19.5577 26.37C19.5197 26.0854 19.5 25.795 19.5 25.5C19.5 25.0223 19.5515 24.5566 19.6494 24.1082L17.1662 26.6958L18.4822 21.4319C18.6005 20.9585 18.2425 20.5 17.7546 20.5H15.2443L17.8157 11.5H23.2094L21.5385 16.5128C21.3766 16.9985 21.738 17.5 22.25 17.5H25.9908L24.3481 19.2118C24.8756 19.0736 25.4292 19 26 19C26.2036 19 26.4049 19.0094 26.6037 19.0277L28.2911 17.2693C28.7486 16.7925 28.4107 16 27.75 16H23.2905L24.9615 10.9872C25.1234 10.5015 24.7619 10 24.25 10H17.25C16.9151 10 16.6208 10.222 16.5288 10.544L13.5288 21.044C13.3919 21.5231 13.7517 22 14.25 22H16.794ZM21 23.6285L21.4472 24.0588C22.2649 24.8456 22.2649 26.1544 21.4472 26.9412L21 27.3715C21.2006 27.945 21.4907 28.4742 21.8528 28.9409L22.4547 28.7631C23.5522 28.4388 24.6974 29.0998 24.9657 30.2122L25.1384 30.9281C25.4188 30.9754 25.7065 31 25.9998 31C26.2931 31 26.5809 30.9754 26.8613 30.9281L27.0339 30.2122C27.3022 29.0998 28.4474 28.4388 29.5449 28.7631L30.1468 28.9409C30.509 28.4742 30.7991 27.945 30.9996 27.3715L30.5524 26.9412C29.7347 26.1544 29.7347 24.8456 30.5524 24.0588L30.9996 23.6285C30.7991 23.055 30.509 22.5258 30.1468 22.0591L29.5449 22.2369C28.4474 22.5612 27.3022 21.9002 27.0339 20.7878L26.8613 20.0719C26.5809 20.0246 26.2931 20 25.9998 20C25.7065 20 25.4188 20.0246 25.1384 20.0719L24.9657 20.7878C24.6974 21.9002 23.5522 22.5612 22.4547 22.2369L21.8528 22.0591C21.4907 22.5258 21.2006 23.055 21 23.6285ZM25.9998 27C25.1992 27 24.5501 26.3284 24.5501 25.5C24.5501 24.6716 25.1992 24 25.9998 24C26.8004 24 27.4495 24.6716 27.4495 25.5C27.4495 26.3284 26.8004 27 25.9998 27Z" fill="white"/>
</svg>
