<svg width="41" height="40" viewBox="0 0 41 40" fill="none" xmlns="http://www.w3.org/2000/svg">
<path fill-rule="evenodd" clip-rule="evenodd" d="M20.5 40C31.5457 40 40.5 31.0457 40.5 20C40.5 8.9543 31.5457 0 20.5 0C9.4543 0 0.5 8.9543 0.5 20C0.5 31.0457 9.4543 40 20.5 40Z" fill="#A5D6A7"/>
<path d="M28.4947 12.0969C28.4155 10.9261 27.4407 10.001 26.2499 10.001H14.75L14.596 10.0062C13.4252 10.0853 12.5 11.0601 12.5 12.251V27.749L12.5052 27.9031C12.5844 29.0739 13.5591 29.999 14.75 29.999H22.3175L20.8188 28.499H14.75L14.6482 28.4922C14.2822 28.4425 14 28.1287 14 27.749V12.251L14.0068 12.1492C14.0565 11.7831 14.3703 11.501 14.75 11.501H26.2499L26.3516 11.5078C26.7177 11.5575 26.9999 11.8713 26.9999 12.251V23.8178L28.1587 22.659C28.2651 22.5526 28.3794 22.4591 28.4999 22.3785V12.251L28.4947 12.0969ZM24.7876 29.999C24.7749 29.9997 24.7622 30 24.7495 30C24.7369 30 24.7243 29.9997 24.7118 29.999C24.5266 29.9897 24.3508 29.9119 24.2191 29.7801L21.7194 27.2783C21.4267 26.9853 21.4269 26.5104 21.7199 26.2176C22.0129 25.9248 22.4878 25.925 22.7806 26.2181L24.7499 28.1891L29.2194 23.7197C29.5122 23.4268 29.9871 23.4268 30.28 23.7197C30.5729 24.0126 30.5729 24.4874 30.28 24.7803L25.28 29.7803C25.1483 29.912 24.9727 29.9897 24.7876 29.999ZM22.3413 24.5C22.2805 24.4976 22.2195 24.4976 22.1587 24.5H19.7461C19.3319 24.5 18.9961 24.1642 18.9961 23.75C18.9961 23.3358 19.3319 23 19.7461 23H24.7499C25.1642 23 25.4999 23.3358 25.4999 23.75C25.4999 24.1642 25.1642 24.5 24.7499 24.5H22.3413ZM17.5 15.7516C17.5 16.3039 17.0523 16.7516 16.5 16.7516C15.9477 16.7516 15.5 16.3039 15.5 15.7516C15.5 15.1993 15.9477 14.7516 16.5 14.7516C17.0523 14.7516 17.5 15.1993 17.5 15.7516ZM18.9961 15.75C18.9961 15.3358 19.3319 15 19.7461 15H24.7499C25.1642 15 25.4999 15.3358 25.4999 15.75C25.4999 16.1642 25.1642 16.5 24.7499 16.5H19.7461C19.3319 16.5 18.9961 16.1642 18.9961 15.75ZM19.7461 19C19.3319 19 18.9961 19.3358 18.9961 19.75C18.9961 20.1642 19.3319 20.5 19.7461 20.5H24.7499C25.1642 20.5 25.4999 20.1642 25.4999 19.75C25.4999 19.3358 25.1642 19 24.7499 19H19.7461ZM16.5 20.75C17.0523 20.75 17.5 20.3023 17.5 19.75C17.5 19.1977 17.0523 18.75 16.5 18.75C15.9477 18.75 15.5 19.1977 15.5 19.75C15.5 20.3023 15.9477 20.75 16.5 20.75ZM17.5 23.748C17.5 24.3003 17.0523 24.748 16.5 24.748C15.9477 24.748 15.5 24.3003 15.5 23.748C15.5 23.1957 15.9477 22.748 16.5 22.748C17.0523 22.748 17.5 23.1957 17.5 23.748Z" fill="white"/>
</svg>
