<svg width="41" height="40" viewBox="0 0 41 40" fill="none" xmlns="http://www.w3.org/2000/svg">
<path fill-rule="evenodd" clip-rule="evenodd" d="M20.5 40C31.5457 40 40.5 31.0457 40.5 20C40.5 8.9543 31.5457 0 20.5 0C9.4543 0 0.5 8.9543 0.5 20C0.5 31.0457 9.4543 40 20.5 40Z" fill="#A5D6A7"/>
<path d="M26 20C29.0376 20 31.5 22.4624 31.5 25.5C31.5 28.5376 29.0376 31 26 31C22.9624 31 20.5 28.5376 20.5 25.5C20.5 22.4624 22.9624 20 26 20ZM26.25 11C28.0449 11 29.5 12.4551 29.5 14.25L29.5012 20.0226C29.0378 19.7258 28.5342 19.4861 28.0004 19.3136L28 16.5H13V25.75C13 26.7165 13.7835 27.5 14.75 27.5L19.8136 27.5004C19.9861 28.0342 20.2258 28.5378 20.5226 29.0012L14.75 29C12.9551 29 11.5 27.5449 11.5 25.75V14.25C11.5 12.4551 12.9551 11 14.75 11H26.25ZM25.484 22.0455L25.4446 22.1441L24.8876 23.9311H23.0851C22.5527 23.9311 22.313 24.5995 22.6682 24.9671L22.7418 25.0323L24.2001 26.1368L23.6431 27.9238C23.478 28.4535 24.0181 28.8989 24.4641 28.6548L24.5417 28.6044L26 27.5L27.4583 28.6044C27.8905 28.9318 28.4638 28.534 28.3789 28.0163L28.3569 27.9238L27.7999 26.1368L29.2582 25.0323C29.6889 24.7061 29.5059 24.0185 29.0113 23.9387L28.9149 23.9311H27.1124L26.5554 22.1441C26.3915 21.6183 25.7123 21.5854 25.484 22.0455ZM26.25 12.5H14.75C13.7835 12.5 13 13.2835 13 14.25V15H28V14.25C28 13.2835 27.2165 12.5 26.25 12.5Z" fill="white"/>
</svg>
