<svg width="41" height="40" viewBox="0 0 41 40" fill="none" xmlns="http://www.w3.org/2000/svg">
<path fill-rule="evenodd" clip-rule="evenodd" d="M20.5 40C31.5457 40 40.5 31.0457 40.5 20C40.5 8.9543 31.5457 0 20.5 0C9.4543 0 0.5 8.9543 0.5 20C0.5 31.0457 9.4543 40 20.5 40Z" fill="#80DEEA"/>
<path d="M16.7197 16.2197C17.0126 15.9268 17.4874 15.9268 17.7803 16.2197L20.5 18.9393L23.2197 16.2197C23.5126 15.9268 23.9874 15.9268 24.2803 16.2197C24.5732 16.5126 24.5732 16.9874 24.2803 17.2803L21.5607 20L24.2803 22.7197C24.5732 23.0126 24.5732 23.4874 24.2803 23.7803C23.9874 24.0732 23.5126 24.0732 23.2197 23.7803L20.5 21.0607L17.7803 23.7803C17.4874 24.0732 17.0126 24.0732 16.7197 23.7803C16.4268 23.4874 16.4268 23.0126 16.7197 22.7197L19.4393 20L16.7197 17.2803C16.4268 16.9874 16.4268 16.5126 16.7197 16.2197ZM14.75 11C12.9551 11 11.5 12.4551 11.5 14.25V25.75C11.5 27.5449 12.9551 29 14.75 29H26.25C28.0449 29 29.5 27.5449 29.5 25.75V14.25C29.5 12.4551 28.0449 11 26.25 11H14.75ZM13 14.25C13 13.2835 13.7835 12.5 14.75 12.5H26.25C27.2165 12.5 28 13.2835 28 14.25V25.75C28 26.7165 27.2165 27.5 26.25 27.5H14.75C13.7835 27.5 13 26.7165 13 25.75V14.25Z" fill="white"/>
</svg>
