<svg width="41" height="40" viewBox="0 0 41 40" fill="none" xmlns="http://www.w3.org/2000/svg">
<path fill-rule="evenodd" clip-rule="evenodd" d="M20.5 40C31.5457 40 40.5 31.0457 40.5 20C40.5 8.9543 31.5457 0 20.5 0C9.4543 0 0.5 8.9543 0.5 20C0.5 31.0457 9.4543 40 20.5 40Z" fill="#C5E1A5"/>
<path d="M11.5 14.25C11.5 12.4551 12.9551 11 14.75 11H26.25C28.0449 11 29.5 12.4551 29.5 14.25V25.75C29.5 27.5449 28.0449 29 26.25 29H14.75C12.9551 29 11.5 27.5449 11.5 25.75V14.25ZM14.75 12.5C13.7835 12.5 13 13.2835 13 14.25V14.5H28V14.25C28 13.2835 27.2165 12.5 26.25 12.5H14.75ZM13 25.75C13 26.7165 13.7835 27.5 14.75 27.5H26.25C27.2165 27.5 28 26.7165 28 25.75V16H13V25.75ZM15.35 17.5H18.65C19.1194 17.5 19.5 17.8806 19.5 18.35V25.15C19.5 25.6194 19.1194 26 18.65 26H15.35C14.8806 26 14.5 25.6194 14.5 25.15V18.35C14.5 17.8806 14.8806 17.5 15.35 17.5ZM16 24.5H18V19H16V24.5ZM20.5 18.25C20.5 17.8358 20.8358 17.5 21.25 17.5H25.75C26.1642 17.5 26.5 17.8358 26.5 18.25C26.5 18.6642 26.1642 19 25.75 19H21.25C20.8358 19 20.5 18.6642 20.5 18.25ZM21.25 20.5C20.8358 20.5 20.5 20.8358 20.5 21.25C20.5 21.6642 20.8358 22 21.25 22H24.75C25.1642 22 25.5 21.6642 25.5 21.25C25.5 20.8358 25.1642 20.5 24.75 20.5H21.25Z" fill="white"/>
</svg>
