<svg width="41" height="40" viewBox="0 0 41 40" fill="none" xmlns="http://www.w3.org/2000/svg">
<path fill-rule="evenodd" clip-rule="evenodd" d="M20.5 40C31.5457 40 40.5 31.0457 40.5 20C40.5 8.9543 31.5457 0 20.5 0C9.4543 0 0.5 8.9543 0.5 20C0.5 31.0457 9.4543 40 20.5 40Z" fill="#EF9A9A"/>
<path d="M15.75 14.5C15.3358 14.5 15 14.8358 15 15.25V17.75C15 18.1642 15.3358 18.5 15.75 18.5H16.25V21.1893L14.4697 22.9697C14.1768 23.2626 14.1768 23.7374 14.4697 24.0303L16.4697 26.0303C16.7626 26.3232 17.2374 26.3232 17.5303 26.0303L19.3107 24.25H22V24.75C22 25.1642 22.3358 25.5 22.75 25.5H25.25C25.6642 25.5 26 25.1642 26 24.75V22.25C26 21.8358 25.6642 21.5 25.25 21.5H22.75C22.3358 21.5 22 21.8358 22 22.25V22.75H19.3107L17.75 21.1893V18.5H18.25C18.6642 18.5 19 18.1642 19 17.75V15.25C19 14.8358 18.6642 14.5 18.25 14.5H15.75ZM10.5 20C10.5 14.4772 14.9772 10 20.5 10C26.0228 10 30.5 14.4772 30.5 20C30.5 25.5228 26.0228 30 20.5 30C14.9772 30 10.5 25.5228 10.5 20ZM20.5 11.5C15.8056 11.5 12 15.3056 12 20C12 24.6944 15.8056 28.5 20.5 28.5C25.1944 28.5 29 24.6944 29 20C29 15.3056 25.1944 11.5 20.5 11.5Z" fill="white"/>
</svg>
