<svg width="41" height="40" viewBox="0 0 41 40" fill="none" xmlns="http://www.w3.org/2000/svg">
<path fill-rule="evenodd" clip-rule="evenodd" d="M20.5 40C31.5457 40 40.5 31.0457 40.5 20C40.5 8.9543 31.5457 0 20.5 0C9.4543 0 0.5 8.9543 0.5 20C0.5 31.0457 9.4543 40 20.5 40Z" fill="#FFCC80"/>
<path d="M20.4982 22C21.6027 22 22.4982 21.1046 22.4982 20C22.4982 18.8955 21.6027 18 20.4982 18C19.3936 18 18.4982 18.8955 18.4982 20C18.4982 21.1046 19.3936 22 20.4982 22ZM14.4982 20C14.4982 16.6863 17.1845 14 20.4982 14C23.8119 14 26.4982 16.6863 26.4982 20C26.4982 23.3137 23.8119 26 20.4982 26C17.1845 26 14.4982 23.3137 14.4982 20ZM20.4982 15.5C18.0129 15.5 15.9982 17.5147 15.9982 20C15.9982 22.4853 18.0129 24.5 20.4982 24.5C22.9834 24.5 24.9982 22.4853 24.9982 20C24.9982 17.5147 22.9834 15.5 20.4982 15.5ZM10.4961 20C10.4961 14.476 14.9742 9.99792 20.4982 9.99792C26.0222 9.99792 30.5003 14.476 30.5003 20C30.5003 25.524 26.0222 30.0021 20.4982 30.0021C14.9742 30.0021 10.4961 25.524 10.4961 20ZM20.4982 11.4979C15.8026 11.4979 11.9961 15.3044 11.9961 20C11.9961 24.6956 15.8026 28.5021 20.4982 28.5021C25.1938 28.5021 29.0003 24.6956 29.0003 20C29.0003 15.3044 25.1938 11.4979 20.4982 11.4979Z" fill="white"/>
</svg>
