<svg width="41" height="40" viewBox="0 0 41 40" fill="none" xmlns="http://www.w3.org/2000/svg">
<path fill-rule="evenodd" clip-rule="evenodd" d="M20.5 40C31.5457 40 40.5 31.0457 40.5 20C40.5 8.9543 31.5457 0 20.5 0C9.4543 0 0.5 8.9543 0.5 20C0.5 31.0457 9.4543 40 20.5 40Z" fill="#90CAF9"/>
<path d="M26.25 11C28.0449 11 29.5 12.4551 29.5 14.25V20.0218C29.0368 19.7253 28.5335 19.4858 28 19.3135V16.5H13V25.75C13 26.7165 13.7835 27.5 14.75 27.5H19.8135C19.9858 28.0335 20.2253 28.5368 20.5218 29H14.75C12.9551 29 11.5 27.5449 11.5 25.75V14.25C11.5 12.4551 12.9551 11 14.75 11H26.25ZM26.25 12.5H14.75C13.7835 12.5 13 13.2835 13 14.25V15H28V14.25C28 13.2835 27.2165 12.5 26.25 12.5ZM20.5 25.5C20.5 28.5376 22.9624 31 26 31C29.0376 31 31.5 28.5376 31.5 25.5C31.5 22.4624 29.0376 20 26 20C22.9624 20 20.5 22.4624 20.5 25.5ZM29 22C29.2761 22 29.5 22.2239 29.5 22.5V24.5C29.5 24.7761 29.2761 25 29 25H27C26.7239 25 26.5 24.7761 26.5 24.5C26.5 24.2239 26.7239 24 27 24H28.0003C27.5436 23.392 26.8174 23 26 23C25.1666 23 24.4283 23.4073 23.9733 24.036C23.8113 24.2597 23.4987 24.3098 23.275 24.1478C23.0514 23.9859 23.0013 23.6733 23.1632 23.4496C23.7982 22.5724 24.8323 22 26 22C26.9798 22 27.8651 22.4027 28.5 23.0506V22.5C28.5 22.2239 28.7239 22 29 22ZM23.5 27.9494V28.5C23.5 28.7761 23.2761 29 23 29C22.7239 29 22.5 28.7761 22.5 28.5V26.5C22.5 26.2239 22.7239 26 23 26H25C25.2761 26 25.5 26.2239 25.5 26.5C25.5 26.7761 25.2761 27 25 27H23.9998C24.4564 27.608 25.1827 28 26 28C26.7663 28 27.4518 27.6558 27.9112 27.1118C28.0893 26.9008 28.4048 26.8742 28.6158 27.0523C28.8268 27.2305 28.8534 27.546 28.6752 27.7569C28.034 28.5164 27.0732 29 26 29C25.0203 29 24.1349 28.5973 23.5 27.9494Z" fill="white"/>
</svg>
