<svg width="41" height="40" viewBox="0 0 41 40" fill="none" xmlns="http://www.w3.org/2000/svg">
<path fill-rule="evenodd" clip-rule="evenodd" d="M20.5 40C31.5457 40 40.5 31.0457 40.5 20C40.5 8.9543 31.5457 0 20.5 0C9.4543 0 0.5 8.9543 0.5 20C0.5 31.0457 9.4543 40 20.5 40Z" fill="#EF9A9A"/>
<path d="M12.5941 13.3457C12.9254 11.9698 14.1565 11 15.572 11H25.4298C26.8453 11 28.0764 11.9698 28.4077 13.3457L30.3997 21.6191C30.9374 23.8521 29.2449 26 26.9478 26H19.0012V24.5H26.9478C28.2743 24.5 29.2516 23.2596 28.9412 21.9702L26.9491 13.6968C26.7801 12.9948 26.152 12.5 25.4298 12.5H15.572C14.8498 12.5 14.2217 12.9948 14.0527 13.6968L13.3777 16.5H12.2501C12.1062 16.5 11.9648 16.5111 11.8269 16.5324L12.5941 13.3457ZM18.9899 28.5H25.7517C26.166 28.5 26.5018 28.1642 26.5018 27.75C26.5018 27.3358 26.166 27 25.7517 27H19.0012V28.25C19.0012 28.3343 18.9974 28.4177 18.9899 28.5ZM14.2506 22.5C14.941 22.5 15.5008 21.9404 15.5008 21.25C15.5008 20.5596 14.941 20 14.2506 20C13.5601 20 13.0004 20.5596 13.0004 21.25C13.0004 21.9404 13.5601 22.5 14.2506 22.5ZM10.5 19.25C10.5 18.2835 11.2836 17.5 12.2503 17.5H16.2509C17.2175 17.5 18.0011 18.2835 18.0011 19.25V28.25C18.0011 29.2165 17.2175 30 16.2509 30H12.2503C11.2836 30 10.5 29.2165 10.5 28.25V19.25ZM12.2503 19C12.1122 19 12.0002 19.1119 12.0002 19.25V28.25C12.0002 28.3881 12.1122 28.5 12.2503 28.5H16.2509C16.389 28.5 16.5009 28.3881 16.5009 28.25V19.25C16.5009 19.1119 16.389 19 16.2509 19H12.2503Z" fill="white"/>
</svg>
