<svg width="41" height="40" viewBox="0 0 41 40" fill="none" xmlns="http://www.w3.org/2000/svg">
<path fill-rule="evenodd" clip-rule="evenodd" d="M20.5 40C31.5457 40 40.5 31.0457 40.5 20C40.5 8.9543 31.5457 0 20.5 0C9.4543 0 0.5 8.9543 0.5 20C0.5 31.0457 9.4543 40 20.5 40Z" fill="#F48FB1"/>
<path d="M29.5 14.25C29.5 12.4551 28.0449 11 26.25 11H14.75C12.9551 11 11.5 12.4551 11.5 14.25V25.75C11.5 27.5449 12.9551 29 14.75 29H18.75C18.75 29 18.75 28.5184 18.75 28.25V27.5H14.75C13.7835 27.5 13 26.7165 13 25.75V16.5H28V25.75C28 26.7165 27.2165 27.5 26.25 27.5H22.25V28.25C22.25 28.5184 22.25 29 22.25 29H26.25C28.0449 29 29.5 27.5449 29.5 25.75V14.25ZM14.75 12.5H26.25C27.2165 12.5 28 13.2835 28 14.25V15H13V14.25C13 13.2835 13.7835 12.5 14.75 12.5ZM21.75 19.75C21.75 20.4404 21.1904 21 20.5 21C19.8096 21 19.25 20.4404 19.25 19.75C19.25 19.0596 19.8096 18.5 20.5 18.5C21.1904 18.5 21.75 19.0596 21.75 19.75ZM22.2517 26.3106C22.5613 26.5857 23.0353 26.5579 23.3105 26.2483C23.5857 25.9387 23.5578 25.4646 23.2482 25.1894L20.9982 23.1894C20.7141 22.9369 20.2858 22.9369 20.0017 23.1894L17.7517 25.1894C17.4421 25.4646 17.4142 25.9387 17.6894 26.2483C17.9646 26.5579 18.4386 26.5857 18.7482 26.3106L19.75 25.4201V29.25C19.75 29.6642 20.0857 30 20.5 30C20.9142 30 21.25 29.6642 21.25 29.25V25.4201L22.2517 26.3106Z" fill="white"/>
</svg>
