<svg width="41" height="40" viewBox="0 0 41 40" fill="none" xmlns="http://www.w3.org/2000/svg">
<path fill-rule="evenodd" clip-rule="evenodd" d="M20.5 40C31.5457 40 40.5 31.0457 40.5 20C40.5 8.9543 31.5457 0 20.5 0C9.4543 0 0.5 8.9543 0.5 20C0.5 31.0457 9.4543 40 20.5 40Z" fill="#90CAF9"/>
<path d="M15.224 30C15.2327 30.0003 15.2413 30.0004 15.25 30.0004H17.7493C17.5887 29.6155 17.5 29.1931 17.5 28.75V24.5023H12.75L12.6482 24.4954C12.2822 24.4458 12 24.132 12 23.7523V13.25L12.0068 13.1482C12.0565 12.7822 12.3703 12.5 12.75 12.5H28.2488L28.3506 12.5068C28.7167 12.5565 28.9988 12.8703 28.9988 13.25V20H29.25C29.6925 20 30.1143 20.0884 30.4988 20.2486V13.25L30.4936 13.096C30.4145 11.9252 29.4397 11 28.2488 11H12.75L12.596 11.0052C11.4252 11.0844 10.5 12.0591 10.5 13.25V23.7523L10.5052 23.9063C10.5821 25.0435 11.5039 25.9489 12.6479 26H12.5V26.0022L12.7329 26.0022L12.75 26.0023L15.999 26.0021V28.5L14.25 28.5004L14.1482 28.5073C13.7822 28.5569 13.5 28.8707 13.5 29.2504C13.5 29.656 13.8219 29.9863 14.224 30H15.224ZM18.5 23.25C18.5 22.0074 19.5074 21 20.75 21H29.25C30.4926 21 31.5 22.0074 31.5 23.25V28.75C31.5 29.9926 30.4926 31 29.25 31H20.75C19.5074 31 18.5 29.9926 18.5 28.75V23.25ZM22.5 23.5C22.5 23.0858 22.1642 22.75 21.75 22.75C21.3358 22.75 21 23.0858 21 23.5C21 23.9142 21.3358 24.25 21.75 24.25C22.1642 24.25 22.5 23.9142 22.5 23.5ZM26 23.5C26 23.0858 25.6642 22.75 25.25 22.75C24.8358 22.75 24.5 23.0858 24.5 23.5C24.5 23.9142 24.8358 24.25 25.25 24.25C25.6642 24.25 26 23.9142 26 23.5ZM28.5 24.25C28.9142 24.25 29.25 23.9142 29.25 23.5C29.25 23.0858 28.9142 22.75 28.5 22.75C28.0858 22.75 27.75 23.0858 27.75 23.5C27.75 23.9142 28.0858 24.25 28.5 24.25ZM27.75 26C27.75 25.5858 27.4142 25.25 27 25.25C26.5858 25.25 26.25 25.5858 26.25 26C26.25 26.4142 26.5858 26.75 27 26.75C27.4142 26.75 27.75 26.4142 27.75 26ZM23.5 26.75C23.9142 26.75 24.25 26.4142 24.25 26C24.25 25.5858 23.9142 25.25 23.5 25.25C23.0858 25.25 22.75 25.5858 22.75 26C22.75 26.4142 23.0858 26.75 23.5 26.75ZM21.5 28.75C21.5 29.1642 21.8358 29.5 22.25 29.5H27.75C28.1642 29.5 28.5 29.1642 28.5 28.75C28.5 28.3358 28.1642 28 27.75 28H22.25C21.8358 28 21.5 28.3358 21.5 28.75Z" fill="white"/>
</svg>
