<svg width="41" height="40" viewBox="0 0 41 40" fill="none" xmlns="http://www.w3.org/2000/svg">
<path fill-rule="evenodd" clip-rule="evenodd" d="M20.5 40C31.5457 40 40.5 31.0457 40.5 20C40.5 8.9543 31.5457 0 20.5 0C9.4543 0 0.5 8.9543 0.5 20C0.5 31.0457 9.4543 40 20.5 40Z" fill="#EF9A9A"/>
<path d="M14 10C12.6193 10 11.5 11.1193 11.5 12.5V27.5C11.5 28.8807 12.6193 30 14 30H21.3096C20.8832 29.5557 20.5194 29.051 20.2322 28.5H14C13.4477 28.5 13 28.0523 13 27.5H19.8135C19.659 27.0218 19.5585 26.5195 19.5189 26H13V12.5C13 11.9477 13.4477 11.5 14 11.5H25.5C26.0523 11.5 26.5 11.9477 26.5 12.5V19.0189C27.0195 19.0585 27.5218 19.159 28 19.3135V12.5C28 11.1193 26.8807 10 25.5 10H14ZM31.5 25.5C31.5 22.4624 29.0376 20 26 20C22.9624 20 20.5 22.4624 20.5 25.5C20.5 28.5376 22.9624 31 26 31C29.0376 31 31.5 28.5376 31.5 25.5ZM25.4138 23.097L28.2203 24.9373C28.3073 24.9933 28.3757 25.0677 28.4254 25.1604C28.4751 25.251 28.5 25.3502 28.5 25.458C28.5 25.5614 28.4762 25.6606 28.4285 25.7555C28.3809 25.8504 28.3146 25.9258 28.2296 25.9819L25.4231 27.8965C25.3713 27.931 25.3184 27.9569 25.2646 27.9741C25.2128 27.9914 25.1568 28 25.0967 28C25.018 28 24.9424 27.9838 24.8699 27.9515C24.7973 27.917 24.7331 27.8717 24.6772 27.8157C24.6233 27.7574 24.5798 27.6906 24.5466 27.6151C24.5155 27.5397 24.5 27.461 24.5 27.379V23.621C24.5 23.5369 24.5155 23.4571 24.5466 23.3816C24.5798 23.3062 24.6233 23.2404 24.6772 23.1843C24.731 23.1283 24.7942 23.0841 24.8667 23.0517C24.9393 23.0172 25.0159 23 25.0967 23C25.2128 23 25.3184 23.0323 25.4138 23.097ZM14.5 14C14.5 13.4477 14.9477 13 15.5 13H23.5C24.0523 13 24.5 13.4477 24.5 14V16C24.5 16.5523 24.0523 17 23.5 17H15.5C14.9477 17 14.5 16.5523 14.5 16V14ZM16 15.5H23V14.5H16V15.5Z" fill="white"/>
</svg>
