<svg width="41" height="40" viewBox="0 0 41 40" fill="none" xmlns="http://www.w3.org/2000/svg">
<path fill-rule="evenodd" clip-rule="evenodd" d="M20.5 40C31.5457 40 40.5 31.0457 40.5 20C40.5 8.9543 31.5457 0 20.5 0C9.4543 0 0.5 8.9543 0.5 20C0.5 31.0457 9.4543 40 20.5 40Z" fill="#A5D6A7"/>
<path d="M26.2501 11C27.9831 11 29.3993 12.3565 29.495 14.0656L29.5001 14.25V20.0219C29.0369 19.7253 28.5336 19.4859 28.0001 19.3135V14.25C28.0001 13.3318 27.293 12.5788 26.3936 12.5058L26.2501 12.5H14.7501C14.1499 12.5 13.6203 12.8021 13.3051 13.2626C12.9911 13.095 12.6317 13 12.2501 13C12.0689 13 11.8927 13.0214 11.7238 13.0619C12.1771 11.909 13.2701 11.0776 14.5657 11.0051L14.7501 11H26.2501ZM19.8135 27.5C19.9858 28.0335 20.2253 28.5368 20.5218 29H14.7501C13.0171 29 11.6009 27.6435 11.5052 25.9344L11.5001 25.75L11.4998 17.3721C11.7345 17.4551 11.987 17.5002 12.2501 17.5002C12.5132 17.5002 12.7657 17.4551 13.0003 17.3721L13.0001 25.75C13.0001 26.6682 13.7072 27.4212 14.6066 27.4942L14.7501 27.5H19.8135ZM20.2306 22.5031C20.5174 21.9521 20.8808 21.4474 21.3066 21.0031H17.2479L17.1461 21.0099C16.78 21.0596 16.4979 21.3734 16.4979 21.7531C16.4979 22.1673 16.8336 22.5031 17.2479 22.5031H20.2306ZM23.7523 17.4962C24.1666 17.4962 24.5023 17.832 24.5023 18.2462C24.5023 18.6259 24.2202 18.9397 23.8541 18.9894L23.7523 18.9962H17.2479C16.8336 18.9962 16.4979 18.6604 16.4979 18.2462C16.4979 17.8665 16.78 17.5527 17.1461 17.5031L17.2479 17.4962H23.7523ZM12.2501 14C12.9405 14 13.5002 14.5597 13.5002 15.2501C13.5002 15.9405 12.9405 16.5002 12.2501 16.5002C11.5597 16.5002 11 15.9405 11 15.2501C11 14.5597 11.5597 14 12.2501 14ZM31.5 25.5C31.5 22.4624 29.0376 20 26 20C22.9624 20 20.5 22.4624 20.5 25.5C20.5 28.5376 22.9624 31 26 31C29.0376 31 31.5 28.5376 31.5 25.5ZM26.5006 26L26.5011 28.5035C26.5011 28.7797 26.2773 29.0035 26.0011 29.0035C25.725 29.0035 25.5011 28.7797 25.5011 28.5035L25.5006 26H22.9956C22.7197 26 22.4961 25.7762 22.4961 25.5C22.4961 25.2239 22.7197 25 22.9956 25H25.5005L25.5 22.4993C25.5 22.2231 25.7239 21.9993 26 21.9993C26.2761 21.9993 26.5 22.2231 26.5 22.4993L26.5005 25H28.9966C29.2725 25 29.4961 25.2239 29.4961 25.5C29.4961 25.7762 29.2725 26 28.9966 26H26.5006Z" fill="white"/>
</svg>
