<svg width="41" height="40" viewBox="0 0 41 40" fill="none" xmlns="http://www.w3.org/2000/svg">
<path fill-rule="evenodd" clip-rule="evenodd" d="M20.5 40C31.5457 40 40.5 31.0457 40.5 20C40.5 8.9543 31.5457 0 20.5 0C9.4543 0 0.5 8.9543 0.5 20C0.5 31.0457 9.4543 40 20.5 40Z" fill="#F48FB1"/>
<path d="M15.25 30C14.8358 30 14.5 29.6642 14.5 29.25C14.5 28.8703 14.7822 28.5565 15.1482 28.5068L15.25 28.5L16.999 28.4995V26.0015L12.75 26.0018C11.5591 26.0018 10.5844 25.0766 10.5052 23.9058L10.5 23.7518V21H12V23.7518C12 24.1315 12.2822 24.4453 12.6482 24.4949L12.75 24.5018H28.2488C28.6285 24.5018 28.9423 24.2196 28.992 23.8536L28.9988 23.7518V21H30.4988V23.7518C30.4988 24.9427 29.5737 25.9174 28.4029 25.9966L28.2488 26.0018L23.999 26.0015V28.4995L25.75 28.5C26.1642 28.5 26.5 28.8357 26.5 29.25C26.5 29.6296 26.2178 29.9434 25.8518 29.9931L25.75 30H15.25ZM22.498 26.0015H18.498L18.499 28.5H22.499L22.498 26.0015ZM12 17.5H10.5V13.2495C10.5 12.0586 11.4252 11.0839 12.596 11.0047L12.75 10.9995H28.2488C29.4397 10.9995 30.4145 11.9247 30.4936 13.0955L30.4988 13.2495V17.5H28.9988V13.2495C28.9988 12.8698 28.7167 12.556 28.3506 12.5064L28.2488 12.4995H12.75C12.3703 12.4995 12.0565 12.7817 12.0068 13.1477L12 13.2495V17.5ZM18.1964 14.4714C18.0846 14.1919 17.8165 14.0063 17.5155 14.0001C17.2146 13.9938 16.9391 14.1681 16.8158 14.4427L14.9944 18.5H11.25C10.8358 18.5 10.5 18.8358 10.5 19.25C10.5 19.6642 10.8358 20 11.25 20H15.4798C15.7752 20 16.043 19.8266 16.164 19.5572L17.4602 16.6699L19.8036 22.5285C19.9098 22.7939 20.1576 22.9759 20.4426 22.9978C20.7276 23.0197 21.0003 22.8776 21.1457 22.6315L23.8033 18.134L24.8856 19.6801C25.0259 19.8806 25.2553 20 25.5 20H29.75C30.1642 20 30.5 19.6642 30.5 19.25C30.5 18.8358 30.1642 18.5 29.75 18.5H25.8905L24.3644 16.3198C24.2182 16.1109 23.9759 15.9907 23.7211 16.0005C23.4664 16.0103 23.234 16.1489 23.1043 16.3684L20.63 20.5556L18.1964 14.4714Z" fill="white"/>
</svg>
