<svg width="41" height="40" viewBox="0 0 41 40" fill="none" xmlns="http://www.w3.org/2000/svg">
<path fill-rule="evenodd" clip-rule="evenodd" d="M20.5 40C31.5457 40 40.5 31.0457 40.5 20C40.5 8.9543 31.5457 0 20.5 0C9.4543 0 0.5 8.9543 0.5 20C0.5 31.0457 9.4543 40 20.5 40Z" fill="#FFCC80"/>
<path d="M26.4977 16.0023C27.0512 16.0023 27.5 15.5535 27.5 15C27.5 14.4464 27.0512 13.9977 26.4977 13.9977C25.9441 13.9977 25.4954 14.4464 25.4954 15C25.4954 15.5535 25.9441 16.0023 26.4977 16.0023ZM12.75 11C11.5074 11 10.5 12.0074 10.5 13.25V18.25C10.5 18.6642 10.8358 19 11.25 19H19.75V21.001H18.7506C18.3364 21.001 18.0006 21.3368 18.0006 21.751V24.0045H16.251C15.8368 24.0045 15.501 24.3403 15.501 24.7545V25.5H11.25C10.8358 25.5 10.5 25.8358 10.5 26.25C10.5 26.6642 10.8358 27 11.25 27H15.501V28.2534C15.501 28.6676 15.8368 29.0034 16.251 29.0034H24.7491C25.1633 29.0034 25.4991 28.6676 25.4991 28.2534V27H29.75C30.1642 27 30.5 26.6642 30.5 26.25C30.5 25.8358 30.1642 25.5 29.75 25.5H25.4991V24.7545C25.4991 24.3403 25.1633 24.0045 24.7491 24.0045H22.9994V21.751C22.9994 21.3368 22.6637 21.001 22.2494 21.001H21.25V19H29.75C30.1642 19 30.5 18.6642 30.5 18.25V13.25C30.5 12.0074 29.4926 11 28.25 11H12.75ZM12 13.25C12 12.8358 12.3358 12.5 12.75 12.5H28.25C28.6642 12.5 29 12.8358 29 13.25V17.5H12V13.25ZM19.5006 22.501H21.4994V24.7545C21.4994 25.1688 21.8352 25.5045 22.2494 25.5045H23.9991V27.5034H17.001V25.5045H18.7506C19.1648 25.5045 19.5006 25.1688 19.5006 24.7545V22.501Z" fill="white"/>
</svg>
