<svg width="41" height="40" viewBox="0 0 41 40" fill="none" xmlns="http://www.w3.org/2000/svg">
<path fill-rule="evenodd" clip-rule="evenodd" d="M20.5 40C31.5457 40 40.5 31.0457 40.5 20C40.5 8.9543 31.5457 0 20.5 0C9.4543 0 0.5 8.9543 0.5 20C0.5 31.0457 9.4543 40 20.5 40Z" fill="#EF9A9A"/>
<path d="M20.4982 9.99792C21.7019 9.99792 22.8559 10.2106 23.9248 10.6003L22.731 11.7941C22.0195 11.601 21.2709 11.4979 20.4982 11.4979C15.8026 11.4979 11.9961 15.3044 11.9961 20C11.9961 24.6956 15.8026 28.5021 20.4982 28.5021C25.1938 28.5021 29.0003 24.6956 29.0003 20C29.0003 19.2284 28.8975 18.4808 28.7049 17.7701L29.8989 16.5761C30.288 17.6442 30.5003 18.7973 30.5003 20C30.5003 25.524 26.0222 30.0021 20.4982 30.0021C14.9742 30.0021 10.4961 25.524 10.4961 20C10.4961 14.476 14.9742 9.99792 20.4982 9.99792ZM20.4982 14C21.0168 14 21.52 14.0658 22 14.1895L22.0001 15.7568C21.5304 15.5905 21.0248 15.5 20.4982 15.5C18.0129 15.5 15.9982 17.5147 15.9982 20C15.9982 22.4853 18.0129 24.5 20.4982 24.5C22.9834 24.5 24.9982 22.4853 24.9982 20C24.9982 19.4741 24.9079 18.9692 24.7421 18.5L26.3091 18.5C26.4325 18.9795 26.4982 19.4821 26.4982 20C26.4982 23.3137 23.8119 26 20.4982 26C17.1845 26 14.4982 23.3137 14.4982 20C14.4982 16.6863 17.1845 14 20.4982 14ZM22.4982 20C22.4982 21.1046 21.6027 22 20.4982 22C19.3936 22 18.4982 21.1046 18.4982 20C18.4982 18.8955 19.3936 18 20.4982 18C20.7758 18 21.0402 18.0566 21.2805 18.1588L23.0001 16.4393L23 13.2501C23 13.0512 23.079 12.8604 23.2197 12.7197L25.7196 10.2197C25.9341 10.0052 26.2567 9.94098 26.5369 10.0571C26.8172 10.1731 26.9999 10.4466 26.9999 10.75V13.5L29.7501 13.5C30.0535 13.5001 30.327 13.6828 30.443 13.963C30.5591 14.2433 30.495 14.5659 30.2805 14.7804L27.7804 17.2804C27.6397 17.421 27.449 17.5 27.2501 17.5L24.0607 17.5L22.3405 19.2203C22.442 19.4599 22.4982 19.7234 22.4982 20ZM26.9394 16L27.9395 15L26.2499 15C25.8357 15 25.4999 14.6642 25.4999 14.25V12.5607L24.5 13.5607L24.5001 15.9411C24.5104 15.9503 24.5205 15.9598 24.5303 15.9697C24.5402 15.9796 24.5498 15.9897 24.559 16L26.9394 16Z" fill="white"/>
</svg>
