<svg width="41" height="40" viewBox="0 0 41 40" fill="none" xmlns="http://www.w3.org/2000/svg">
<path fill-rule="evenodd" clip-rule="evenodd" d="M20.5 40C31.5457 40 40.5 31.0457 40.5 20C40.5 8.9543 31.5457 0 20.5 0C9.4543 0 0.5 8.9543 0.5 20C0.5 31.0457 9.4543 40 20.5 40Z" fill="#EF9A9A"/>
<path d="M20.5 15C20.9142 15 21.25 15.3358 21.25 15.75V19.25H24.75C25.1642 19.25 25.5 19.5858 25.5 20C25.5 20.4142 25.1642 20.75 24.75 20.75H21.25V24.25C21.25 24.6642 20.9142 25 20.5 25C20.0858 25 19.75 24.6642 19.75 24.25V20.75H16.25C15.8358 20.75 15.5 20.4142 15.5 20C15.5 19.5858 15.8358 19.25 16.25 19.25H19.75V15.75C19.75 15.3358 20.0858 15 20.5 15ZM11.5 14.25C11.5 12.4551 12.9551 11 14.75 11H26.25C28.0449 11 29.5 12.4551 29.5 14.25V25.75C29.5 27.5449 28.0449 29 26.25 29H14.75C12.9551 29 11.5 27.5449 11.5 25.75V14.25ZM14.75 12.5C13.7835 12.5 13 13.2835 13 14.25V25.75C13 26.7165 13.7835 27.5 14.75 27.5H26.25C27.2165 27.5 28 26.7165 28 25.75V14.25C28 13.2835 27.2165 12.5 26.25 12.5H14.75Z" fill="white"/>
</svg>
