<svg width="41" height="40" viewBox="0 0 41 40" fill="none" xmlns="http://www.w3.org/2000/svg">
<path fill-rule="evenodd" clip-rule="evenodd" d="M20.5 40C31.5457 40 40.5 31.0457 40.5 20C40.5 8.9543 31.5457 0 20.5 0C9.4543 0 0.5 8.9543 0.5 20C0.5 31.0457 9.4543 40 20.5 40Z" fill="#B39DDB"/>
<path d="M26.25 11C28.0449 11 29.5 12.4551 29.5 14.25V20.0218C29.0368 19.7253 28.5335 19.4858 28 19.3135V16.5H13V25.75C13 26.7165 13.7835 27.5 14.75 27.5H19.8135C19.9858 28.0335 20.2253 28.5368 20.5218 29H14.75C12.9551 29 11.5 27.5449 11.5 25.75V14.25C11.5 12.4551 12.9551 11 14.75 11H26.25ZM26.25 12.5H14.75C13.7835 12.5 13 13.2835 13 14.25V15H28V14.25C28 13.2835 27.2165 12.5 26.25 12.5ZM31.5 25.5C31.5 28.5376 29.0376 31 26 31C22.9624 31 20.5 28.5376 20.5 25.5C20.5 22.4624 22.9624 20 26 20C29.0376 20 31.5 22.4624 31.5 25.5ZM26.5 22.5C26.5 22.2239 26.2761 22 26 22C25.7239 22 25.5 22.2239 25.5 22.5V27.2929L23.8536 25.6464C23.6583 25.4512 23.3417 25.4512 23.1464 25.6464C22.9512 25.8417 22.9512 26.1583 23.1464 26.3536L25.6464 28.8536C25.8417 29.0488 26.1583 29.0488 26.3536 28.8536L28.8536 26.3536C29.0488 26.1583 29.0488 25.8417 28.8536 25.6464C28.6583 25.4512 28.3417 25.4512 28.1464 25.6464L26.5 27.2929V22.5Z" fill="white"/>
</svg>
