<svg width="41" height="40" viewBox="0 0 41 40" fill="none" xmlns="http://www.w3.org/2000/svg">
<path fill-rule="evenodd" clip-rule="evenodd" d="M20.5 40C31.5457 40 40.5 31.0457 40.5 20C40.5 8.9543 31.5457 0 20.5 0C9.4543 0 0.5 8.9543 0.5 20C0.5 31.0457 9.4543 40 20.5 40Z" fill="#90CAF9"/>
<path d="M15.5 20.25C15.5 19.8358 15.8358 19.5 16.25 19.5C16.6642 19.5 17 19.8358 17 20.25C17 20.6642 16.6642 21 16.25 21C15.8358 21 15.5 20.6642 15.5 20.25ZM16.25 22.5C15.8358 22.5 15.5 22.8358 15.5 23.25C15.5 23.6642 15.8358 24 16.25 24C16.6642 24 17 23.6642 17 23.25C17 22.8358 16.6642 22.5 16.25 22.5ZM15.5 26.25C15.5 25.8358 15.8358 25.5 16.25 25.5C16.6642 25.5 17 25.8358 17 26.25C17 26.6642 16.6642 27 16.25 27C15.8358 27 15.5 26.6642 15.5 26.25ZM19.25 19.5C18.8358 19.5 18.5 19.8358 18.5 20.25C18.5 20.6642 18.8358 21 19.25 21H24.75C25.1642 21 25.5 20.6642 25.5 20.25C25.5 19.8358 25.1642 19.5 24.75 19.5H19.25ZM18.5 23.25C18.5 22.8358 18.8358 22.5 19.25 22.5H24.75C25.1642 22.5 25.5 22.8358 25.5 23.25C25.5 23.6642 25.1642 24 24.75 24H19.25C18.8358 24 18.5 23.6642 18.5 23.25ZM19.25 25.5C18.8358 25.5 18.5 25.8358 18.5 26.25C18.5 26.6642 18.8358 27 19.25 27H24.75C25.1642 27 25.5 26.6642 25.5 26.25C25.5 25.8358 25.1642 25.5 24.75 25.5H19.25ZM27.914 16.414L22.085 10.586C22.07 10.571 22.0531 10.5581 22.0363 10.5452C22.0238 10.5357 22.0115 10.5262 22 10.516C21.929 10.452 21.859 10.389 21.781 10.336C21.7557 10.3189 21.7281 10.3055 21.7005 10.2921C21.6845 10.2843 21.6685 10.2765 21.653 10.268C21.6363 10.2586 21.6197 10.249 21.603 10.2393C21.5488 10.208 21.4944 10.1765 21.437 10.152C21.24 10.07 21.028 10.029 20.813 10.014C20.7933 10.0127 20.7738 10.0101 20.7542 10.0074C20.7271 10.0037 20.6999 10 20.672 10H14.5C13.396 10 12.5 10.896 12.5 12V28C12.5 29.104 13.396 30 14.5 30H26.5C27.604 30 28.5 29.104 28.5 28V17.828C28.5 17.298 28.289 16.789 27.914 16.414ZM27 28C27 28.275 26.776 28.5 26.5 28.5H14.5C14.224 28.5 14 28.275 14 28V12C14 11.725 14.224 11.5 14.5 11.5H20.5V16C20.5 17.104 21.396 18 22.5 18H27V28ZM22 12.621L25.878 16.5H22.5C22.224 16.5 22 16.275 22 16V12.621Z" fill="white"/>
</svg>
