<svg width="41" height="40" viewBox="0 0 41 40" fill="none" xmlns="http://www.w3.org/2000/svg">
<path fill-rule="evenodd" clip-rule="evenodd" d="M20.5 40C31.5457 40 40.5 31.0457 40.5 20C40.5 8.9543 31.5457 0 20.5 0C9.4543 0 0.5 8.9543 0.5 20C0.5 31.0457 9.4543 40 20.5 40Z" fill="#FFCC80"/>
<path d="M21.5 19.75H28.2146C28.5549 19.4029 28.9956 19.1546 29.4896 19.0521C29.2558 14.0134 25.0966 10 20 10C14.7533 10 10.5 14.2533 10.5 19.5C10.5 24.579 14.4857 28.7271 19.5 28.9871V27.5L19.5 27.4846C15.3147 27.2266 12 23.7504 12 19.5C12 15.1654 15.4474 11.6359 19.75 11.5038V18C19.75 18.9665 20.5335 19.75 21.5 19.75ZM21.5 18.25C21.3619 18.25 21.25 18.1381 21.25 18V11.5971C24.6673 12.1333 27.3667 14.8327 27.9029 18.25H21.5ZM30 20C29.1716 20 28.5 20.6716 28.5 21.5V29.5C28.5 30.3284 29.1716 31 30 31C30.8284 31 31.5 30.3284 31.5 29.5V21.5C31.5 20.6716 30.8284 20 30 20ZM22 26C21.1716 26 20.5 26.6716 20.5 27.5V29.5C20.5 30.3284 21.1716 31 22 31C22.8284 31 23.5 30.3284 23.5 29.5V27.5C23.5 26.6716 22.8284 26 22 26ZM24.5 24.5C24.5 23.6716 25.1716 23 26 23C26.8284 23 27.5 23.6716 27.5 24.5V29.5C27.5 30.3284 26.8284 31 26 31C25.1716 31 24.5 30.3284 24.5 29.5V24.5Z" fill="white"/>
</svg>
