<svg width="41" height="40" viewBox="0 0 41 40" fill="none" xmlns="http://www.w3.org/2000/svg">
<path fill-rule="evenodd" clip-rule="evenodd" d="M20.5 40C31.5457 40 40.5 31.0457 40.5 20C40.5 8.9543 31.5457 0 20.5 0C9.4543 0 0.5 8.9543 0.5 20C0.5 31.0457 9.4543 40 20.5 40Z" fill="#B39DDB"/>
<path d="M27 28.0023C27 28.2774 26.776 28.5024 26.5 28.5024H17.5V30.0026H26.5C27.604 30.0026 28.5 29.1065 28.5 28.0023V17.829C28.5 17.2989 28.289 16.7899 27.914 16.4148L22.085 10.5861C22.07 10.5711 22.0531 10.5582 22.0363 10.5453C22.0238 10.5357 22.0115 10.5263 22 10.5161C21.929 10.4521 21.859 10.3891 21.781 10.336C21.7557 10.319 21.7281 10.3055 21.7005 10.2921C21.6845 10.2843 21.6685 10.2765 21.653 10.268C21.6363 10.2586 21.6197 10.249 21.603 10.2394C21.5488 10.208 21.4944 10.1765 21.437 10.152C21.24 10.07 21.028 10.029 20.813 10.014C20.7933 10.0127 20.7738 10.0101 20.7542 10.0074C20.7271 10.0037 20.6999 10 20.672 10H14.5C13.396 10 12.5 10.8961 12.5 12.0003V19.2573C12.9692 19.0914 13.474 19.0012 14 19.0012V12.0003C14 11.7252 14.224 11.5002 14.5 11.5002H20.5V16.0008C20.5 17.1049 21.396 18.001 22.5 18.001H27V28.0023ZM22 12.6213L25.878 16.5008H22.5C22.224 16.5008 22 16.2758 22 16.0008V12.6213ZM17.5 23.5017C17.5 25.435 15.933 27.0022 14 27.0022C12.067 27.0022 10.5 25.435 10.5 23.5017C10.5 21.5685 12.067 20.0013 14 20.0013C15.933 20.0013 17.5 21.5685 17.5 23.5017ZM11.5 27.2444V30.2885C11.5 30.9211 12.2648 31.2379 12.712 30.7906L14 29.5025L15.288 30.7906C15.7352 31.2379 16.5 30.9211 16.5 30.2885V27.2444C15.785 27.7231 14.9251 28.0023 14 28.0023C13.0749 28.0023 12.215 27.7231 11.5 27.2444Z" fill="white"/>
</svg>
