<svg width="41" height="40" viewBox="0 0 41 40" fill="none" xmlns="http://www.w3.org/2000/svg">
<path fill-rule="evenodd" clip-rule="evenodd" d="M20.5 40C31.5457 40 40.5 31.0457 40.5 20C40.5 8.9543 31.5457 0 20.5 0C9.4543 0 0.5 8.9543 0.5 20C0.5 31.0457 9.4543 40 20.5 40Z" fill="#EF9A9A"/>
<path d="M13.5 12.25C13.5 11.8358 13.1642 11.5 12.75 11.5C12.3358 11.5 12 11.8358 12 12.25V26.75C12 27.7165 12.7835 28.5 13.75 28.5H28.25C28.6642 28.5 29 28.1642 29 27.75C29 27.3358 28.6642 27 28.25 27H13.75C13.6119 27 13.5 26.8881 13.5 26.75V12.25ZM22.5 14.75C22.5 14.3358 22.8358 14 23.25 14H28.2515C28.6657 14 29.0015 14.3358 29.0015 14.75L29.0015 19.755C29.0015 20.1692 28.6658 20.505 28.2515 20.505C27.8373 20.505 27.5015 20.1692 27.5015 19.755L27.5015 16.5592L22.2803 21.7803C21.9874 22.0732 21.5126 22.0732 21.2197 21.7803L19.25 19.8107L16.0303 23.0303C15.7374 23.3232 15.2626 23.3232 14.9697 23.0303C14.6768 22.7374 14.6768 22.2626 14.9697 21.9697L18.7197 18.2197C19.0126 17.9268 19.4874 17.9268 19.7803 18.2197L21.75 20.1893L26.4393 15.5H23.25C22.8358 15.5 22.5 15.1642 22.5 14.75Z" fill="white"/>
</svg>
