<svg width="41" height="40" viewBox="0 0 41 40" fill="none" xmlns="http://www.w3.org/2000/svg">
<path fill-rule="evenodd" clip-rule="evenodd" d="M20.5 40C31.5457 40 40.5 31.0457 40.5 20C40.5 8.9543 31.5457 0 20.5 0C9.4543 0 0.5 8.9543 0.5 20C0.5 31.0457 9.4543 40 20.5 40Z" fill="#CE93D8"/>
<path d="M26.5 28.5C26.776 28.5 27 28.275 27 28V18H22.5C21.396 18 20.5 17.104 20.5 16V11.5H14.5C14.224 11.5 14 11.725 14 12V17.25C14 17.6642 13.6642 18 13.25 18C12.8358 18 12.5 17.6642 12.5 17.25V12C12.5 10.896 13.396 10 14.5 10H20.672C20.6999 10 20.7271 10.0037 20.7542 10.0074C20.7738 10.0101 20.7933 10.0127 20.813 10.014C21.028 10.029 21.24 10.07 21.437 10.152C21.4944 10.1765 21.5488 10.208 21.603 10.2393C21.6197 10.249 21.6363 10.2586 21.653 10.268C21.6685 10.2765 21.6845 10.2843 21.7005 10.2921C21.7281 10.3055 21.7557 10.3189 21.781 10.336C21.859 10.389 21.929 10.452 22 10.516C22.0115 10.5262 22.0238 10.5357 22.0363 10.5452C22.0531 10.5581 22.07 10.571 22.085 10.586L27.914 16.414C28.289 16.789 28.5 17.298 28.5 17.828V28C28.5 29.104 27.604 30 26.5 30H14.5C13.396 30 12.5 29.104 12.5 28V24.25C12.5 23.8358 12.8358 23.5 13.25 23.5C13.6642 23.5 14 23.8358 14 24.25V28C14 28.275 14.224 28.5 14.5 28.5H26.5ZM25.878 16.5L22 12.621V16C22 16.275 22.224 16.5 22.5 16.5H25.878ZM11.25 21L13.7551 21L15.3117 17.4489C15.5604 16.8816 16.3355 16.8528 16.6389 17.358L16.6446 17.3675L16.6949 17.4712L19.1081 23.4977L20.5348 21.3979C20.6462 21.1882 20.8493 21.0454 21.0802 21.0091L21.0909 21.0074L21.1971 20.9999H23.197C23.6112 20.9999 23.947 21.3357 23.947 21.7499C23.947 22.1255 23.6708 22.4369 23.3101 22.4915L23.2998 22.493L23.197 22.4999H21.6428L19.6641 25.5937C19.3889 26.12 18.6499 26.124 18.3582 25.6344L18.3526 25.6251L18.3037 25.524L15.9674 19.6894L14.9321 22.0511C14.8356 22.2712 14.6415 22.4284 14.4136 22.4809C14.3984 22.4844 14.3831 22.4874 14.3676 22.49L14.3565 22.4918L14.2452 22.5L11.25 22.5C10.8358 22.5 10.5 22.1642 10.5 21.75C10.5 21.3744 10.7762 21.063 11.1369 21.0085L11.1472 21.0069L11.25 21Z" fill="white"/>
</svg>
