<svg width="41" height="40" viewBox="0 0 41 40" fill="none" xmlns="http://www.w3.org/2000/svg">
<path fill-rule="evenodd" clip-rule="evenodd" d="M20.5 40C31.5457 40 40.5 31.0457 40.5 20C40.5 8.9543 31.5457 0 20.5 0C9.4543 0 0.5 8.9543 0.5 20C0.5 31.0457 9.4543 40 20.5 40Z" fill="#EF9A9A"/>
<path d="M13.5 12C11.8431 12 10.5 13.3431 10.5 15V22.5C10.5 24.1569 11.8431 25.5 13.5 25.5H25C26.6569 25.5 28 24.1569 28 22.5V15C28 13.3431 26.6569 12 25 12H13.5ZM12 15C12 14.1716 12.6716 13.5 13.5 13.5H16.5V14.708C16.1938 14.5742 15.8555 14.5 15.5 14.5C14.1193 14.5 13 15.6193 13 17C13 17.3555 13.0742 17.6938 13.208 18H12V15ZM18 14.708V13.5H25C25.8284 13.5 26.5 14.1716 26.5 15V18H21.292C21.4258 17.6938 21.5 17.3556 21.5 17C21.5 15.6193 20.3807 14.5 19 14.5C18.6444 14.5 18.3062 14.5742 18 14.708ZM19.0607 19.5H26.5V22.5C26.5 23.3284 25.8284 24 25 24H18V20.5607L19.7197 22.2803C20.0126 22.5732 20.4874 22.5732 20.7803 22.2803C21.0732 21.9874 21.0732 21.5126 20.7803 21.2197L19.0607 19.5ZM16.5 20.5607V24H13.5C12.6716 24 12 23.3284 12 22.5V19.5H15.4393L13.7197 21.2197C13.4268 21.5126 13.4268 21.9874 13.7197 22.2803C14.0126 22.5732 14.4874 22.5732 14.7803 22.2803L16.5 20.5607ZM20 17C20 17.5523 19.5523 18 19 18H18V17C18 16.4477 18.4477 16 19 16C19.5523 16 20 16.4477 20 17ZM15.5 16C16.0509 16 16.4977 16.4454 16.5 16.9958V18H15.5C14.9477 18 14.5 17.5523 14.5 17C14.5 16.4477 14.9477 16 15.5 16ZM16 28C14.8896 28 13.9201 27.3967 13.4014 26.5H25C27.2092 26.5 29 24.7092 29 22.5V14.9014C29.8967 15.4201 30.5 16.3896 30.5 17.5V22.5C30.5 25.5376 28.0376 28 25 28H16Z" fill="white"/>
</svg>
