<svg width="41" height="40" viewBox="0 0 41 40" fill="none" xmlns="http://www.w3.org/2000/svg">
<path fill-rule="evenodd" clip-rule="evenodd" d="M20.5 40C31.5457 40 40.5 31.0457 40.5 20C40.5 8.9543 31.5457 0 20.5 0C9.4543 0 0.5 8.9543 0.5 20C0.5 31.0457 9.4543 40 20.5 40Z" fill="#80DEEA"/>
<path d="M11.2531 19.996L13.7524 20.007C14.1665 20.0088 14.5008 20.3461 14.4989 20.7603C14.4973 21.14 14.2138 21.4525 13.8476 21.5006L13.7458 21.507L11.9996 21.498V26.999L13.7491 27C14.1287 27 14.4424 27.2821 14.4921 27.6482L14.4989 27.75C14.4989 28.1297 14.2169 28.4435 13.8509 28.4931L13.7491 28.5H11.2498C10.8702 28.5 10.5565 28.2178 10.5068 27.8518L10.5 27.75V20.7459C10.5 20.3651 10.7838 20.0507 11.151 20.0024L11.2531 19.996ZM29.7449 25.5C30.159 25.5 30.4947 25.8358 30.4947 26.25C30.4947 26.6297 30.2126 26.9435 29.8466 26.9931L29.7449 27H16.2485C15.8344 27 15.4987 26.6642 15.4987 26.25C15.4987 25.8703 15.7808 25.5565 16.1467 25.5068L16.2485 25.5H29.7449ZM29.7449 21.5C30.159 21.5 30.4947 21.8358 30.4947 22.25C30.4947 22.6297 30.2126 22.9435 29.8466 22.9931L29.7449 23H16.2485C15.8344 23 15.4987 22.6642 15.4987 22.25C15.4987 21.8703 15.7808 21.5565 16.1467 21.5068L16.2485 21.5H29.7449ZM11.2531 10.5L13.7524 10.511C14.1665 10.5128 14.5008 10.8501 14.4989 11.2643C14.4973 11.644 14.2138 11.9566 13.8476 12.0046L13.7458 12.011L11.9996 12.003V17.495L13.7491 17.4951C14.1287 17.4951 14.4424 17.7772 14.4921 18.1433L14.4989 18.2451C14.4989 18.6247 14.2169 18.9385 13.8509 18.9882L13.7491 18.9951H11.2498C10.8702 18.9951 10.5565 18.7129 10.5068 18.3468L10.5 18.2451V11.25C10.5 10.8691 10.7838 10.5548 11.151 10.5064L11.2531 10.5ZM29.7449 16.0043C30.159 16.0043 30.4947 16.3401 30.4947 16.7543C30.4947 17.134 30.2126 17.4478 29.8466 17.4975L29.7449 17.5043H16.2485C15.8344 17.5043 15.4987 17.1685 15.4987 16.7543C15.4987 16.3746 15.7808 16.0608 16.1467 16.0112L16.2485 16.0043H29.7449ZM29.7502 12.0043C30.1643 12.0043 30.5 12.3401 30.5 12.7543C30.5 13.134 30.2179 13.4478 29.8519 13.4975L29.7502 13.5043H16.2538C15.8397 13.5043 15.504 13.1685 15.504 12.7543C15.504 12.3746 15.7861 12.0608 16.152 12.0112L16.2538 12.0043H29.7502Z" fill="white"/>
</svg>
