<svg width="41" height="40" viewBox="0 0 41 40" fill="none" xmlns="http://www.w3.org/2000/svg">
<path fill-rule="evenodd" clip-rule="evenodd" d="M20.5 40C31.5457 40 40.5 31.0457 40.5 20C40.5 8.9543 31.5457 0 20.5 0C9.4543 0 0.5 8.9543 0.5 20C0.5 31.0457 9.4543 40 20.5 40Z" fill="#FFCC80"/>
<path d="M11.5 14C11.5 13.4477 11.9477 13 12.5 13H28.5C29.0523 13 29.5 13.4477 29.5 14C29.5 14.5523 29.0523 15 28.5 15H12.5C11.9477 15 11.5 14.5523 11.5 14ZM16.5 18C16.5 17.4477 16.9477 17 17.5 17H28.5C29.0523 17 29.5 17.4477 29.5 18C29.5 18.5523 29.0523 19 28.5 19H17.5C16.9477 19 16.5 18.5523 16.5 18ZM16.5 22C16.5 21.4477 16.9477 21 17.5 21H28.5C29.0523 21 29.5 21.4477 29.5 22C29.5 22.5523 29.0523 23 28.5 23H17.5C16.9477 23 16.5 22.5523 16.5 22ZM28.5 27H12.5C11.9477 27 11.5 26.5523 11.5 26C11.5 25.4477 11.9477 25 12.5 25H28.5C29.0523 25 29.5 25.4477 29.5 26C29.5 26.5523 29.0523 27 28.5 27ZM11.7929 19.2071C11.4024 18.8166 11.4024 18.1834 11.7929 17.7929C12.1834 17.4024 12.8166 17.4024 13.2071 17.7929L14.7071 19.2929C15.0976 19.6834 15.0976 20.3166 14.7071 20.7071L13.2071 22.2071C12.8166 22.5976 12.1834 22.5976 11.7929 22.2071C11.4024 21.8166 11.4024 21.1834 11.7929 20.7929L12.5858 20L11.7929 19.2071Z" fill="white"/>
</svg>
