<svg width="41" height="40" viewBox="0 0 41 40" fill="none" xmlns="http://www.w3.org/2000/svg">
<path fill-rule="evenodd" clip-rule="evenodd" d="M20.5 40C31.5457 40 40.5 31.0457 40.5 20C40.5 8.9543 31.5457 0 20.5 0C9.4543 0 0.5 8.9543 0.5 20C0.5 31.0457 9.4543 40 20.5 40Z" fill="#90CAF9"/>
<path d="M14.2516 30.0046C13.009 30.0044 12.0016 28.9972 12.0013 27.7547L12 13.7502C11.9997 12.5075 13.0071 11.4999 14.2499 11.4999L14.9974 11.499L14.9979 10.75C14.9979 10.3703 15.2801 10.0565 15.6463 10.0068L15.748 10C16.1278 10 16.4416 10.2822 16.4913 10.6482L16.4981 10.75L16.4976 11.499H19.4999L19.5004 10.75C19.5004 10.3703 19.7826 10.0565 20.1488 10.0068L20.2505 10C20.6303 10 20.9441 10.2822 20.9938 10.6482L21.0006 10.75L21.0001 11.499H23.9985L23.9991 10.75C23.9991 10.3703 24.2813 10.0565 24.6474 10.0068L24.7492 10C25.1289 10 25.4427 10.2822 25.4924 10.6482L25.4993 10.75L25.4987 11.499L26.2479 11.4999C27.4905 11.5003 28.4978 12.5073 28.4982 13.7499L28.4988 18.0768C28.0532 17.7955 27.5444 17.6055 26.9984 17.5329L26.9981 13.7503C26.9979 13.336 26.662 13.0001 26.2478 12.9999H14.2398C13.8303 13.0054 13.5002 13.3391 13.5002 13.7499L13.5015 27.7544C13.5016 28.1687 13.8375 28.5046 14.2517 28.5046L20.769 28.5041C20.9685 29.0453 21.2742 29.5529 21.6722 30.0046H14.2516ZM26.9984 18.5452C27.5847 18.6526 28.106 18.9459 28.4989 19.3618C28.9644 19.8544 29.2497 20.5189 29.2497 21.25C29.2497 21.9809 28.9646 22.6452 28.4994 23.1377C28.1065 23.5537 27.5852 23.8472 26.9989 23.9548C26.8369 23.9845 26.6699 24 26.4994 24C25.0647 24 23.8866 22.9016 23.7602 21.5C23.7528 21.4177 23.749 21.3343 23.749 21.25C23.749 20.7999 23.8572 20.375 24.0489 20C24.5042 19.1096 25.4306 18.5 26.4994 18.5C26.6698 18.5 26.8366 18.5155 26.9984 18.5452ZM22.9845 25.0001C22.9893 25 22.9941 25 22.9989 25H29.9998C30.8283 25 31.5 25.6716 31.5 26.5V27C31.5 28.9714 29.6403 31 26.4994 31C25.1213 31 23.9898 30.6095 23.1538 30.0046C22.577 29.5872 22.1408 29.0677 21.8615 28.504C21.623 28.0229 21.4987 27.5095 21.4987 27V26.5C21.4987 25.7152 22.1015 25.0712 22.8694 25.0055C22.9074 25.0023 22.9458 25.0004 22.9845 25.0001ZM15.7482 20H22.9623C22.8241 20.391 22.7489 20.8117 22.7489 21.25C22.7489 21.334 22.7517 21.4174 22.7571 21.5H15.7482C15.3339 21.5 14.9981 21.1642 14.9981 20.75C14.9981 20.3703 15.2803 20.0565 15.6464 20.0068L15.7482 20ZM15.7482 24H19.747C20.1612 24 20.497 24.3358 20.497 24.75C20.497 25.1297 20.2149 25.4435 19.8487 25.4932L19.747 25.5H15.7482C15.3339 25.5 14.9981 25.1642 14.9981 24.75C14.9981 24.3703 15.2803 24.0565 15.6464 24.0068L15.7482 24ZM15.7482 16H24.7476C25.1618 16 25.4977 16.3358 25.4977 16.75C25.4977 17.1297 25.2155 17.4435 24.8494 17.4932L24.7476 17.5H15.7482C15.3339 17.5 14.9981 17.1642 14.9981 16.75C14.9981 16.3703 15.2803 16.0565 15.6464 16.0068L15.7482 16Z" fill="white"/>
</svg>
