<svg width="41" height="40" viewBox="0 0 41 40" fill="none" xmlns="http://www.w3.org/2000/svg">
<path fill-rule="evenodd" clip-rule="evenodd" d="M20.5 40C31.5457 40 40.5 31.0457 40.5 20C40.5 8.9543 31.5457 0 20.5 0C9.4543 0 0.5 8.9543 0.5 20C0.5 31.0457 9.4543 40 20.5 40Z" fill="#EF9A9A"/>
<path d="M21.75 16.5C21.3358 16.5 21 16.8358 21 17.25C21 17.6642 21.3358 18 21.75 18H25.25C25.6642 18 26 17.6642 26 17.25C26 16.8358 25.6642 16.5 25.25 16.5H21.75ZM21.0001 22.75C21.0001 22.3358 21.3358 22 21.7501 22H25.2499C25.6642 22 25.9999 22.3358 25.9999 22.75C25.9999 23.1642 25.6642 23.5 25.2499 23.5H21.7501C21.3358 23.5 21.0001 23.1642 21.0001 22.75ZM19.2803 15.7197C19.5732 16.0126 19.5732 16.4874 19.2803 16.7803L17.2803 18.7803C16.9874 19.0732 16.5126 19.0732 16.2197 18.7803L15.2197 17.7803C14.9268 17.4874 14.9268 17.0126 15.2197 16.7197C15.5126 16.4268 15.9874 16.4268 16.2803 16.7197L16.75 17.1893L18.2197 15.7197C18.5126 15.4268 18.9874 15.4268 19.2803 15.7197ZM19.2803 22.2803C19.5732 21.9874 19.5732 21.5126 19.2803 21.2197C18.9874 20.9268 18.5126 20.9268 18.2197 21.2197L16.75 22.6893L16.2803 22.2197C15.9874 21.9268 15.5126 21.9268 15.2197 22.2197C14.9268 22.5126 14.9268 22.9874 15.2197 23.2803L16.2197 24.2803C16.5126 24.5732 16.9874 24.5732 17.2803 24.2803L19.2803 22.2803ZM13.75 11C12.5074 11 11.5 12.0074 11.5 13.25V26.75C11.5 27.9926 12.5074 29 13.75 29H27.25C28.4926 29 29.5 27.9926 29.5 26.75V13.25C29.5 12.0074 28.4926 11 27.25 11H13.75ZM13 13.25C13 12.8358 13.3358 12.5 13.75 12.5H27.25C27.6642 12.5 28 12.8358 28 13.25V26.75C28 27.1642 27.6642 27.5 27.25 27.5H13.75C13.3358 27.5 13 27.1642 13 26.75V13.25Z" fill="white"/>
</svg>
