<svg width="41" height="40" viewBox="0 0 41 40" fill="none" xmlns="http://www.w3.org/2000/svg">
<path fill-rule="evenodd" clip-rule="evenodd" d="M20.5 40C31.5457 40 40.5 31.0457 40.5 20C40.5 8.9543 31.5457 0 20.5 0C9.4543 0 0.5 8.9543 0.5 20C0.5 31.0457 9.4543 40 20.5 40Z" fill="#C5E1A5"/>
<path d="M21 10.75C21 10.3358 20.6642 10 20.25 10C19.8358 10 19.5 10.3358 19.5 10.75V11H13.75C11.9551 11 10.5 12.4551 10.5 14.25V23.75C10.5 25.5449 11.9551 27 13.75 27H16.1485L14.6733 28.7699C14.4081 29.0881 14.4511 29.561 14.7693 29.8262C15.0875 30.0914 15.5604 30.0485 15.8256 29.7303L18.1011 27H20.5292C20.5098 26.8348 20.5 26.668 20.5 26.5V26C20.5 25.8288 20.5172 25.6616 20.55 25.5H13.75C12.7835 25.5 12 24.7165 12 23.75V14.25C12 13.2835 12.7835 12.5 13.75 12.5H27.25C28.2165 12.5 29 13.2835 29 14.25V17.9549C29.7672 18.6415 30.25 19.6394 30.25 20.75C30.25 20.834 30.2472 20.9174 30.2418 21H30.5V14.25C30.5 12.4551 29.0449 11 27.25 11H21V10.75ZM29.2388 21C29.2462 20.9177 29.25 20.8343 29.25 20.75C29.25 20.3405 29.1605 19.9519 29 19.6028C28.5652 18.6568 27.6093 18 26.5 18C24.9812 18 23.75 19.2312 23.75 20.75C23.75 22.2688 24.9812 23.5 26.5 23.5C27.9345 23.5 29.1125 22.4016 29.2388 21ZM30 24.5C30.1385 24.5 30.2725 24.5188 30.3998 24.5539C31.0341 24.7289 31.5 25.31 31.5 26V26.5C31.5 28.4714 29.6405 30.5 26.5 30.5C23.625 30.5 21.8236 28.8 21.5395 27C21.5133 26.8338 21.5 26.6667 21.5 26.5V26C21.5 25.8247 21.5301 25.6564 21.5854 25.5C21.7913 24.9174 22.3469 24.5 23 24.5H30ZM14.5 15.75C14.5 15.3358 14.8358 15 15.25 15H19.25C19.6642 15 20 15.3358 20 15.75C20 16.1642 19.6642 16.5 19.25 16.5H15.25C14.8358 16.5 14.5 16.1642 14.5 15.75ZM15.25 18C14.8358 18 14.5 18.3358 14.5 18.75C14.5 19.1642 14.8358 19.5 15.25 19.5H21.75C22.1642 19.5 22.5 19.1642 22.5 18.75C22.5 18.3358 22.1642 18 21.75 18H15.25ZM14.5 21.75C14.5 21.3358 14.8358 21 15.25 21H20.75C21.1642 21 21.5 21.3358 21.5 21.75C21.5 22.1642 21.1642 22.5 20.75 22.5H15.25C14.8358 22.5 14.5 22.1642 14.5 21.75Z" fill="white"/>
</svg>
