<svg width="41" height="40" viewBox="0 0 41 40" fill="none" xmlns="http://www.w3.org/2000/svg">
<path fill-rule="evenodd" clip-rule="evenodd" d="M20.5 40C31.5457 40 40.5 31.0457 40.5 20C40.5 8.9543 31.5457 0 20.5 0C9.4543 0 0.5 8.9543 0.5 20C0.5 31.0457 9.4543 40 20.5 40Z" fill="#B39DDB"/>
<path d="M23 10C24.7949 10 26.25 11.4551 26.25 13.25C26.25 13.8946 26.0624 14.4953 25.7387 15.0005L28.25 15C28.9404 15 29.5 15.5596 29.5 16.25V19.75C29.5 20.3544 29.071 20.8586 28.5009 20.9748L28.5 26.75C28.5 28.483 27.1435 29.8992 25.4344 29.9949L25.25 30H15.75C14.017 30 12.6008 28.6435 12.5051 26.9344L12.5 26.75L12.5001 20.975C11.9295 20.8592 11.5 20.3548 11.5 19.75V16.25C11.5 15.5596 12.0596 15 12.75 15L15.2613 15.0005C14.9376 14.4953 14.75 13.8946 14.75 13.25C14.75 11.4551 16.2051 10 18 10C19.0055 10 19.9044 10.4567 20.5006 11.1739C21.0956 10.4567 21.9945 10 23 10ZM19.75 20.999H14V26.75C14 27.6682 14.7071 28.4212 15.6065 28.4942L15.75 28.5H19.75V20.999ZM27 20.999H21.25V28.5H25.25C26.1682 28.5 26.9212 27.7929 26.9942 26.8935L27 26.75V20.999ZM19.75 16.5H13V19.5L19.75 19.499V16.5ZM28 19.5V16.5H21.25V19.499L28 19.5ZM23 11.5C22.0335 11.5 21.25 12.2835 21.25 13.25V14.999H23.024L23.1435 14.9942C24.0429 14.9212 24.75 14.1682 24.75 13.25C24.75 12.2835 23.9665 11.5 23 11.5ZM18 11.5C17.0335 11.5 16.25 12.2835 16.25 13.25C16.25 14.1682 16.9571 14.9212 17.8565 14.9942L17.976 14.999H19.75V13.25L19.7442 13.1065C19.6712 12.2071 18.9182 11.5 18 11.5Z" fill="white"/>
</svg>
