<svg width="41" height="40" viewBox="0 0 41 40" fill="none" xmlns="http://www.w3.org/2000/svg">
<path fill-rule="evenodd" clip-rule="evenodd" d="M20.5 40C31.5457 40 40.5 31.0457 40.5 20C40.5 8.9543 31.5457 0 20.5 0C9.4543 0 0.5 8.9543 0.5 20C0.5 31.0457 9.4543 40 20.5 40Z" fill="#EF9A9A"/>
<path d="M27.914 16.414L22.085 10.586C22.07 10.571 22.0531 10.5581 22.0363 10.5452C22.0238 10.5357 22.0115 10.5262 22 10.516C21.929 10.452 21.859 10.389 21.781 10.336C21.7557 10.3189 21.7281 10.3055 21.7005 10.2921C21.6845 10.2843 21.6685 10.2765 21.653 10.268C21.6363 10.2586 21.6197 10.249 21.603 10.2393C21.5488 10.208 21.4944 10.1765 21.437 10.152C21.24 10.07 21.028 10.029 20.813 10.014C20.7933 10.0127 20.7738 10.0101 20.7542 10.0074C20.7271 10.0037 20.6999 10 20.672 10H14.5C13.396 10 12.5 10.896 12.5 12V28C12.5 29.104 13.396 30 14.5 30H21.3096C20.8832 29.5557 20.5194 29.051 20.2322 28.5H14.5C14.224 28.5 14 28.275 14 28V12C14 11.725 14.224 11.5 14.5 11.5H20.5V16C20.5 17.104 21.396 18 22.5 18H27V19.0764C27.5232 19.1572 28.0258 19.3004 28.5 19.4982V17.828C28.5 17.298 28.289 16.789 27.914 16.414ZM22 12.621L25.878 16.5H22.5C22.224 16.5 22 16.275 22 16V12.621ZM19.25 25.5H19.5C19.5 26.0163 19.5602 26.5185 19.6739 27H19.25C18.8358 27 18.5 26.6642 18.5 26.25C18.5 25.8358 18.8358 25.5 19.25 25.5ZM19.6739 24C19.7986 23.4722 19.9876 22.9693 20.2322 22.5H19.25C18.8358 22.5 18.5 22.8358 18.5 23.25C18.5 23.6642 18.8358 24 19.25 24H19.6739ZM21.3096 21C21.9229 20.3609 22.6656 19.8468 23.4956 19.5H19.25C18.8358 19.5 18.5 19.8358 18.5 20.25C18.5 20.6642 18.8358 21 19.25 21H21.3096ZM16.25 19.5C15.8358 19.5 15.5 19.8358 15.5 20.25C15.5 20.6642 15.8358 21 16.25 21C16.6642 21 17 20.6642 17 20.25C17 19.8358 16.6642 19.5 16.25 19.5ZM15.5 23.25C15.5 22.8358 15.8358 22.5 16.25 22.5C16.6642 22.5 17 22.8358 17 23.25C17 23.6642 16.6642 24 16.25 24C15.8358 24 15.5 23.6642 15.5 23.25ZM15.5 26.25C15.5 25.8358 15.8358 25.5 16.25 25.5C16.6642 25.5 17 25.8358 17 26.25C17 26.6642 16.6642 27 16.25 27C15.8358 27 15.5 26.6642 15.5 26.25ZM31.5 25.5C31.5 22.4624 29.0376 20 26 20C22.9624 20 20.5 22.4624 20.5 25.5C20.5 28.5376 22.9624 31 26 31C29.0376 31 31.5 28.5376 31.5 25.5ZM25.7206 25.9175C25.5853 25.828 25.4961 25.6745 25.4961 25.5C25.4961 25.4759 25.4978 25.4522 25.5011 25.4291L25.5 21.4993C25.5 21.2231 25.7239 20.9993 26 20.9993C26.2761 20.9993 26.5 21.2231 26.5 21.4993L26.501 25H28.9966C29.2725 25 29.4961 25.2239 29.4961 25.5C29.4961 25.7762 29.2725 26 28.9966 26H26.0606C26.0411 26.0023 26.0213 26.0035 26.0011 26.0035C25.8971 26.0035 25.8006 25.9718 25.7206 25.9175Z" fill="white"/>
</svg>
