<svg width="41" height="40" viewBox="0 0 41 40" fill="none" xmlns="http://www.w3.org/2000/svg">
<path fill-rule="evenodd" clip-rule="evenodd" d="M20.5 40C31.5457 40 40.5 31.0457 40.5 20C40.5 8.9543 31.5457 0 20.5 0C9.4543 0 0.5 8.9543 0.5 20C0.5 31.0457 9.4543 40 20.5 40Z" fill="#A5D6A7"/>
<path d="M11.5 14.25C11.5 12.4551 12.9551 11 14.75 11H26.25C28.0449 11 29.5 12.4551 29.5 14.25V20.0218C29.0368 19.7253 28.5335 19.4858 28 19.3135V18H24V19.3135C23.4665 19.4858 22.9632 19.7253 22.5 20.0218L22.5 18H18.5L18.5 22H20.5218C20.2253 22.4632 19.9858 22.9665 19.8135 23.5H18.5V27.5H19.8135C19.9858 28.0335 20.2253 28.5368 20.5218 29H14.75C12.9551 29 11.5 27.5449 11.5 25.75V14.25ZM14.75 12.5C13.7835 12.5 13 13.2835 13 14.25V16.5H17V12.5H14.75ZM13 18V22H17L17 18H13ZM24 16.5H28V14.25C28 13.2835 27.2165 12.5 26.25 12.5H24V16.5ZM22.5 12.5H18.5V16.5H22.5V12.5ZM13 23.5V25.75C13 26.7165 13.7835 27.5 14.75 27.5H17V23.5H13ZM22.7782 21.9754C23.093 23.0656 22.4386 24.1991 21.337 24.4716L20.7528 24.6161C20.7079 24.9038 20.6846 25.199 20.6846 25.4998C20.6846 25.8145 20.7101 26.123 20.7592 26.4232L21.2986 26.5532C22.4111 26.8211 23.0725 27.9661 22.7486 29.0636L22.5623 29.6949C23.0014 30.0805 23.5019 30.3937 24.0464 30.6165L24.5397 30.0977C25.3283 29.2685 26.6506 29.2687 27.4388 30.0982L27.9375 30.623C28.4811 30.4027 28.9811 30.0925 29.4204 29.7101L29.2223 29.0242C28.9076 27.9339 29.562 26.8005 30.6635 26.528L31.2472 26.3835C31.2922 26.0958 31.3155 25.8006 31.3155 25.4998C31.3155 25.1851 31.2899 24.8765 31.2409 24.5762L30.7019 24.4464C29.5894 24.1785 28.9281 23.0335 29.2519 21.9359L29.4381 21.3051C28.999 20.9193 28.4985 20.6061 27.9539 20.3833L27.4608 20.9018C26.6722 21.7311 25.35 21.7309 24.5617 20.9013L24.0629 20.3765C23.5193 20.5967 23.0194 20.9068 22.5801 21.2892L22.7782 21.9754ZM26 26.9998C25.1994 26.9998 24.5504 26.3282 24.5504 25.4998C24.5504 24.6714 25.1994 23.9998 26 23.9998C26.8007 23.9998 27.4497 24.6714 27.4497 25.4998C27.4497 26.3282 26.8007 26.9998 26 26.9998Z" fill="white"/>
</svg>
