<svg width="41" height="40" viewBox="0 0 41 40" fill="none" xmlns="http://www.w3.org/2000/svg">
<path fill-rule="evenodd" clip-rule="evenodd" d="M20.5 40C31.5457 40 40.5 31.0457 40.5 20C40.5 8.9543 31.5457 0 20.5 0C9.4543 0 0.5 8.9543 0.5 20C0.5 31.0457 9.4543 40 20.5 40Z" fill="#A5D6A7"/>
<path d="M28.5 12.7466C28.5 11.2278 27.2688 9.99658 25.75 9.99658H13.25C11.7312 9.99658 10.5 11.2278 10.5 12.7466V25.2466C10.5 26.7654 11.7312 27.9966 13.25 27.9966H19.916L20.0209 27.5768C20.117 27.1926 20.2739 26.8281 20.4842 26.4966H13.25C12.5596 26.4966 12 25.9369 12 25.2466V12.7466C12 12.0562 12.5596 11.4966 13.25 11.4966H25.75C26.4404 11.4966 27 12.0562 27 12.7466V19.8597C27.4371 19.4598 27.9562 19.1994 28.5 19.0785V12.7466ZM24.5 22.355V14.7293L24.4932 14.6303C24.4435 14.2743 24.1297 13.9999 23.75 13.9999C23.3358 13.9999 23 14.3265 23 14.7293V23.2705L23.0068 23.3695C23.0243 23.4947 23.0744 23.6098 23.1486 23.7064L24.5 22.355ZM15.9932 16.6453C15.9435 16.2808 15.6297 15.9999 15.25 15.9999C14.8358 15.9999 14.5 16.3342 14.5 16.7467V23.2531L14.5068 23.3544C14.5565 23.7189 14.8703 23.9999 15.25 23.9999C15.6642 23.9999 16 23.6655 16 23.2531V16.7467L15.9932 16.6453ZM20.207 19.6173C20.1549 19.2633 19.8458 18.993 19.4751 18.9966C19.0707 19.0006 18.746 19.329 18.75 19.7301L18.7854 23.2775L18.793 23.3759C18.8451 23.73 19.1542 24.0002 19.5249 23.9967C19.9293 23.9926 20.254 23.6642 20.25 23.2631L20.2146 19.7158L20.207 19.6173ZM27.5999 20.6694L21.6974 26.5719C21.3533 26.916 21.1092 27.3472 20.9911 27.8193L20.5334 29.6501C20.3344 30.4462 21.0556 31.1673 21.8517 30.9683L23.6824 30.5106C24.1545 30.3926 24.5857 30.1484 24.9299 29.8043L30.8323 23.9019C31.7249 23.0093 31.7249 21.5621 30.8323 20.6694C29.9397 19.7768 28.4925 19.7768 27.5999 20.6694Z" fill="white"/>
</svg>
