<svg width="41" height="40" viewBox="0 0 41 40" fill="none" xmlns="http://www.w3.org/2000/svg">
<path fill-rule="evenodd" clip-rule="evenodd" d="M20.5 40C31.5457 40 40.5 31.0457 40.5 20C40.5 8.9543 31.5457 0 20.5 0C9.4543 0 0.5 8.9543 0.5 20C0.5 31.0457 9.4543 40 20.5 40Z" fill="#F48FB1"/>
<path d="M10.5 13C10.5 11.3431 11.8431 10 13.5 10H27.5C29.1569 10 30.5 11.3431 30.5 13V22.05C30.3384 22.0172 30.1712 22 30 22H29V17.5H19.0607L20.7803 19.2197C21.0732 19.5126 21.0732 19.9874 20.7803 20.2803C20.4874 20.5732 20.0126 20.5732 19.7197 20.2803L18 18.5607V23.5H19.708C19.5742 23.8062 19.5 24.1444 19.5 24.5V25H13.5C11.8431 25 10.5 23.6569 10.5 22V13ZM13.5 11.5C12.6716 11.5 12 12.1716 12 13V16H13.208C13.0742 15.6938 13 15.3555 13 15C13 13.6193 14.1193 12.5 15.5 12.5C15.8555 12.5 16.1938 12.5742 16.5 12.708V11.5H13.5ZM18 11.5V12.708C18.3062 12.5742 18.6444 12.5 19 12.5C20.3807 12.5 21.5 13.6193 21.5 15C21.5 15.3556 21.4258 15.6938 21.292 16H29V13C29 12.1716 28.3284 11.5 27.5 11.5H18ZM16.5 23.5V18.5607L14.7803 20.2803C14.4874 20.5732 14.0126 20.5732 13.7197 20.2803C13.4268 19.9874 13.4268 19.5126 13.7197 19.2197L15.4393 17.5H12V22C12 22.8284 12.6716 23.5 13.5 23.5H16.5ZM19 16C19.5523 16 20 15.5523 20 15C20 14.4477 19.5523 14 19 14C18.4477 14 18 14.4477 18 15V16H19ZM16.5 14.9958C16.4977 14.4454 16.0509 14 15.5 14C14.9477 14 14.5 14.4477 14.5 15C14.5 15.5523 14.9477 16 15.5 16H16.5V14.9958ZM20.5 24.5C20.5 23.6716 21.1716 23 22 23H30C30.8284 23 31.5 23.6716 31.5 24.5V28.5C31.5 29.3284 30.8284 30 30 30H22C21.1716 30 20.5 29.3284 20.5 28.5V24.5ZM30.5 25C29.9477 25 29.5 24.5523 29.5 24H28.5C28.5 25.1046 29.3954 26 30.5 26V25ZM30.5 27C29.3954 27 28.5 27.8954 28.5 29H29.5C29.5 28.4477 29.9477 28 30.5 28V27ZM22.5 24C22.5 24.5523 22.0523 25 21.5 25V26C22.6046 26 23.5 25.1046 23.5 24H22.5ZM23.5 29C23.5 27.8954 22.6046 27 21.5 27V28C22.0523 28 22.5 28.4477 22.5 29H23.5ZM27.75 26.5C27.75 25.5335 26.9665 24.75 26 24.75C25.0335 24.75 24.25 25.5335 24.25 26.5C24.25 27.4665 25.0335 28.25 26 28.25C26.9665 28.25 27.75 27.4665 27.75 26.5Z" fill="white"/>
</svg>
