<svg width="41" height="40" viewBox="0 0 41 40" fill="none" xmlns="http://www.w3.org/2000/svg">
<path fill-rule="evenodd" clip-rule="evenodd" d="M20.5 40C31.5457 40 40.5 31.0457 40.5 20C40.5 8.9543 31.5457 0 20.5 0C9.4543 0 0.5 8.9543 0.5 20C0.5 31.0457 9.4543 40 20.5 40Z" fill="#80DEEA"/>
<path d="M26.5 28.5H20.7678C20.4806 29.051 20.1168 29.5557 19.6904 30H26.5C27.604 30 28.5 29.104 28.5 28V17.828C28.5 17.298 28.289 16.789 27.914 16.414L22.085 10.586C22.07 10.571 22.0531 10.5581 22.0363 10.5452C22.0238 10.5357 22.0115 10.5262 22 10.516C21.929 10.452 21.859 10.389 21.781 10.336C21.7557 10.3189 21.7281 10.3055 21.7005 10.2921C21.6845 10.2843 21.6685 10.2765 21.653 10.268C21.6363 10.2586 21.6197 10.249 21.603 10.2393C21.5488 10.208 21.4944 10.1765 21.437 10.152C21.24 10.07 21.028 10.029 20.813 10.014C20.7933 10.0127 20.7738 10.0101 20.7542 10.0074C20.7271 10.0037 20.6999 10 20.672 10H14.5C13.396 10 12.5 10.896 12.5 12V19.4982C12.9742 19.3004 13.4768 19.1572 14 19.0764V12C14 11.725 14.224 11.5 14.5 11.5H20.5V16C20.5 17.104 21.396 18 22.5 18H27V28C27 28.275 26.776 28.5 26.5 28.5ZM25.878 16.5H22.5C22.224 16.5 22 16.275 22 16V12.621L25.878 16.5ZM21.5 25.5C21.5 26.0163 21.4398 26.5185 21.3261 27H23.75C24.7165 27 25.5 26.2165 25.5 25.25V21.25C25.5 20.2835 24.7165 19.5 23.75 19.5H17.5044C18.4795 19.9075 19.3341 20.5457 20 21.3464V21H23.75C23.8881 21 24 21.1119 24 21.25V22.5H20.7678C21.0124 22.9693 21.2014 23.4722 21.3261 24H24V25.25C24 25.3881 23.8881 25.5 23.75 25.5H21.5ZM20.5 25.5C20.5 28.5376 18.0376 31 15 31C11.9624 31 9.5 28.5376 9.5 25.5C9.5 22.4624 11.9624 20 15 20C18.0376 20 20.5 22.4624 20.5 25.5ZM18.3536 23.1464C18.1583 22.9512 17.8417 22.9512 17.6464 23.1464L14 26.7929L12.3536 25.1464C12.1583 24.9512 11.8417 24.9512 11.6464 25.1464C11.4512 25.3417 11.4512 25.6583 11.6464 25.8536L13.6464 27.8536C13.8417 28.0488 14.1583 28.0488 14.3536 27.8536L18.3536 23.8536C18.5488 23.6583 18.5488 23.3417 18.3536 23.1464Z" fill="white"/>
</svg>
