<svg width="41" height="40" viewBox="0 0 41 40" fill="none" xmlns="http://www.w3.org/2000/svg">
<path fill-rule="evenodd" clip-rule="evenodd" d="M20.5 40C31.5457 40 40.5 31.0457 40.5 20C40.5 8.9543 31.5457 0 20.5 0C9.4543 0 0.5 8.9543 0.5 20C0.5 31.0457 9.4543 40 20.5 40Z" fill="#A5D6A7"/>
<path d="M25.75 10C27.2688 10 28.5 11.2312 28.5 12.75V21.5179C28.1972 21.5616 27.9053 21.6847 27.6568 21.8835L27 22.4089V12.75C27 12.0596 26.4404 11.5 25.75 11.5H13.25C12.5596 11.5 12 12.0596 12 12.75V25.25C12 25.9404 12.5596 26.5 13.25 26.5H25.0251C25.5517 27.0174 26.345 27.1429 27.0001 26.8316V27.7001C26.625 27.8918 26.2001 28 25.75 28H13.25C11.7312 28 10.5 26.7688 10.5 25.25V12.75C10.5 11.2312 11.7312 10 13.25 10H25.75Z" fill="white"/>
<path d="M28.2815 22.6643C28.3482 22.611 28.4222 22.5704 28.5 22.5429C28.685 22.4775 28.892 22.4861 29.0749 22.574C29.3348 22.6989 29.5 22.9617 29.5 23.25V29.25C29.5 29.6642 29.1642 30 28.75 30C28.3358 30 28 29.6642 28 29.25V24.8105L26.7185 25.8357C26.3951 26.0944 25.9231 26.042 25.6644 25.7185C25.4056 25.3951 25.4581 24.9231 25.7815 24.6644L28.2815 22.6643C28.2815 22.6643 28.2816 22.6643 28.2815 22.6643Z" fill="white"/>
<path d="M17.5 21.4393L23.9697 14.9697C24.2626 14.6768 24.7374 14.6768 25.0303 14.9697C25.2966 15.2359 25.3208 15.6526 25.1029 15.9462L25.0303 16.0303L18.0303 23.0303C17.7641 23.2966 17.3474 23.3208 17.0538 23.1029L16.9697 23.0303L13.9697 20.0303C13.6768 19.7374 13.6768 19.2626 13.9697 18.9697C14.2359 18.7034 14.6526 18.6792 14.9462 18.8971L15.0303 18.9697L17.5 21.4393Z" fill="white"/>
</svg>
