<svg width="41" height="40" viewBox="0 0 41 40" fill="none" xmlns="http://www.w3.org/2000/svg">
<path fill-rule="evenodd" clip-rule="evenodd" d="M20.5 40C31.5457 40 40.5 31.0457 40.5 20C40.5 8.9543 31.5457 0 20.5 0C9.4543 0 0.5 8.9543 0.5 20C0.5 31.0457 9.4543 40 20.5 40Z" fill="#FFCC80"/>
<path d="M25.2489 10L29.8027 10.0005L29.903 10.0144L30.0018 10.042L30.0621 10.0676C30.1413 10.1025 30.2155 10.1531 30.2808 10.2184L30.3215 10.2624L30.365 10.3188L30.4192 10.4089L30.4579 10.4992L30.477 10.5633L30.4906 10.6273L30.5 10.7215L30.5004 15.2539C30.5004 15.6681 30.1647 16.0039 29.7504 16.0039C29.3708 16.0039 29.057 15.7217 29.0073 15.3557L29.0004 15.2539L29 12.559L22.5607 18.9997C22.2944 19.266 21.8777 19.2902 21.5841 19.0724L21.5 18.9998L18.4697 16.0892L12.7803 21.7786C12.4874 22.0715 12.0126 22.0715 11.7197 21.7786C11.4534 21.5123 11.4292 21.0957 11.6471 20.8021L11.7197 20.7179L17.9394 14.4983C18.2056 14.232 18.6223 14.2078 18.9159 14.4256L19 14.4982L22.0303 17.4088L27.938 11.5H25.2489C24.8692 11.5 24.5554 11.2178 24.5058 10.8518L24.4989 10.75C24.4989 10.3703 24.7811 10.0565 25.1472 10.0068L25.2489 10ZM12.25 25C12.6642 25 13 25.3358 13 25.75V29.25C13 29.6642 12.6642 30 12.25 30C11.8358 30 11.5 29.6642 11.5 29.25V25.75C11.5 25.3358 11.8358 25 12.25 25ZM18 21.75C18 21.3358 17.6642 21 17.25 21C16.8358 21 16.5 21.3358 16.5 21.75V29.25C16.5 29.6642 16.8358 30 17.25 30C17.6642 30 18 29.6642 18 29.25V21.75ZM22.25 23C22.6642 23 23 23.3358 23 23.75V29.25C23 29.6642 22.6642 30 22.25 30C21.8358 30 21.5 29.6642 21.5 29.25V23.75C21.5 23.3358 21.8358 23 22.25 23ZM28 18.75C28 18.3358 27.6642 18 27.25 18C26.8358 18 26.5 18.3358 26.5 18.75V29.25C26.5 29.6642 26.8358 30 27.25 30C27.6642 30 28 29.6642 28 29.25V18.75Z" fill="white"/>
</svg>
