<svg width="41" height="40" viewBox="0 0 41 40" fill="none" xmlns="http://www.w3.org/2000/svg">
<path fill-rule="evenodd" clip-rule="evenodd" d="M20.5 40C31.5457 40 40.5 31.0457 40.5 20C40.5 8.9543 31.5457 0 20.5 0C9.4543 0 0.5 8.9543 0.5 20C0.5 31.0457 9.4543 40 20.5 40Z" fill="#EF9A9A"/>
<path d="M19.25 22C20.4926 22 21.5 23.0074 21.5 24.25V25.752L21.4921 25.8604C21.1814 27.9866 19.2715 29.009 16.0668 29.009C12.8736 29.009 10.9333 27.9983 10.5145 25.8966L10.5 25.75V24.25C10.5 23.0074 11.5074 22 12.75 22H19.25ZM19.25 23.5H12.75C12.3358 23.5 12 23.8358 12 24.25V25.6704C12.2798 26.8708 13.5506 27.509 16.0668 27.509C18.5829 27.509 19.7966 26.8777 20 25.6932V24.25C20 23.8358 19.6642 23.5 19.25 23.5ZM16 14C17.933 14 19.5 15.567 19.5 17.5C19.5 19.433 17.933 21 16 21C14.067 21 12.5 19.433 12.5 17.5C12.5 15.567 14.067 14 16 14ZM28.25 10C29.4926 10 30.5 11.0074 30.5 12.25V15.75C30.5 16.9926 29.4926 18 28.25 18H26.7951L24.6286 20.1414C24.1375 20.6266 23.346 20.6219 22.8608 20.1308C22.6296 19.8968 22.5 19.5812 22.5 19.2526L22.4994 17.9862C21.3747 17.8615 20.5 16.9079 20.5 15.75V12.25C20.5 11.0074 21.5074 10 22.75 10H28.25ZM16 15.5C14.8954 15.5 14 16.3954 14 17.5C14 18.6046 14.8954 19.5 16 19.5C17.1046 19.5 18 18.6046 18 17.5C18 16.3954 17.1046 15.5 16 15.5ZM28.25 11.5H22.75C22.3358 11.5 22 11.8358 22 12.25V15.75C22 16.1642 22.3358 16.5 22.75 16.5H23.9986L23.9997 18.6539L26.1789 16.5H28.25C28.6642 16.5 29 16.1642 29 15.75V12.25C29 11.8358 28.6642 11.5 28.25 11.5Z" fill="white"/>
</svg>
