<svg width="41" height="40" viewBox="0 0 41 40" fill="none" xmlns="http://www.w3.org/2000/svg">
<path fill-rule="evenodd" clip-rule="evenodd" d="M20.5 40C31.5457 40 40.5 31.0457 40.5 20C40.5 8.9543 31.5457 0 20.5 0C9.4543 0 0.5 8.9543 0.5 20C0.5 31.0457 9.4543 40 20.5 40Z" fill="#EF9A9A"/>
<path d="M10.5 15.25C10.5 13.4551 11.9551 12 13.75 12H27.25C29.0449 12 30.5 13.4551 30.5 15.25V21H30.2418C30.1753 19.9902 29.7092 19.0896 29 18.4549V15.25C29 14.2835 28.2165 13.5 27.25 13.5H13.75C12.7835 13.5 12 14.2835 12 15.25V24.75C12 25.7165 12.7835 26.5 13.75 26.5H20.5V27C20.5 27.3395 20.5402 27.6743 20.6178 28H13.75C11.9551 28 10.5 26.5449 10.5 24.75V15.25ZM13.5 16.25C13.5 15.5596 14.0596 15 14.75 15H19.25C19.9404 15 20.5 15.5596 20.5 16.25V19.75C20.5 20.4404 19.9404 21 19.25 21H14.75C14.0596 21 13.5 20.4404 13.5 19.75V16.25ZM30 25C30.8284 25 31.5 25.6716 31.5 26.5V27C31.5 28.9714 29.6405 31 26.5 31C23.3595 31 21.5 28.9714 21.5 27V26.5C21.5 25.6716 22.1716 25 23 25H30ZM26.5 18.5C28.0188 18.5 29.25 19.7312 29.25 21.25C29.25 22.7688 28.0188 24 26.5 24C24.9812 24 23.75 22.7688 23.75 21.25C23.75 19.7312 24.9812 18.5 26.5 18.5Z" fill="white"/>
</svg>
