<svg width="41" height="40" viewBox="0 0 41 40" fill="none" xmlns="http://www.w3.org/2000/svg">
<path fill-rule="evenodd" clip-rule="evenodd" d="M20.5 40C31.5457 40 40.5 31.0457 40.5 20C40.5 8.9543 31.5457 0 20.5 0C9.4543 0 0.5 8.9543 0.5 20C0.5 31.0457 9.4543 40 20.5 40Z" fill="#90CAF9"/>
<path d="M25.75 10C27.2688 10 28.5 11.2312 28.5 12.75V21.5352C28.0006 21.4638 27.4876 21.5027 27 21.6373V12.75C27 12.0596 26.4404 11.5 25.75 11.5H13.25C12.5596 11.5 12 12.0596 12 12.75V25.25C12 25.9404 12.5596 26.5 13.25 26.5H25.75C25.7801 26.5 25.81 26.4989 25.8396 26.4968C25.4797 26.886 25.1423 27.3778 24.9409 28H13.25C11.7312 28 10.5 26.7688 10.5 25.25V12.75C10.5 11.2312 11.7312 10 13.25 10H25.75Z" fill="white"/>
<path d="M17.5 21.4393L23.9697 14.9697C24.2626 14.6768 24.7374 14.6768 25.0303 14.9697C25.2966 15.2359 25.3208 15.6526 25.1029 15.9462L25.0303 16.0303L18.0303 23.0303C17.7641 23.2966 17.3474 23.3208 17.0538 23.1029L16.9697 23.0303L13.9697 20.0303C13.6768 19.7374 13.6768 19.2626 13.9697 18.9697C14.2359 18.7034 14.6526 18.6792 14.9462 18.8971L15.0303 18.9697L17.5 21.4393Z" fill="white"/>
<path d="M27.0579 24.4093C27.3346 24.1013 27.8193 23.9445 28.193 24.0179C28.3618 24.0511 28.4851 24.1258 28.5701 24.2331C28.6553 24.3406 28.75 24.5415 28.75 24.9097C28.75 25.4604 28.3979 25.7411 27.5604 26.347C26.8205 26.8822 25.75 27.6677 25.75 29.2501C25.75 29.6643 26.0858 30.0001 26.5 30.0001H29.5C29.9142 30.0001 30.25 29.6643 30.25 29.2501C30.25 28.8359 29.9142 28.5001 29.5 28.5001H27.4428C27.6384 28.1686 27.978 27.8962 28.4396 27.5623C28.4815 27.532 28.5253 27.5007 28.5707 27.4684C29.2427 26.989 30.25 26.2703 30.25 24.9097C30.25 24.2761 30.0822 23.7258 29.7455 23.3012C29.4087 22.8763 28.9507 22.6381 28.482 22.546C27.5807 22.369 26.5654 22.7131 25.9421 23.4067C25.6653 23.7148 25.6906 24.189 25.9987 24.4659C26.3068 24.7427 26.781 24.7174 27.0579 24.4093Z" fill="white"/>
</svg>
