<svg width="41" height="40" viewBox="0 0 41 40" fill="none" xmlns="http://www.w3.org/2000/svg">
<path fill-rule="evenodd" clip-rule="evenodd" d="M20.5 40C31.5457 40 40.5 31.0457 40.5 20C40.5 8.9543 31.5457 0 20.5 0C9.4543 0 0.5 8.9543 0.5 20C0.5 31.0457 9.4543 40 20.5 40Z" fill="#A5D6A7"/>
<path d="M14.25 11C12.7312 11 11.5 12.2312 11.5 13.75V26.25C11.5 27.7688 12.7312 29 14.25 29H20.5218C20.2253 28.5368 19.9858 28.0335 19.8135 27.5H14.25C13.5596 27.5 13 26.9404 13 26.25V13.75C13 13.0596 13.5596 12.5 14.25 12.5H26.75C27.4404 12.5 28 13.0596 28 13.75V19.3135C28.5335 19.4858 29.0368 19.7253 29.5 20.0218V13.75C29.5 12.2312 28.2688 11 26.75 11H14.25ZM26.4566 19.0158C26.4875 18.9336 26.5044 18.8447 26.5044 18.7517C26.5044 18.3375 26.1686 18.0017 25.7544 18.0017L20.75 18.0017C20.3358 18.0017 20 18.3375 20 18.7517C20 19.1659 20.3358 19.5017 20.75 19.5017L23.4915 19.5017C24.2634 19.1785 25.1108 19 26 19C26.1535 19 26.3057 19.0053 26.4566 19.0158ZM16.75 16.5017C15.5074 16.5017 14.5 17.5091 14.5 18.7517C14.5 19.9943 15.5074 21.0017 16.75 21.0017C17.9926 21.0017 19 19.9943 19 18.7517C19 17.5091 17.9926 16.5017 16.75 16.5017ZM16 18.7517C16 18.3375 16.3358 18.0017 16.75 18.0017C17.1642 18.0017 17.5 18.3375 17.5 18.7517C17.5 19.1659 17.1642 19.5017 16.75 19.5017C16.3358 19.5017 16 19.1659 16 18.7517ZM14.5 24.25C14.5 23.0074 15.5074 22 16.75 22C17.9926 22 19 23.0074 19 24.25C19 25.4926 17.9926 26.5 16.75 26.5C15.5074 26.5 14.5 25.4926 14.5 24.25ZM16.75 23.5C16.3358 23.5 16 23.8358 16 24.25C16 24.6642 16.3358 25 16.75 25C17.1642 25 17.5 24.6642 17.5 24.25C17.5 23.8358 17.1642 23.5 16.75 23.5ZM25.7544 15.5L15.2549 15.5C14.8407 15.5 14.5049 15.1642 14.5049 14.75C14.5049 14.3358 14.8407 14 15.2549 14L25.7544 14C26.1686 14 26.5044 14.3358 26.5044 14.75C26.5044 15.1642 26.1686 15.5 25.7544 15.5ZM31.5 25.5C31.5 22.4624 29.0376 20 26 20C22.9624 20 20.5 22.4624 20.5 25.5C20.5 28.5376 22.9624 31 26 31C29.0376 31 31.5 28.5376 31.5 25.5ZM26.5011 28.5035C26.5011 28.7797 26.2773 29.0035 26.0011 29.0035C25.725 29.0035 25.5011 28.7797 25.5011 28.5035L25.5006 26H22.9961C22.72 26 22.4961 25.7762 22.4961 25.5C22.4961 25.2239 22.72 25 22.9961 25H25.5005L25.5 22.4993C25.5 22.2231 25.7239 21.9993 26 21.9993C26.2761 21.9993 26.5 22.2231 26.5 22.4993L26.5005 25H29.003C29.2792 25 29.503 25.2239 29.503 25.5C29.503 25.7762 29.2792 26 29.003 26H26.5006L26.5011 28.5035Z" fill="white"/>
</svg>
