<svg width="41" height="40" viewBox="0 0 41 40" fill="none" xmlns="http://www.w3.org/2000/svg">
<path fill-rule="evenodd" clip-rule="evenodd" d="M20.5 40C31.5457 40 40.5 31.0457 40.5 20C40.5 8.9543 31.5457 0 20.5 0C9.4543 0 0.5 8.9543 0.5 20C0.5 31.0457 9.4543 40 20.5 40Z" fill="#80CBC4"/>
<path d="M27 28C27 28.275 26.776 28.5 26.5 28.5H20.7678C20.4806 29.051 20.1168 29.5557 19.6904 30H26.5C27.604 30 28.5 29.104 28.5 28V17.828C28.5 17.298 28.289 16.789 27.914 16.414L22.085 10.586C22.07 10.571 22.0531 10.5581 22.0363 10.5452C22.0238 10.5357 22.0115 10.5262 22 10.516C21.929 10.452 21.859 10.389 21.781 10.336C21.7557 10.3189 21.7281 10.3055 21.7005 10.2921C21.6845 10.2843 21.6685 10.2765 21.653 10.268C21.6363 10.2586 21.6197 10.249 21.603 10.2393C21.5488 10.208 21.4944 10.1765 21.437 10.152C21.24 10.07 21.028 10.029 20.813 10.014C20.7933 10.0127 20.7738 10.0101 20.7542 10.0074C20.7271 10.0037 20.6999 10 20.672 10H14.5C13.396 10 12.5 10.896 12.5 12V19.4982C12.9742 19.3004 13.4768 19.1572 14 19.0764V12C14 11.725 14.224 11.5 14.5 11.5H20.5V16C20.5 17.104 21.396 18 22.5 18H27V28ZM22 12.621L25.878 16.5H22.5C22.224 16.5 22 16.275 22 16V12.621ZM20.5 25.5C20.5 28.5376 18.0376 31 15 31C11.9624 31 9.5 28.5376 9.5 25.5C9.5 22.4624 11.9624 20 15 20C18.0376 20 20.5 22.4624 20.5 25.5ZM18 26C18.2761 26 18.5 25.7761 18.5 25.5C18.5 25.2239 18.2761 25 18 25H13.2071L14.8536 23.3536C15.0488 23.1583 15.0488 22.8417 14.8536 22.6464C14.6583 22.4512 14.3417 22.4512 14.1464 22.6464L11.6464 25.1464C11.4512 25.3417 11.4512 25.6583 11.6464 25.8536L14.1464 28.3536C14.3417 28.5488 14.6583 28.5488 14.8536 28.3536C15.0488 28.1583 15.0488 27.8417 14.8536 27.6464L13.2071 26H18Z" fill="white"/>
</svg>
