<svg width="41" height="40" viewBox="0 0 41 40" fill="none" xmlns="http://www.w3.org/2000/svg">
<path fill-rule="evenodd" clip-rule="evenodd" d="M20.5 40C31.5457 40 40.5 31.0457 40.5 20C40.5 8.9543 31.5457 0 20.5 0C9.4543 0 0.5 8.9543 0.5 20C0.5 31.0457 9.4543 40 20.5 40Z" fill="#90CAF9"/>
<path d="M10.5 13C10.5 11.3431 11.8431 10 13.5 10H27.5C29.1569 10 30.5 11.3431 30.5 13V20.8096C30.0557 20.3832 29.551 20.0194 29 19.7322V17.5H19.0607L20.7803 19.2197C21.0732 19.5126 21.0732 19.9874 20.7803 20.2803C20.4874 20.5732 20.0126 20.5732 19.7197 20.2803L18 18.5607V23.5H19.8135C19.659 23.9782 19.5585 24.4805 19.5189 25H13.5C11.8431 25 10.5 23.6569 10.5 22V13ZM13.5 11.5C12.6716 11.5 12 12.1716 12 13V16H13.208C13.0742 15.6938 13 15.3555 13 15C13 13.6193 14.1193 12.5 15.5 12.5C15.8555 12.5 16.1938 12.5742 16.5 12.708V11.5H13.5ZM18 11.5V12.708C18.3062 12.5742 18.6444 12.5 19 12.5C20.3807 12.5 21.5 13.6193 21.5 15C21.5 15.3556 21.4258 15.6938 21.292 16H29V13C29 12.1716 28.3284 11.5 27.5 11.5H18ZM16.5 23.5V18.5607L14.7803 20.2803C14.4874 20.5732 14.0126 20.5732 13.7197 20.2803C13.4268 19.9874 13.4268 19.5126 13.7197 19.2197L15.4393 17.5H12V22C12 22.8284 12.6716 23.5 13.5 23.5H16.5ZM19 16C19.5523 16 20 15.5523 20 15C20 14.4477 19.5523 14 19 14C18.4477 14 18 14.4477 18 15V16H19ZM16.5 14.9958C16.4977 14.4454 16.0509 14 15.5 14C14.9477 14 14.5 14.4477 14.5 15C14.5 15.5523 14.9477 16 15.5 16H16.5V14.9958ZM31.5 25.5C31.5 22.4624 29.0376 20 26 20C22.9624 20 20.5 22.4624 20.5 25.5C20.5 28.5376 22.9624 31 26 31C29.0376 31 31.5 28.5376 31.5 25.5ZM26.5006 26L26.5011 28.5035C26.5011 28.7797 26.2773 29.0035 26.0011 29.0035C25.725 29.0035 25.5011 28.7797 25.5011 28.5035L25.5006 26H22.9956C22.7197 26 22.4961 25.7762 22.4961 25.5C22.4961 25.2239 22.7197 25 22.9956 25H25.5005L25.5 22.4993C25.5 22.2231 25.7239 21.9993 26 21.9993C26.2761 21.9993 26.5 22.2231 26.5 22.4993L26.5005 25H28.9966C29.2725 25 29.4961 25.2239 29.4961 25.5C29.4961 25.7762 29.2725 26 28.9966 26H26.5006Z" fill="white"/>
</svg>
