<svg width="41" height="40" viewBox="0 0 41 40" fill="none" xmlns="http://www.w3.org/2000/svg">
<path fill-rule="evenodd" clip-rule="evenodd" d="M20.5 40C31.5457 40 40.5 31.0457 40.5 20C40.5 8.9543 31.5457 0 20.5 0C9.4543 0 0.5 8.9543 0.5 20C0.5 31.0457 9.4543 40 20.5 40Z" fill="#90CAF9"/>
<path d="M14 12.25C14 11.8358 14.3358 11.5 14.75 11.5H20.5V16C20.5 17.1046 21.3954 18 22.5 18H27V27.75C27 28.1642 26.6642 28.5 26.25 28.5H22.5V30H26.25C27.4926 30 28.5 28.9926 28.5 27.75V17.6642C28.5 17.2001 28.3156 16.755 27.9874 16.4268L22.0732 10.5126C21.745 10.1844 21.2999 10 20.8358 10H14.75C13.5074 10 12.5 11.0074 12.5 12.25V19.5854C12.6564 19.5301 12.8247 19.5 13 19.5H14V12.25ZM25.9393 16.5H22.5C22.2239 16.5 22 16.2761 22 16V12.5607L25.9393 16.5ZM12.25 21.25C12.25 20.8358 12.5858 20.5 13 20.5H18C18.4142 20.5 18.75 20.8358 18.75 21.25V23H19.25C20.4926 23 21.5 24.0074 21.5 25.25V28.75C21.5 29.9926 20.4926 31 19.25 31H11.75C10.5074 31 9.5 29.9926 9.5 28.75V25.25C9.5 24.0074 10.5074 23 11.75 23H12.25V21.25ZM17.25 22H13.75V23H17.25V22ZM11.75 24.5C11.3358 24.5 11 24.8358 11 25.25V28.75C11 29.1642 11.3358 29.5 11.75 29.5H19.25C19.6642 29.5 20 29.1642 20 28.75V25.25C20 24.8358 19.6642 24.5 19.25 24.5H11.75Z" fill="white"/>
</svg>
