<svg width="41" height="40" viewBox="0 0 41 40" fill="none" xmlns="http://www.w3.org/2000/svg">
<path fill-rule="evenodd" clip-rule="evenodd" d="M20.5 40C31.5457 40 40.5 31.0457 40.5 20C40.5 8.9543 31.5457 0 20.5 0C9.4543 0 0.5 8.9543 0.5 20C0.5 31.0457 9.4543 40 20.5 40Z" fill="#EF9A9A"/>
<path d="M12.797 12H28.246C28.5418 11.9996 28.8347 12.0575 29.1081 12.1703C29.3815 12.2832 29.63 12.4487 29.8393 12.6576C30.0486 12.8665 30.2147 13.1145 30.3281 13.3876C30.4414 13.6607 30.4999 13.9534 30.5 14.249V25.751C30.5 26.3475 30.2629 26.9195 29.841 27.3413C29.419 27.763 28.8467 28 28.25 28H12.75C12.1533 28 11.581 27.763 11.159 27.3413C10.7371 26.9195 10.5 26.3475 10.5 25.751V18.5441C10.5625 18.6182 10.633 18.6852 10.71 18.744C10.8969 18.8715 11.1123 18.9512 11.3372 18.9762C11.5621 19.0011 11.7897 18.9705 12 18.887V25.748C12 25.9468 12.079 26.1375 12.2197 26.2781C12.3603 26.4187 12.5511 26.4977 12.75 26.4977H15.499V23.7449C15.499 23.3057 15.6643 22.8826 15.962 22.5597C16.2598 22.2367 16.6681 22.0375 17.106 22.0016L17.249 21.9956H23.744C24.1833 21.9957 24.6066 22.1609 24.9297 22.4585C25.2528 22.7561 25.4521 23.1642 25.488 23.6019L25.494 23.7449V26.4937H28.246C28.4449 26.4937 28.6357 26.4147 28.7763 26.2741C28.917 26.1335 28.996 25.9428 28.996 25.744V14.249C28.996 14.0502 28.917 13.8595 28.7763 13.7189C28.6357 13.5783 28.4449 13.4993 28.246 13.4993H13.918L13.637 13.4084C13.5051 13.3647 13.3852 13.2907 13.287 13.1925C13.1907 13.0958 13.1176 12.9786 13.073 12.8496L12.797 12ZM16.994 26.4937H23.994L23.989 23.7449C23.9889 23.6886 23.9698 23.6339 23.9348 23.5899C23.8997 23.5458 23.8508 23.5148 23.796 23.502L23.739 23.495H17.244C17.1877 23.4951 17.133 23.5142 17.0889 23.5492C17.0448 23.5842 17.0138 23.6331 17.001 23.6879L16.994 23.7449V26.4937ZM22.6213 15.878C23.1839 16.4404 23.5 17.2031 23.5 17.9984C23.5 18.3922 23.4224 18.7821 23.2716 19.1459C23.1209 19.5097 22.8999 19.8403 22.6213 20.1188C22.3427 20.3972 22.012 20.6181 21.6481 20.7688C21.2841 20.9195 20.894 20.9971 20.5 20.9971C20.106 20.9971 19.7159 20.9195 19.3519 20.7688C18.988 20.6181 18.6573 20.3972 18.3787 20.1188C18.1001 19.8403 17.8791 19.5097 17.7284 19.1459C17.5776 18.7821 17.5 18.3922 17.5 17.9984C17.5 17.2031 17.8161 16.4404 18.3787 15.878C18.9413 15.3156 19.7044 14.9997 20.5 14.9997C21.2956 14.9997 22.0587 15.3156 22.6213 15.878ZM19.4393 16.9382C19.158 17.2194 19 17.6007 19 17.9984C19 18.1953 19.0388 18.3902 19.1142 18.5722C19.1896 18.7541 19.3001 18.9193 19.4393 19.0586C19.5786 19.1978 19.744 19.3082 19.926 19.3836C20.108 19.4589 20.303 19.4977 20.5 19.4977C20.697 19.4977 20.892 19.4589 21.074 19.3836C21.256 19.3082 21.4214 19.1978 21.5607 19.0586C21.6999 18.9193 21.8104 18.7541 21.8858 18.5722C21.9612 18.3902 22 18.1953 22 17.9984C22 17.6007 21.842 17.2194 21.5607 16.9382C21.2794 16.657 20.8978 16.499 20.5 16.499C20.1022 16.499 19.7206 16.657 19.4393 16.9382ZM10.861 16.8389L11.161 17.7555C11.186 17.8265 11.2324 17.888 11.294 17.9314C11.3552 17.9744 11.4281 17.9974 11.503 17.9974C11.5781 17.9975 11.6514 17.9744 11.713 17.9314C11.7321 17.9171 11.7502 17.9014 11.767 17.8844C11.7961 17.8533 11.8198 17.8175 11.837 17.7785L11.845 17.7555L12.145 16.8389C12.2374 16.5595 12.3943 16.3058 12.603 16.0982C12.811 15.8903 13.0647 15.7339 13.344 15.6414L14.262 15.3415C14.3326 15.3159 14.3939 15.2696 14.438 15.2086C14.481 15.1474 14.504 15.0745 14.504 14.9997C14.504 14.9246 14.481 14.8513 14.438 14.7898C14.3942 14.7289 14.3327 14.6828 14.262 14.6578H14.244L13.325 14.358C13.046 14.2649 12.7924 14.1085 12.584 13.9012C12.3758 13.6934 12.2193 13.4397 12.127 13.1605L11.827 12.2429C11.8019 12.1722 11.7554 12.111 11.694 12.068C11.6328 12.0247 11.5599 12.0013 11.485 12.001C11.4098 12.0014 11.3365 12.0248 11.275 12.068C11.214 12.1113 11.1679 12.1724 11.143 12.2429L10.843 13.1605L10.836 13.1835C10.7439 13.4515 10.5929 13.6954 10.394 13.8972C10.1891 14.1051 9.93894 14.2628 9.66295 14.358L8.74395 14.6578C8.67318 14.6828 8.612 14.7293 8.56895 14.7908C8.52565 14.8519 8.50225 14.9248 8.50195 14.9997C8.50225 15.0746 8.52565 15.1475 8.56895 15.2086C8.612 15.2701 8.67318 15.3165 8.74395 15.3415L9.66295 15.6414C9.94254 15.7347 10.1966 15.8918 10.405 16.1002C10.4604 16.1564 10.5125 16.2158 10.561 16.2781C10.6915 16.447 10.7929 16.6366 10.861 16.8389ZM13.3919 18.5472L13.9269 18.3732C14.0889 18.3167 14.2357 18.2236 14.3559 18.1013C14.4156 18.0406 14.4686 17.9735 14.5139 17.9014C14.5555 17.8297 14.589 17.7536 14.6139 17.6745L14.7879 17.1388C14.8031 17.0986 14.8299 17.0638 14.8649 17.0388C14.879 17.0298 14.8937 17.0218 14.9089 17.0148C14.934 17.0048 14.9609 16.9997 14.9879 16.9998C15.0316 17.0002 15.0741 17.0138 15.1099 17.0388C15.1225 17.0481 15.1342 17.0584 15.1449 17.0698C15.1632 17.0906 15.1775 17.1147 15.1869 17.1408L15.3609 17.6765C15.415 17.8393 15.5065 17.9872 15.6279 18.1083C15.75 18.2292 15.8981 18.3205 16.0609 18.3752L16.5959 18.5492H16.6069C16.6201 18.5541 16.6328 18.5602 16.6449 18.5671C16.6701 18.5822 16.6919 18.6022 16.7089 18.6261C16.7346 18.662 16.7482 18.705 16.7479 18.7491C16.7481 18.7928 16.7344 18.8355 16.7089 18.871C16.6842 18.9063 16.6493 18.9331 16.6089 18.948L16.0729 19.1219C15.9101 19.176 15.7621 19.2674 15.6409 19.3888C15.5195 19.5099 15.428 19.6578 15.3739 19.8206L15.1999 20.3554C15.1843 20.3956 15.1571 20.4303 15.1219 20.4553C15.0862 20.4803 15.0436 20.4936 14.9999 20.4933C14.9563 20.4935 14.9137 20.4802 14.8779 20.4553C14.8427 20.4306 14.8158 20.3957 14.8009 20.3554L14.6269 19.8206C14.5731 19.6571 14.4817 19.5085 14.3599 19.3868C14.2381 19.2654 14.0899 19.1738 13.9269 19.1189L13.3919 18.945C13.3512 18.9308 13.3161 18.9038 13.2919 18.868C13.2667 18.8323 13.2531 18.7897 13.2529 18.7461C13.2531 18.7024 13.2667 18.6598 13.2919 18.6241C13.3161 18.5884 13.3512 18.5613 13.3919 18.5472Z" fill="white"/>
</svg>
