<svg width="41" height="40" viewBox="0 0 41 40" fill="none" xmlns="http://www.w3.org/2000/svg">
<path fill-rule="evenodd" clip-rule="evenodd" d="M20.5 40C31.5457 40 40.5 31.0457 40.5 20C40.5 8.9543 31.5457 0 20.5 0C9.4543 0 0.5 8.9543 0.5 20C0.5 31.0457 9.4543 40 20.5 40Z" fill="#CE93D8"/>
<path d="M24.28 11.7381C23.7766 11.5521 23.2234 11.5521 22.72 11.7381L18.4133 13.3297C18.3152 13.366 18.25 13.4596 18.25 13.5642V16.3574C17.7532 16.278 17.2468 16.278 16.75 16.3574V13.5642C16.75 12.8317 17.2063 12.1767 17.8934 11.9227L22.2001 10.3311C23.039 10.0211 23.961 10.0211 24.7999 10.3311L29.1066 11.9227C29.7937 12.1767 30.25 12.8317 30.25 13.5642V24.2343C30.25 24.9668 29.7937 25.6218 29.1066 25.8757L25.0892 27.3604C25.1938 27.0684 25.25 26.7557 25.25 26.4335V25.7018L28.5867 24.4688C28.6848 24.4325 28.75 24.3389 28.75 24.2343V13.5642C28.75 13.4596 28.6848 13.366 28.5867 13.3297L24.28 11.7381ZM20.2692 15.668C19.8777 15.5327 19.6701 15.1057 19.8054 14.7142C19.9407 14.3227 20.3678 14.115 20.7593 14.2503L23.4178 15.1693C23.4708 15.1876 23.5284 15.1876 23.5813 15.1692L26.2318 14.2508C26.6232 14.1152 27.0504 14.3226 27.186 14.7139C27.3216 15.1053 27.1143 15.5325 26.7229 15.6682L24.0725 16.5866C23.7017 16.715 23.2986 16.7152 22.9278 16.587L20.2692 15.668ZM14.2692 22.668C13.8777 22.5327 13.6701 22.1057 13.8054 21.7142C13.9407 21.3227 14.3678 21.115 14.7593 21.2503L17.4996 22.1976L20.2318 21.2508C20.6232 21.1152 21.0504 21.3226 21.186 21.7139C21.3216 22.1053 21.1143 22.5325 20.7229 22.6682L18.2499 23.5251V26.2243C18.2499 26.6386 17.9141 26.9743 17.4999 26.9743C17.0857 26.9743 16.7499 26.6386 16.7499 26.2243V23.5255L14.2692 22.668ZM18.7999 17.5304C17.961 17.2203 17.039 17.2203 16.2001 17.5304L11.8934 19.122C11.2063 19.3759 10.75 20.0309 10.75 20.7634V26.4335C10.75 27.166 11.2063 27.821 11.8934 28.075L16.2001 29.6665C17.039 29.9766 17.961 29.9766 18.7999 29.6665L23.1066 28.075C23.7937 27.821 24.25 27.166 24.25 26.4335V20.7634C24.25 20.0309 23.7937 19.3759 23.1066 19.122L18.7999 17.5304ZM16.72 18.9374C17.2234 18.7513 17.7766 18.7513 18.28 18.9374L22.5867 20.5289C22.6848 20.5652 22.75 20.6588 22.75 20.7634V26.4335C22.75 26.5381 22.6848 26.6317 22.5867 26.668L18.28 28.2596C17.7766 28.4456 17.2234 28.4456 16.72 28.2596L12.4133 26.668C12.3152 26.6317 12.25 26.5381 12.25 26.4335V20.7634C12.25 20.6588 12.3152 20.5652 12.4133 20.5289L16.72 18.9374Z" fill="white"/>
</svg>
