<svg width="41" height="40" viewBox="0 0 41 40" fill="none" xmlns="http://www.w3.org/2000/svg">
<path fill-rule="evenodd" clip-rule="evenodd" d="M20.5 40C31.5457 40 40.5 31.0457 40.5 20C40.5 8.9543 31.5457 0 20.5 0C9.4543 0 0.5 8.9543 0.5 20C0.5 31.0457 9.4543 40 20.5 40Z" fill="#A5D6A7"/>
<path d="M30.4998 12.25C30.4998 11.0074 29.4925 10 28.2498 10H22.7845C21.9218 10 21.0946 10.343 20.485 10.9533L11.9853 19.4632C10.717 20.7334 10.7186 22.7913 11.9891 24.0592L16.4508 28.5143C17.722 29.7807 19.7777 29.7798 21.0472 28.5129L21.141 28.419C20.7814 28.0648 20.4703 27.6616 20.2186 27.2201L19.987 27.4518C19.3033 28.134 18.1949 28.1345 17.5101 27.4522L13.0488 22.9977C12.369 22.3191 12.3639 21.2207 13.0341 20.5358L21.5463 12.0133C21.8745 11.6847 22.32 11.5 22.7845 11.5H28.2498C28.664 11.5 28.9998 11.8358 28.9998 12.25V17.712C28.9998 18.176 28.8155 18.6211 28.4874 18.9492L27.7189 19.7179C28.1605 19.9695 28.5638 20.2806 28.918 20.6401L29.5482 20.0098C30.1575 19.4003 30.4998 18.5738 30.4998 17.712V12.25ZM26.9998 15.0022C26.9998 14.1737 26.3282 13.5022 25.4998 13.5022C24.6714 13.5022 23.9998 14.1737 23.9998 15.0022C23.9998 15.8306 24.6714 16.5021 25.4998 16.5021C26.3282 16.5021 26.9998 15.8306 26.9998 15.0022ZM28.6681 27.1074C29.1919 26.3718 29.5 25.4719 29.5 24.5C29.5 22.0147 27.4853 20 25 20C22.5147 20 20.5 22.0147 20.5 24.5C20.5 26.9853 22.5147 29 25 29C25.9719 29 26.8718 28.6919 27.6074 28.1681L30.2197 30.7803C30.5126 31.0732 30.9874 31.0732 31.2803 30.7803C31.5732 30.4874 31.5732 30.0126 31.2803 29.7197L28.6681 27.1074ZM28 24.5C28 26.1569 26.6569 27.5 25 27.5C23.3431 27.5 22 26.1569 22 24.5C22 22.8431 23.3431 21.5 25 21.5C26.6569 21.5 28 22.8431 28 24.5Z" fill="white"/>
</svg>
