<svg width="41" height="40" viewBox="0 0 41 40" fill="none" xmlns="http://www.w3.org/2000/svg">
<path fill-rule="evenodd" clip-rule="evenodd" d="M20.5 40C31.5457 40 40.5 31.0457 40.5 20C40.5 8.9543 31.5457 0 20.5 0C9.4543 0 0.5 8.9543 0.5 20C0.5 31.0457 9.4543 40 20.5 40Z" fill="#EF9A9A"/>
<path d="M25.75 10C27.2688 10 28.5 11.2312 28.5 12.75V20.9029L28.2404 20.3833C27.9562 19.8144 27.5093 19.421 27 19.2031V12.75C27 12.0596 26.4404 11.5 25.75 11.5H13.25C12.5596 11.5 12 12.0596 12 12.75V25.25C12 25.9404 12.5596 26.5 13.25 26.5H20.7096L19.9602 28H13.25C11.7312 28 10.5 26.7688 10.5 25.25V12.75C10.5 11.2312 11.7312 10 13.25 10H25.75Z" fill="white"/>
<path d="M17.5 21.4393L23.9697 14.9697C24.2626 14.6768 24.7374 14.6768 25.0303 14.9697C25.2966 15.2359 25.3208 15.6526 25.1029 15.9462L25.0303 16.0303L18.0303 23.0303C17.7641 23.2966 17.3474 23.3208 17.0538 23.1029L16.9697 23.0303L13.9697 20.0303C13.6768 19.7374 13.6768 19.2626 13.9697 18.9697C14.2359 18.7034 14.6526 18.6792 14.9462 18.8971L15.0303 18.9697L17.5 21.4393Z" fill="white"/>
<path d="M24.661 20.8301L20.6641 28.8284C20.1654 29.8262 20.8913 31 22.007 31H30.0008C31.1165 31 31.8424 29.8263 31.3437 28.8284L27.3468 20.8301C26.7938 19.7233 25.2141 19.7233 24.661 20.8301ZM26.5043 23.4956V26.4974C26.5043 26.7737 26.2803 26.9976 26.0039 26.9976C25.7276 26.9976 25.5035 26.7737 25.5035 26.4974V23.4956C25.5035 23.2193 25.7276 22.9954 26.0039 22.9954C26.2803 22.9954 26.5043 23.2193 26.5043 23.4956ZM26.0039 28.9988C25.7276 28.9988 25.5035 28.7748 25.5035 28.4985C25.5035 28.2222 25.7276 27.9982 26.0039 27.9982C26.2803 27.9982 26.5043 28.2222 26.5043 28.4985C26.5043 28.7748 26.2803 28.9988 26.0039 28.9988Z" fill="white"/>
</svg>
