<svg width="41" height="40" viewBox="0 0 41 40" fill="none" xmlns="http://www.w3.org/2000/svg">
<path fill-rule="evenodd" clip-rule="evenodd" d="M20.5 40C31.5457 40 40.5 31.0457 40.5 20C40.5 8.9543 31.5457 0 20.5 0C9.4543 0 0.5 8.9543 0.5 20C0.5 31.0457 9.4543 40 20.5 40Z" fill="#FFCC80"/>
<path d="M19.0911 10.512C19.9947 10.1457 21.0053 10.1457 21.9089 10.512L29.4075 13.552C30.0679 13.8197 30.5 14.4612 30.5 15.1738V20.8096C30.0557 20.3832 29.551 20.0194 29 19.7322V15.7719L21.2503 18.7642V21.0625C20.5581 21.8031 20.0371 22.7058 19.7503 23.7073V18.7628L12 15.7488V24.8265C12 24.9283 12.0617 25.0199 12.1561 25.0582L19.6547 28.0982C19.6863 28.111 19.7183 28.1231 19.7503 28.1344V27.2927C20.0098 28.1988 20.461 29.0239 21.0572 29.7214C20.398 29.8204 19.7187 29.7427 19.0911 29.4883L11.5925 26.4483C10.9321 26.1806 10.5 25.5391 10.5 24.8265V15.1738C10.5 14.4612 10.9321 13.8197 11.5925 13.552L19.0911 10.512ZM21.3453 11.9021C20.8032 11.6824 20.1968 11.6824 19.6547 11.9021L17.741 12.678L25.2678 15.6051L27.937 14.5744L21.3453 11.9021ZM23.1911 16.4069L15.7147 13.4994L13.0903 14.5634L20.5013 17.4454L23.1911 16.4069ZM31.5 25.5C31.5 28.5376 29.0376 31 26 31C22.9624 31 20.5 28.5376 20.5 25.5C20.5 22.4624 22.9624 20 26 20C29.0376 20 31.5 22.4624 31.5 25.5ZM24.3536 23.1464C24.1583 22.9512 23.8417 22.9512 23.6464 23.1464C23.4512 23.3417 23.4512 23.6583 23.6464 23.8536L25.2929 25.5L23.6464 27.1464C23.4512 27.3417 23.4512 27.6583 23.6464 27.8536C23.8417 28.0488 24.1583 28.0488 24.3536 27.8536L26 26.2071L27.6464 27.8536C27.8417 28.0488 28.1583 28.0488 28.3536 27.8536C28.5488 27.6583 28.5488 27.3417 28.3536 27.1464L26.7071 25.5L28.3536 23.8536C28.5488 23.6583 28.5488 23.3417 28.3536 23.1464C28.1583 22.9512 27.8417 22.9512 27.6464 23.1464L26 24.7929L24.3536 23.1464Z" fill="white"/>
</svg>
