<svg width="41" height="40" viewBox="0 0 41 40" fill="none" xmlns="http://www.w3.org/2000/svg">
<path fill-rule="evenodd" clip-rule="evenodd" d="M20.5 40C31.5457 40 40.5 31.0457 40.5 20C40.5 8.9543 31.5457 0 20.5 0C9.4543 0 0.5 8.9543 0.5 20C0.5 31.0457 9.4543 40 20.5 40Z" fill="#FFCC80"/>
<path d="M26.75 10.9966C28.2688 10.9966 29.5 12.2278 29.5 13.7466V26.2466C29.5 27.7654 28.2688 28.9966 26.75 28.9966H14.25C12.7312 28.9966 11.5 27.7654 11.5 26.2466V13.7466C11.5 12.2278 12.7312 10.9966 14.25 10.9966H26.75ZM26.75 12.4966H14.25C13.5596 12.4966 13 13.0562 13 13.7466V26.2466C13 26.9369 13.5596 27.4966 14.25 27.4966H26.75C27.4404 27.4966 28 26.9369 28 26.2466V13.7466C28 13.0562 27.4404 12.4966 26.75 12.4966ZM16.25 16.9999C16.6297 16.9999 16.9435 17.2808 16.9932 17.6453L17 17.7467V24.2531C17 24.6655 16.6642 24.9999 16.25 24.9999C15.8703 24.9999 15.5565 24.7189 15.5068 24.3544L15.5 24.2531V17.7467C15.5 17.3342 15.8358 16.9999 16.25 16.9999ZM24.75 14.9999C25.1297 14.9999 25.4435 15.2743 25.4932 15.6303L25.5 15.7293V24.2705C25.5 24.6733 25.1642 24.9999 24.75 24.9999C24.3703 24.9999 24.0565 24.7255 24.0068 24.3695L24 24.2705V15.7293C24 15.3265 24.3358 14.9999 24.75 14.9999ZM20.4751 19.9966C20.8458 19.993 21.1549 20.2633 21.207 20.6173L21.2146 20.7158L21.25 24.2631C21.254 24.6642 20.9293 24.9926 20.5249 24.9967C20.1542 25.0002 19.8451 24.73 19.793 24.3759L19.7854 24.2775L19.75 20.7301C19.746 20.329 20.0707 20.0006 20.4751 19.9966Z" fill="white"/>
</svg>
