<svg width="41" height="40" viewBox="0 0 41 40" fill="none" xmlns="http://www.w3.org/2000/svg">
<path fill-rule="evenodd" clip-rule="evenodd" d="M20.5 40C31.5457 40 40.5 31.0457 40.5 20C40.5 8.9543 31.5457 0 20.5 0C9.4543 0 0.5 8.9543 0.5 20C0.5 31.0457 9.4543 40 20.5 40Z" fill="#EF9A9A"/>
<path d="M25.75 10C27.2688 10 28.5 11.2312 28.5 12.75V20.1543C28.1872 20.0438 27.8506 19.9836 27.5 19.9836C27.3296 19.9836 27.1626 19.9978 27 20.0251V12.75C27 12.0596 26.4404 11.5 25.75 11.5H13.25C12.5596 11.5 12 12.0596 12 12.75V25.25C12 25.9404 12.5596 26.5 13.25 26.5H22.7009C22.5716 26.8019 22.5 27.1344 22.5 27.4836C22.5 27.6594 22.5092 27.8317 22.5271 28H13.25C11.7312 28 10.5 26.7688 10.5 25.25V12.75C10.5 11.2312 11.7312 10 13.25 10H25.75Z" fill="white"/>
<path d="M27.5 20.9836C27.8643 20.9836 28.2058 21.081 28.5 21.2512C29.0978 21.597 29.5 22.2434 29.5 22.9836C29.5 23.7239 29.0978 24.3703 28.5 24.7161C28.2058 24.8862 27.8643 24.9836 27.5 24.9836C27.3274 24.9836 27.1598 24.9618 27 24.9206C26.1374 24.6986 25.5 23.9156 25.5 22.9836C25.5 22.0517 26.1374 21.2687 27 21.0467C27.1598 21.0055 27.3274 20.9836 27.5 20.9836Z" fill="white"/>
<path d="M30 25.9836C30.8284 25.9836 31.5 26.6552 31.5 27.4836C31.5 28.5997 31.041 29.4939 30.2879 30.0985C29.5466 30.6934 28.5531 30.9837 27.5 30.9837C26.4469 30.9837 25.4534 30.6934 24.7121 30.0985C24.079 29.5902 23.6537 28.8773 23.5343 28C23.5117 27.8337 23.5 27.6615 23.5 27.4836C23.5 27.1073 23.6386 26.7633 23.8675 26.5C24.1425 26.1837 24.5479 25.9836 25 25.9836L30 25.9836Z" fill="white"/>
<path d="M17.5 21.4393L23.9697 14.9697C24.2626 14.6768 24.7374 14.6768 25.0303 14.9697C25.2966 15.2359 25.3208 15.6526 25.1029 15.9462L25.0303 16.0303L18.0303 23.0303C17.7641 23.2966 17.3474 23.3208 17.0538 23.1029L16.9697 23.0303L13.9697 20.0303C13.6768 19.7374 13.6768 19.2626 13.9697 18.9697C14.2359 18.7034 14.6526 18.6792 14.9462 18.8971L15.0303 18.9697L17.5 21.4393Z" fill="white"/>
</svg>
