<svg width="41" height="40" viewBox="0 0 41 40" fill="none" xmlns="http://www.w3.org/2000/svg">
<path fill-rule="evenodd" clip-rule="evenodd" d="M20.5 40C31.5457 40 40.5 31.0457 40.5 20C40.5 8.9543 31.5457 0 20.5 0C9.4543 0 0.5 8.9543 0.5 20C0.5 31.0457 9.4543 40 20.5 40Z" fill="#A5D6A7"/>
<path d="M13.75 10H18.75C19.1642 10 19.5 10.3358 19.5 10.75C19.5 11.1642 19.1642 11.5 18.75 11.5H13.75C12.7835 11.5 12 12.2835 12 13.25V16.3759C11.4184 16.639 10.9066 17.0293 10.5 17.5112V13.25C10.5 11.4551 11.9551 10 13.75 10ZM24.1241 28.5C23.861 29.0816 23.4707 29.5934 22.9888 30H27.25C29.0449 30 30.5 28.5449 30.5 26.75V21.75C30.5 21.3358 30.1642 21 29.75 21C29.3358 21 29 21.3358 29 21.75V26.75C29 27.7165 28.2165 28.5 27.25 28.5H24.1241ZM29.75 19C30.1642 19 30.5 18.6642 30.5 18.25V13.25C30.5 11.4551 29.0449 10 27.25 10H22.25C21.8358 10 21.5 10.3358 21.5 10.75C21.5 11.1642 21.8358 11.5 22.25 11.5H27.25C28.2165 11.5 29 12.2835 29 13.25V18.25C29 18.6642 29.3358 19 29.75 19ZM13.75 17C11.9551 17 10.5 18.4551 10.5 20.25V26.75C10.5 28.5449 11.9551 30 13.75 30H20.25C22.0449 30 23.5 28.5449 23.5 26.75V20.25C23.5 18.4551 22.0449 17 20.25 17H13.75ZM12 20.25C12 19.2835 12.7835 18.5 13.75 18.5H14.5V21H12V20.25ZM14.5 22.5V25H12V22.5H14.5ZM16 25V22.5H18V25H16ZM19.5 25V22.5H22V25H19.5ZM16 26.5H18V28.5H16V26.5ZM19.5 26.5H22V26.75C22 27.7165 21.2165 28.5 20.25 28.5H19.5V26.5ZM19.5 18.5H20.25C21.2165 18.5 22 19.2835 22 20.25V21H19.5V18.5ZM18 21H16V18.5H18V21ZM14.5 26.5V28.5H13.75C12.7835 28.5 12 27.7165 12 26.75V26.5H14.5Z" fill="white"/>
</svg>
