<svg width="41" height="40" viewBox="0 0 41 40" fill="none" xmlns="http://www.w3.org/2000/svg">
<path fill-rule="evenodd" clip-rule="evenodd" d="M20.5 40C31.5457 40 40.5 31.0457 40.5 20C40.5 8.9543 31.5457 0 20.5 0C9.4543 0 0.5 8.9543 0.5 20C0.5 31.0457 9.4543 40 20.5 40Z" fill="#90CAF9"/>
<g clip-path="url(#clip0_1514_14887)">
<path d="M20.5 9.99609C24.5499 9.99609 27.8567 13.1908 27.9958 17.2451L28 17.4961V21.5931L29.38 24.7491C29.4491 24.907 29.4847 25.0775 29.4847 25.2499C29.4847 25.9402 28.9251 26.4999 28.2347 26.4999L23.5 26.5014C23.5 28.1582 22.1569 29.5014 20.5 29.5014C18.9023 29.5014 17.5963 28.2524 17.5051 26.6776L17.4995 26.4991L12.7749 26.4999C12.6035 26.4999 12.434 26.4646 12.2769 26.3964C11.6437 26.1213 11.3533 25.3851 11.6284 24.7519L13 21.594V17.496C13.0006 13.3412 16.3521 9.99609 20.5 9.99609ZM21.9995 26.4991L19 26.5014C19 27.3298 19.6716 28.0014 20.5 28.0014C21.2797 28.0014 21.9204 27.4065 21.9931 26.6458L21.9995 26.4991ZM20.5 11.4961C17.1798 11.4961 14.5005 14.1703 14.5 17.4961V21.9057L13.156 24.9999H27.8525L26.5 21.9067L26.5001 17.5089L26.4964 17.2837C26.3853 14.0503 23.7416 11.4961 20.5 11.4961ZM29.5 16.2499H31.5C31.9142 16.2499 32.25 16.5857 32.25 16.9999C32.25 17.3796 31.9678 17.6934 31.6018 17.743L31.5 17.7499H29.5C29.0858 17.7499 28.75 17.4141 28.75 16.9999C28.75 16.6202 29.0322 16.3064 29.3982 16.2567L29.5 16.2499ZM9.5 16.2499H11.5C11.9142 16.2499 12.25 16.5857 12.25 16.9999C12.25 17.3796 11.9678 17.6934 11.6018 17.743L11.5 17.7499H9.5C9.08579 17.7499 8.75 17.4141 8.75 16.9999C8.75 16.6202 9.03215 16.3064 9.39823 16.2567L9.5 16.2499ZM31.1 10.5499C31.3259 10.8511 31.291 11.267 31.0338 11.5269L30.95 11.5999L28.95 13.0999C28.6186 13.3484 28.1485 13.2812 27.9 12.9499C27.6741 12.6486 27.709 12.2327 27.9662 11.9729L28.05 11.8999L30.05 10.3999C30.3814 10.1513 30.8515 10.2185 31.1 10.5499ZM10.95 10.3999L12.95 11.8999C13.2814 12.1484 13.3485 12.6185 13.1 12.9499C12.8515 13.2812 12.3814 13.3484 12.05 13.0999L10.05 11.5999C9.71863 11.3513 9.65147 10.8812 9.9 10.5499C10.1485 10.2185 10.6186 10.1513 10.95 10.3999Z" fill="white"/>
</g>
<defs>
<clipPath id="clip0_1514_14887">
<path d="M8.5 16C8.5 11.5817 12.0817 8 16.5 8H24.5C28.9183 8 32.5 11.5817 32.5 16V24C32.5 28.4183 28.9183 32 24.5 32H16.5C12.0817 32 8.5 28.4183 8.5 24V16Z" fill="white"/>
</clipPath>
</defs>
</svg>
