<svg width="41" height="40" viewBox="0 0 41 40" fill="none" xmlns="http://www.w3.org/2000/svg">
<path fill-rule="evenodd" clip-rule="evenodd" d="M20.5 40C31.5457 40 40.5 31.0457 40.5 20C40.5 8.9543 31.5457 0 20.5 0C9.4543 0 0.5 8.9543 0.5 20C0.5 31.0457 9.4543 40 20.5 40Z" fill="#FFCC80"/>
<path d="M13.5 12.25C13.5 11.0074 14.5074 10 15.75 10H24.25C25.4926 10 26.5 11.0074 26.5 12.25V20H30V23.25C30 25.0449 28.5449 26.5 26.75 26.5H21.4236C21.4739 26.174 21.5 25.8401 21.5 25.5C21.5 25.3318 21.4936 25.165 21.4811 25H25V12.25C25 11.8358 24.6642 11.5 24.25 11.5H15.75C15.3358 11.5 15 11.8358 15 12.25V19C14.4837 19 13.9815 19.0602 13.5 19.1739V12.25ZM26.5 25H26.75C27.7165 25 28.5 24.2165 28.5 23.25V21.5H26.5V25ZM22.75 22.5H20.7678C20.4806 21.949 20.1168 21.4443 19.6904 21H22.75C23.1642 21 23.5 21.3358 23.5 21.75C23.5 22.1642 23.1642 22.5 22.75 22.5ZM16.5 14.75C16.5 14.3358 16.8358 14 17.25 14H22.75C23.1642 14 23.5 14.3358 23.5 14.75C23.5 15.1642 23.1642 15.5 22.75 15.5H17.25C16.8358 15.5 16.5 15.1642 16.5 14.75ZM16.5 18.25C16.5 17.8358 16.8358 17.5 17.25 17.5H22.75C23.1642 17.5 23.5 17.8358 23.5 18.25C23.5 18.6642 23.1642 19 22.75 19H17.25C16.8358 19 16.5 18.6642 16.5 18.25ZM15 20C18.0376 20 20.5 22.4624 20.5 25.5C20.5 28.5376 18.0376 31 15 31C11.9624 31 9.5 28.5376 9.5 25.5C9.5 22.4624 11.9624 20 15 20ZM13.5 22.9603V28.0397C13.5 28.4442 13.9553 28.6813 14.2867 28.4493L17.9148 25.9096C18.1992 25.7106 18.1992 25.2894 17.9148 25.0904L14.2867 22.5507C13.9553 22.3187 13.5 22.5558 13.5 22.9603Z" fill="white"/>
</svg>
