<svg width="41" height="40" viewBox="0 0 41 40" fill="none" xmlns="http://www.w3.org/2000/svg">
<path fill-rule="evenodd" clip-rule="evenodd" d="M20.5 40C31.5457 40 40.5 31.0457 40.5 20C40.5 8.9543 31.5457 0 20.5 0C9.4543 0 0.5 8.9543 0.5 20C0.5 31.0457 9.4543 40 20.5 40Z" fill="#F48FB1"/>
<path d="M27 28C27 28.275 26.776 28.5 26.5 28.5H21.5C21.5 29.0368 21.3792 29.5454 21.1632 30H26.5C27.604 30 28.5 29.104 28.5 28V17.828C28.5 17.298 28.289 16.789 27.914 16.414L22.085 10.586C22.07 10.571 22.0531 10.5581 22.0363 10.5452C22.0238 10.5357 22.0115 10.5262 22 10.516C21.929 10.452 21.859 10.389 21.781 10.336C21.7557 10.3189 21.7281 10.3055 21.7005 10.2921C21.6845 10.2843 21.6685 10.2765 21.653 10.268C21.6363 10.2586 21.6197 10.249 21.603 10.2393C21.5488 10.208 21.4944 10.1765 21.437 10.152C21.24 10.07 21.028 10.029 20.813 10.014C20.7933 10.0127 20.7738 10.0101 20.7542 10.0074C20.7271 10.0037 20.6999 10 20.672 10H14.5C13.396 10 12.5 10.896 12.5 12V19.0354C13.052 19.1144 13.5625 19.3222 14 19.6273V12C14 11.725 14.224 11.5 14.5 11.5H20.5V16C20.5 17.104 21.396 18 22.5 18H27V28ZM22 12.621L25.878 16.5H22.5C22.224 16.5 22 16.275 22 16V12.621ZM14.5 22.5C14.5 23.8807 13.3807 25 12 25C10.6193 25 9.5 23.8807 9.5 22.5C9.5 21.1193 10.6193 20 12 20C13.3807 20 14.5 21.1193 14.5 22.5ZM13 22.5C13 21.9477 12.5523 21.5 12 21.5C11.4477 21.5 11 21.9477 11 22.5C11 23.0523 11.4477 23.5 12 23.5C12.5523 23.5 13 23.0523 13 22.5ZM20.5 28.5C20.5 29.8807 19.3807 31 18 31C16.6193 31 15.5 29.8807 15.5 28.5C15.5 27.1193 16.6193 26 18 26C19.3807 26 20.5 27.1193 20.5 28.5ZM19 28.5C19 27.9477 18.5523 27.5 18 27.5C17.4477 27.5 17 27.9477 17 28.5C17 29.0523 17.4477 29.5 18 29.5C18.5523 29.5 19 29.0523 19 28.5ZM19.2803 21.2197C19.5732 21.5126 19.5732 21.9874 19.2803 22.2803L11.7803 29.7803C11.4874 30.0732 11.0126 30.0732 10.7197 29.7803C10.4268 29.4874 10.4268 29.0126 10.7197 28.7197L18.2197 21.2197C18.5126 20.9268 18.9874 20.9268 19.2803 21.2197Z" fill="white"/>
</svg>
