<svg width="41" height="40" viewBox="0 0 41 40" fill="none" xmlns="http://www.w3.org/2000/svg">
<path fill-rule="evenodd" clip-rule="evenodd" d="M20.5 40C31.5457 40 40.5 31.0457 40.5 20C40.5 8.9543 31.5457 0 20.5 0C9.4543 0 0.5 8.9543 0.5 20C0.5 31.0457 9.4543 40 20.5 40Z" fill="#CE93D8"/>
<path d="M14 12.25C14 11.8358 14.3358 11.5 14.75 11.5H20.5V16C20.5 17.1046 21.3954 18 22.5 18H27V27.75C27 28.1642 26.6642 28.5 26.25 28.5H21.5V30H26.25C27.4926 30 28.5 28.9926 28.5 27.75V17.6642C28.5 17.2001 28.3156 16.755 27.9874 16.4268L22.0732 10.5126C21.745 10.1844 21.2999 10 20.8358 10H14.75C13.5074 10 12.5 11.0074 12.5 12.25V20H14V12.25ZM22 16V12.5607L25.9393 16.5H22.5C22.2239 16.5 22 16.2761 22 16ZM13 21.75C13 22.1642 12.6642 22.5 12.25 22.5H11V29.5H12.25C12.6642 29.5 13 29.8358 13 30.25C13 30.6642 12.6642 31 12.25 31H11C10.1716 31 9.5 30.3284 9.5 29.5V22.5C9.5 21.6716 10.1716 21 11 21H12.25C12.6642 21 13 21.3358 13 21.75ZM17.75 22.5C17.3358 22.5 17 22.1642 17 21.75C17 21.3358 17.3358 21 17.75 21H19C19.8284 21 20.5 21.6716 20.5 22.5V29.5C20.5 30.3284 19.8284 31 19 31H17.75C17.3358 31 17 30.6642 17 30.25C17 29.8358 17.3358 29.5 17.75 29.5H19V22.5H17.75ZM15 24.75C15.4142 24.75 15.75 25.0858 15.75 25.5V29C15.75 29.4142 15.4142 29.75 15 29.75C14.5858 29.75 14.25 29.4142 14.25 29V25.5C14.25 25.0858 14.5858 24.75 15 24.75ZM15 24C15.4142 24 15.75 23.6642 15.75 23.25C15.75 22.8358 15.4142 22.5 15 22.5C14.5858 22.5 14.25 22.8358 14.25 23.25C14.25 23.6642 14.5858 24 15 24Z" fill="white"/>
</svg>
