<svg width="41" height="40" viewBox="0 0 41 40" fill="none" xmlns="http://www.w3.org/2000/svg">
<path fill-rule="evenodd" clip-rule="evenodd" d="M20.5 40C31.5457 40 40.5 31.0457 40.5 20C40.5 8.9543 31.5457 0 20.5 0C9.4543 0 0.5 8.9543 0.5 20C0.5 31.0457 9.4543 40 20.5 40Z" fill="#FFCC80"/>
<path d="M21.8136 15.5654L21.6775 15.6909L11.1981 26.1785C10.3121 27.0652 10.3126 28.5022 11.1992 29.3883C12.0858 30.2743 13.5228 30.2738 14.4089 29.3871L24.8879 18.9003C25.7654 18.0213 25.7651 16.5974 24.8868 15.7185L24.7304 15.5715C23.8931 14.8539 22.6533 14.8519 21.8136 15.5654ZM20.966 18.526L22.054 19.614L13.3479 28.3268C13.0474 28.6275 12.5602 28.6277 12.2596 28.3273C11.9589 28.0268 11.9587 27.5395 12.2592 27.2388L20.966 18.526ZM25.3518 23.0068L25.25 23C24.8703 23 24.5565 23.2822 24.5068 23.6482L24.5 23.75V24.5H23.75C23.3703 24.5 23.0565 24.7822 23.0068 25.1482L23 25.25C23 25.6297 23.2822 25.9435 23.6482 25.9932L23.75 26H24.5V26.75C24.5 27.1297 24.7822 27.4435 25.1482 27.4932L25.25 27.5C25.6297 27.5 25.9435 27.2178 25.9932 26.8518L26 26.75V26H26.75C27.1297 26 27.4435 25.7178 27.4932 25.3518L27.5 25.25C27.5 24.8703 27.2178 24.5565 26.8518 24.5068L26.75 24.5H26V23.75C26 23.3703 25.7178 23.0565 25.3518 23.0068L25.25 23L25.3518 23.0068ZM23.7987 16.7516L23.826 16.779C24.119 17.0721 24.1191 17.5473 23.8266 17.8403L23.115 18.553L22.026 17.464L22.7556 16.7347C23.0496 16.4587 23.5115 16.4643 23.7987 16.7516ZM15.3518 13.0068L15.25 13C14.8703 13 14.5565 13.2822 14.5068 13.6482L14.5 13.75V14.5H13.75C13.3703 14.5 13.0565 14.7822 13.0068 15.1482L13 15.25C13 15.6297 13.2822 15.9435 13.6482 15.9932L13.75 16H14.5V16.75C14.5 17.1297 14.7822 17.4435 15.1482 17.4932L15.25 17.5C15.6297 17.5 15.9435 17.2178 15.9932 16.8518L16 16.75V16H16.75C17.1297 16 17.4435 15.7178 17.4932 15.3518L17.5 15.25C17.5 14.8703 17.2178 14.5565 16.8518 14.5068L16.75 14.5H16V13.75C16 13.3703 15.7178 13.0565 15.3518 13.0068L15.25 13L15.3518 13.0068ZM27.3518 11.0068L27.25 11C26.8703 11 26.5565 11.2822 26.5068 11.6482L26.5 11.75V12.5H25.75C25.3703 12.5 25.0565 12.7822 25.0068 13.1482L25 13.25C25 13.6297 25.2822 13.9435 25.6482 13.9932L25.75 14H26.5V14.75C26.5 15.1297 26.7822 15.4435 27.1482 15.4932L27.25 15.5C27.6297 15.5 27.9435 15.2178 27.9932 14.8518L28 14.75V14H28.75C29.1297 14 29.4435 13.7178 29.4932 13.3518L29.5 13.25C29.5 12.8703 29.2178 12.5565 28.8518 12.5068L28.75 12.5H28V11.75C28 11.3703 27.7178 11.0565 27.3518 11.0068L27.25 11L27.3518 11.0068Z" fill="white"/>
</svg>
