<svg width="41" height="40" viewBox="0 0 41 40" fill="none" xmlns="http://www.w3.org/2000/svg">
<path fill-rule="evenodd" clip-rule="evenodd" d="M20.5 40C31.5457 40 40.5 31.0457 40.5 20C40.5 8.9543 31.5457 0 20.5 0C9.4543 0 0.5 8.9543 0.5 20C0.5 31.0457 9.4543 40 20.5 40Z" fill="#CE93D8"/>
<path d="M16 17C17.6569 17 19 15.6569 19 14C19 12.3431 17.6569 11 16 11C14.3431 11 13 12.3431 13 14C13 15.6569 14.3431 17 16 17ZM16 15.5C15.1716 15.5 14.5 14.8284 14.5 14C14.5 13.1716 15.1716 12.5 16 12.5C16.8284 12.5 17.5 13.1716 17.5 14C17.5 14.8284 16.8284 15.5 16 15.5ZM11.5 19.75C11.5 18.7835 12.2835 18 13.25 18H18.75C19.7165 18 20.5 18.7835 20.5 19.75V24.5C20.5 26.9853 18.4853 29 16 29C13.5147 29 11.5 26.9853 11.5 24.5V19.75ZM13.25 19.5C13.1119 19.5 13 19.6119 13 19.75V24.5C13 26.1569 14.3431 27.5 16 27.5C17.6569 27.5 19 26.1569 19 24.5V19.75C19 19.6119 18.8881 19.5 18.75 19.5H13.25ZM19.0273 16.6144C19.4623 16.8599 19.9647 17 20.4999 17C22.1567 17 23.4999 15.6569 23.4999 14C23.4999 12.3431 22.1567 11 20.4999 11C19.9647 11 19.4623 11.1401 19.0273 11.3856C19.3539 11.7635 19.6109 12.203 19.7785 12.6845C19.9925 12.5669 20.2384 12.5 20.4999 12.5C21.3283 12.5 21.9999 13.1716 21.9999 14C21.9999 14.8284 21.3283 15.5 20.4999 15.5C20.2384 15.5 19.9925 15.4331 19.7785 15.3155C19.6109 15.797 19.3539 16.2365 19.0273 16.6144ZM19.3602 28.8544C19.7242 28.9494 20.1061 29 20.4999 29C22.9851 29 24.9999 26.9853 24.9999 24.5V19.75C24.9999 18.7835 24.2164 18 23.2499 18H20.8713C21.2142 18.4152 21.4375 18.9328 21.4887 19.5H23.2499C23.3879 19.5 23.4999 19.6119 23.4999 19.75V24.5C23.4999 26.1194 22.2168 27.4391 20.6117 27.4979C20.2733 28.0175 19.8495 28.4763 19.3602 28.8544ZM23.5273 16.6144C23.9623 16.8599 24.4647 17 24.9999 17C26.6567 17 27.9999 15.6569 27.9999 14C27.9999 12.3431 26.6567 11 24.9999 11C24.4647 11 23.9623 11.1401 23.5273 11.3856C23.8539 11.7635 24.1109 12.203 24.2785 12.6845C24.4925 12.5669 24.7384 12.5 24.9999 12.5C25.8283 12.5 26.4999 13.1716 26.4999 14C26.4999 14.8284 25.8283 15.5 24.9999 15.5C24.7384 15.5 24.4925 15.4331 24.2785 15.3155C24.1109 15.797 23.8539 16.2365 23.5273 16.6144ZM23.8602 28.8544C24.2242 28.9494 24.6061 29 24.9999 29C27.4851 29 29.4999 26.9853 29.4999 24.5V19.75C29.4999 18.7835 28.7164 18 27.7499 18H25.3713C25.7142 18.4152 25.9375 18.9328 25.9887 19.5H27.7499C27.8879 19.5 27.9999 19.6119 27.9999 19.75V24.5C27.9999 26.1194 26.7168 27.4391 25.1117 27.4979C24.7733 28.0175 24.3495 28.4763 23.8602 28.8544Z" fill="white"/>
</svg>
