<svg width="41" height="40" viewBox="0 0 41 40" fill="none" xmlns="http://www.w3.org/2000/svg">
<path fill-rule="evenodd" clip-rule="evenodd" d="M20.5 40C31.5457 40 40.5 31.0457 40.5 20C40.5 8.9543 31.5457 0 20.5 0C9.4543 0 0.5 8.9543 0.5 20C0.5 31.0457 9.4543 40 20.5 40Z" fill="#EF9A9A"/>
<path d="M13.5 14.25C13.5 13.0074 14.5074 12 15.75 12H24.25C25.4926 12 26.5 13.0074 26.5 14.25V22H30V25.25C30 27.0449 28.5449 28.5 26.75 28.5H21.5V27H25V14.25C25 13.8358 24.6642 13.5 24.25 13.5H15.75C15.3358 13.5 15 13.8358 15 14.25V22H13.5V14.25ZM26.5 27H26.75C27.7165 27 28.5 26.2165 28.5 25.25V23.5H26.5V27ZM22.75 24.5L21.5 24.5C21.5 23.9372 21.314 23.4178 21.0002 23H22.75C23.1642 23 23.5 23.3358 23.5 23.75C23.5 24.1642 23.1642 24.5 22.75 24.5ZM16.5 16.75C16.5 16.3358 16.8358 16 17.25 16H22.75C23.1642 16 23.5 16.3358 23.5 16.75C23.5 17.1642 23.1642 17.5 22.75 17.5H17.25C16.8358 17.5 16.5 17.1642 16.5 16.75ZM16.5 20.25C16.5 19.8358 16.8358 19.5 17.25 19.5H22.75C23.1642 19.5 23.5 19.8358 23.5 20.25C23.5 20.6642 23.1642 21 22.75 21H17.25C16.8358 21 16.5 20.6642 16.5 20.25ZM9.5 24.5C9.5 23.6716 10.1716 23 11 23H19C19.8284 23 20.5 23.6716 20.5 24.5V28.5C20.5 29.3284 19.8284 30 19 30H11C10.1716 30 9.5 29.3284 9.5 28.5V24.5ZM19.5 25C18.9477 25 18.5 24.5523 18.5 24H17.5C17.5 25.1046 18.3954 26 19.5 26V25ZM19.5 27C18.3954 27 17.5 27.8954 17.5 29H18.5C18.5 28.4477 18.9477 28 19.5 28V27ZM11.5 24C11.5 24.5523 11.0523 25 10.5 25V26C11.6046 26 12.5 25.1046 12.5 24H11.5ZM12.5 29C12.5 27.8954 11.6046 27 10.5 27V28C11.0523 28 11.5 28.4477 11.5 29H12.5ZM16.75 26.5C16.75 25.5335 15.9665 24.75 15 24.75C14.0335 24.75 13.25 25.5335 13.25 26.5C13.25 27.4665 14.0335 28.25 15 28.25C15.9665 28.25 16.75 27.4665 16.75 26.5Z" fill="white"/>
</svg>
