<svg width="41" height="40" viewBox="0 0 41 40" fill="none" xmlns="http://www.w3.org/2000/svg">
<path fill-rule="evenodd" clip-rule="evenodd" d="M20.5 40C31.5457 40 40.5 31.0457 40.5 20C40.5 8.9543 31.5457 0 20.5 0C9.4543 0 0.5 8.9543 0.5 20C0.5 31.0457 9.4543 40 20.5 40Z" fill="#B39DDB"/>
<path d="M29.5 26.25C29.5 27.7688 28.2688 29 26.75 29L14.25 29C12.7312 29 11.5 27.7688 11.5 26.25L11.5 13.75C11.5 12.2312 12.7312 11 14.25 11L26.75 11C28.2688 11 29.5 12.2312 29.5 13.75L29.5 26.25ZM28 26.25L28 13.75C28 13.0596 27.4404 12.5 26.75 12.5L14.25 12.5C13.5596 12.5 13 13.0596 13 13.75L13 26.25C13 26.9404 13.5596 27.5 14.25 27.5L26.75 27.5C27.4404 27.5 28 26.9404 28 26.25ZM21 22.25L21 14.75L20.9932 14.6482C20.9435 14.2822 20.6297 14 20.25 14C19.8358 14 19.5 14.3358 19.5 14.75L19.5 22.25L19.5068 22.3518C19.5565 22.7178 19.8703 23 20.25 23C20.6642 23 21 22.6642 21 22.25ZM17 14.75L17 25.25C17 25.6642 16.6642 26 16.25 26C15.8703 26 15.5565 25.7178 15.5068 25.3518L15.5 25.25L15.5 14.75C15.5 14.3358 15.8358 14 16.25 14C16.6297 14 16.9435 14.2822 16.9932 14.6482L17 14.75ZM25 25.25L25 14.75L24.9932 14.6482C24.9435 14.2822 24.6297 14 24.25 14C23.8358 14 23.5 14.3358 23.5 14.75L23.5 25.25L23.5068 25.3518C23.5565 25.7178 23.8703 26 24.25 26C24.6642 26 25 25.6642 25 25.25Z" fill="white"/>
</svg>
