<svg width="41" height="40" viewBox="0 0 41 40" fill="none" xmlns="http://www.w3.org/2000/svg">
<path fill-rule="evenodd" clip-rule="evenodd" d="M20.5 40C31.5457 40 40.5 31.0457 40.5 20C40.5 8.9543 31.5457 0 20.5 0C9.4543 0 0.5 8.9543 0.5 20C0.5 31.0457 9.4543 40 20.5 40Z" fill="#80DEEA"/>
<path d="M14.5487 15.984C14.6957 15.5968 15.1287 15.4019 15.516 15.5489L20.5 17.4397L25.4839 15.5489C25.8712 15.4019 26.3043 15.5968 26.4512 15.984C26.5981 16.3713 26.4033 16.8044 26.016 16.9513L21.25 18.7595V21.0629C20.5577 21.8037 20.0366 22.7067 19.75 23.7086V18.7595L14.9839 16.9513C14.5966 16.8044 14.4018 16.3713 14.5487 15.984ZM29 15.1738V19.7322C29.551 20.0194 30.0557 20.3832 30.5 20.8096V15.1738C30.5 14.4612 30.0679 13.8197 29.4075 13.552L21.9089 10.512C21.0053 10.1457 19.9947 10.1457 19.0911 10.512L11.5925 13.552C10.9321 13.8197 10.5 14.4612 10.5 15.1738V24.8265C10.5 25.5391 10.9321 26.1806 11.5925 26.4483L19.0911 29.4883C19.7187 29.7427 20.398 29.8204 21.0572 29.7214C20.673 29.272 20.3491 28.7697 20.0979 28.2268C19.9472 28.1994 19.7987 28.1565 19.6547 28.0982L12.1561 25.0582C12.0617 25.0199 12 24.9283 12 24.8265V15.1738C12 15.072 12.0617 14.9804 12.1561 14.9421L19.6547 11.9021C20.1968 11.6824 20.8032 11.6824 21.3453 11.9021L28.8439 14.9421C28.9383 14.9804 29 15.072 29 15.1738ZM20.5 25.5C20.5 28.5376 22.9624 31 26 31C29.0376 31 31.5 28.5376 31.5 25.5C31.5 22.4624 29.0376 20 26 20C22.9624 20 20.5 22.4624 20.5 25.5ZM29 22C29.2761 22 29.5 22.2239 29.5 22.5V24.5C29.5 24.7761 29.2761 25 29 25H27C26.7239 25 26.5 24.7761 26.5 24.5C26.5 24.2239 26.7239 24 27 24H28.0003C27.5436 23.392 26.8174 23 26 23C25.1666 23 24.4283 23.4073 23.9733 24.036C23.8113 24.2597 23.4987 24.3098 23.275 24.1478C23.0514 23.9859 23.0013 23.6733 23.1632 23.4496C23.7982 22.5724 24.8323 22 26 22C26.9798 22 27.8651 22.4027 28.5 23.0506V22.5C28.5 22.2239 28.7239 22 29 22ZM23.5 27.9494V28.5C23.5 28.7761 23.2761 29 23 29C22.7239 29 22.5 28.7761 22.5 28.5V26.5C22.5 26.2239 22.7239 26 23 26H25C25.2761 26 25.5 26.2239 25.5 26.5C25.5 26.7761 25.2761 27 25 27H23.9998C24.4564 27.608 25.1827 28 26 28C26.7663 28 27.4518 27.6558 27.9112 27.1118C28.0893 26.9008 28.4048 26.8742 28.6158 27.0523C28.8268 27.2305 28.8534 27.546 28.6752 27.7569C28.034 28.5164 27.0732 29 26 29C25.0203 29 24.1349 28.5973 23.5 27.9494Z" fill="white"/>
</svg>
