<svg width="41" height="40" viewBox="0 0 41 40" fill="none" xmlns="http://www.w3.org/2000/svg">
<path fill-rule="evenodd" clip-rule="evenodd" d="M20.5 40C31.5457 40 40.5 31.0457 40.5 20C40.5 8.9543 31.5457 0 20.5 0C9.4543 0 0.5 8.9543 0.5 20C0.5 31.0457 9.4543 40 20.5 40Z" fill="#A5D6A7"/>
<path d="M19 16C17.3431 16 16 17.3431 16 19C16 20.6569 17.3431 22 19 22C20.6569 22 22 20.6569 22 19C22 17.3431 20.6569 16 19 16ZM17.5 19C17.5 18.1716 18.1716 17.5 19 17.5C19.8284 17.5 20.5 18.1716 20.5 19C20.5 19.8284 19.8284 20.5 19 20.5C18.1716 20.5 17.5 19.8284 17.5 19ZM10.5 15.25C10.5 14.0074 11.5074 13 12.75 13H25.25C26.4926 13 27.5 14.0074 27.5 15.25V22.75C27.5 23.9926 26.4926 25 25.25 25H12.75C11.5074 25 10.5 23.9926 10.5 22.75V15.25ZM12.75 14.5C12.3358 14.5 12 14.8358 12 15.25V16H12.75C13.1642 16 13.5 15.6642 13.5 15.25V14.5H12.75ZM12 20.5H12.75C13.9926 20.5 15 21.5074 15 22.75V23.5H23V22.75C23 21.5074 24.0074 20.5 25.25 20.5H26V17.5H25.25C24.0074 17.5 23 16.4926 23 15.25V14.5H15V15.25C15 16.4926 13.9926 17.5 12.75 17.5H12V20.5ZM26 16V15.25C26 14.8358 25.6642 14.5 25.25 14.5H24.5V15.25C24.5 15.6642 24.8358 16 25.25 16H26ZM26 22H25.25C24.8358 22 24.5 22.3358 24.5 22.75V23.5H25.25C25.6642 23.5 26 23.1642 26 22.75V22ZM12 22.75C12 23.1642 12.3358 23.5 12.75 23.5H13.5V22.75C13.5 22.3358 13.1642 22 12.75 22H12V22.75ZM12.9014 26.5C13.4201 27.3967 14.3896 28 15.5 28H25.75C28.3734 28 30.5 25.8734 30.5 23.25V18C30.5 16.8896 29.8967 15.9201 29 15.4014V23.25C29 25.0449 27.5449 26.5 25.75 26.5H12.9014Z" fill="white"/>
</svg>
