<?xml version="1.0" encoding="utf-8"?>
<!-- Generator: Adobe Illustrator 24.0.1, SVG Export Plug-In . SVG Version: 6.00 Build 0)  -->
<svg version="1.1" id="Layer_1" xmlns="http://www.w3.org/2000/svg" xmlns:xlink="http://www.w3.org/1999/xlink" x="0px" y="0px"
	 viewBox="0 0 502.96 102.48" style="enable-background:new 0 0 502.96 102.48;" xml:space="preserve">
<style type="text/css">
	.st0{fill:#6B2F17;}
	.st1{fill:#FFFFFF;}
	.st2{fill:#E42027;}
</style>
<g>
	<g>
		<path class="st0" d="M102.49,51.24c0,28.3-22.94,51.24-51.24,51.24C22.94,102.48,0,79.54,0,51.24C0,22.94,22.94,0,51.24,0
			C79.55,0,102.49,22.94,102.49,51.24"/>
		<path class="st1" d="M99.7,51.24C99.7,78.01,78,99.7,51.24,99.7c-26.76,0-48.46-21.69-48.46-48.46S24.48,2.79,51.24,2.79
			C78,2.79,99.7,24.48,99.7,51.24"/>
		<path class="st2" d="M34.8,9.15c9.62,6.93,14.81,14.76,12.6,20.63c-1.66,4.4-7.2,6.88-14.85,7.35h0
			c23.1,10.21,37.37,28.12,33.18,43.77c-1.75,6.52-6.46,11.78-13.19,15.5l0,0c-0.43,0.01-0.86,0.02-1.29,0.02
			c-24.95,0-45.17-20.22-45.17-45.18C6.07,32.1,17.98,15.73,34.8,9.15"/>
		<path class="st0" d="M96.42,51.24c0,14.5-6.83,27.4-17.45,35.67c1.78-2.18,3.08-4.63,3.8-7.32c3.95-14.75-10.7-31.82-33.7-40.78
			c7.29-1.16,12.34-3.97,13.81-8.36c2.31-6.92-4.81-16.04-17.42-24.03c1.89-0.24,3.82-0.36,5.77-0.36
			C76.19,6.07,96.42,26.29,96.42,51.24"/>
	</g>
	<g>
		<path class="st2" d="M279.45,17.26c-6.44-5.4-14.14-7.86-22.76-7.23c-7.12,0.51-13.21,3.59-17.89,8.94
			c-2.57-2.96-5.55-4.69-7.8-5.65c-4.28-1.82-9.96-2.54-17.59-2.24c-8.44,0.34-14.17,0.89-18.01,1.75
			c-1.09,0.25-2.12,0.67-3.06,1.24c-3.83-1.84-7.66-1.85-9.22-1.85c-2,0-3.92,0.17-5.79,0.34l-5.57,0.12
			c-2.92,0.06-6.3,1.06-9.09,2.89c-1.55-1.11-3.08-1.9-4.36-2.43c-4.3-1.78-9.96-2.42-17.54-2.01c-8.37,0.45-14.04,1.09-17.85,2
			c-2.26,0.54-4.27,1.85-5.68,3.7l-1.46,1.9c-1,1.31-1.66,2.84-1.94,4.46c-0.48,2.79-0.59,6.09-0.34,10.09l0.47,8.73
			c0.24,3.88,0.36,6.64,0.37,8.2c0.01,1.08-0.06,3.72-0.41,10.17c-0.26,4.88-0.31,8.77-0.14,11.86c0.35,6.46,2.04,11.2,5.2,14.55
			c2.04,2.14,5.76,4.69,11.88,4.69c0.41,0,0.83-0.01,1.25-0.03l0.72-0.05c2.55-0.12,6.82-0.34,10.4-1.02
			c5.76-1.13,6.96-1.3,7.09-1.32c0.08-0.01,0.16-0.02,0.25-0.04c4.04-0.57,7.52-1.4,10.51-2.52c2.35,2.57,5.66,4,9.42,4
			c1.39,0,2.62-0.2,3.49-0.39l2.48-0.34c0.44-0.02,0.88-0.07,1.31-0.1c0.61-0.06,1.24-0.12,1.74-0.12c0.08,0,0.15,0,0.28,0.01
			c0.83,0.04,1.64,0.07,2.49,0.07c0.82,0,1.52-0.02,2.1-0.04l0.51-0.02c2.89-0.05,5.4-0.48,7.6-1.29c2.22,1.61,5.46,3,10.05,3
			c0.3,0,0.62-0.01,0.94-0.02c2.6-0.1,5.66-0.47,9.41-1.12c5.7-1.02,6.98-1.2,7.18-1.22c0.08-0.01,0.17-0.02,0.25-0.03
			c7.43-0.92,13.03-2.75,17.11-5.58c0.92-0.64,1.87-1.41,2.8-2.3c0.17,0.18,0.33,0.36,0.5,0.53c5.82,5.93,12.24,8.93,19.08,8.93
			c0.54,0,1.1-0.02,1.64-0.06c5.8-0.42,11.81-2.94,16.5-6.92c12.33-10.48,14.56-27.45,14.96-34.27
			C293.66,36.5,288.88,25.15,279.45,17.26"/>
		<path class="st1" d="M190.67,68.19l-3.89-0.55c-1.3-2.26-1.04-11.4-2.11-27.35c-0.47-7.12,1.51-7.66,2.83-7.89
			c1.34-0.24,2.09-0.24,2.6-0.82c0.74-0.79,1.06-1.99,1.09-3.59c0.16-9.52-7.23-8.58-14.68-7.94l-6.02,0.12
			c-2.16,0.04-4.77,1.51-5.1,2.38c-1.15,3.07-1.24,5-1.23,5.83c0.01,1.23,0.3,2.28,0.88,3.14c0.58,0.86,1.21,1.29,1.89,1.27
			c0.3,0,0.76-0.01,1.39-0.03c0.74-0.06,1.21-0.07,1.43-0.03c0.46,0.1,0.86,0.37,1.19,0.83c0.47,4.8,0.71,9.7,0.72,14.71
			l-0.01,16.65c0.01,1.86-0.56,3.04-1.7,3.52c-1.5,0.6-2.54,1.01-3.15,1.23c-1.14,0.43-1.71,1.47-1.7,3.13
			c0.02,2.94,0.92,6.95,1.65,7.87c1.15,1.42,3.88,0.6,3.88,0.6l3.7-0.51c1.09-0.02,3.11-0.37,5.14-0.25c2.16,0.12,3.7,0.02,4.68,0
			c2.7-0.05,4.7-0.52,6.01-1.43c2.2-1.49,2.85-3.74,2.81-7.82C192.97,69.7,192.2,68.68,190.67,68.19"/>
		<path class="st1" d="M164.42,62.12c-0.14-3.45-1.05-6.78-2.73-10.01c-1.37-2.64-3.1-4.95-5.2-6.92c3.39-5.23,5.04-9.22,4.93-11.96
			c-0.24-6.03-2.68-10.04-7.32-12c-2.92-1.23-7.48-1.73-13.69-1.48c-7.91,0.31-13.51,0.83-16.78,1.56
			c-0.99,0.23-1.35,0.94-1.55,1.93c-0.39,2.07-0.5,4.74-0.34,8.03l0.36,8.98c0.2,4.19,0.28,7.2,0.27,9.02
			c-0.02,1.82-0.22,5.52-0.61,11.08c-0.31,4.61-0.42,8.31-0.3,11.11c0.16,4.04,0.96,6.83,2.4,8.37c1.13,1.2,2.96,1.76,5.47,1.66
			c2.19-0.09,4.97-0.42,8.31-1c4.68-0.84,7.43-1.3,8.25-1.38c5.92-0.73,10.25-2.06,13.03-3.96
			C162.83,72.45,164.66,68.11,164.42,62.12 M136.31,41.49l-0.27-6.74c0.97-0.58,1.94-0.9,2.91-0.93c1.14-0.04,2.45,0.13,3.93,0.52
			c1.96,0.52,2.95,1.17,2.97,1.96c0.08,1.83-0.92,3.25-2.99,4.27c-1.52,0.75-3.25,1.17-5.18,1.25l-1.05,0.04L136.31,41.49z
			 M146.09,65.32c-1.96,0.92-3.99,1.43-6.09,1.51c-0.5,0.02-1.22-0.12-2.17-0.44l-0.19-2.54l-0.11-2.77c-0.08-2-0.02-3.68,0.15-5.02
			c1.14-0.8,2.85-1.24,5.13-1.33c1.22-0.05,2.59,0.4,4.1,1.34c1.83,1.13,2.78,2.59,2.86,4.39C149.84,62.5,148.62,64.12,146.09,65.32
			"/>
		<path class="st1" d="M237.52,62.12c-0.14-3.45-1.05-6.78-2.73-10.01c-1.36-2.64-3.1-4.95-5.2-6.92c3.4-5.23,5.04-9.22,4.93-11.96
			c-0.24-6.03-2.68-10.04-7.32-12c-2.91-1.23-7.48-1.73-13.7-1.48c-7.91,0.31-13.51,0.83-16.78,1.56c-0.99,0.23-1.35,0.94-1.54,1.93
			c-0.39,2.07-0.5,4.74-0.34,8.03l0.36,8.98c0.19,4.19,0.28,7.2,0.27,9.02c-0.02,1.82-0.22,5.52-0.61,11.08
			c-0.31,4.61-0.42,8.31-0.3,11.11c0.16,4.04,0.96,6.83,2.4,8.37c1.13,1.2,2.95,1.76,5.47,1.66c2.19-0.09,4.96-0.42,8.31-1
			c4.68-0.84,7.43-1.3,8.25-1.38c5.91-0.73,10.26-2.06,13.02-3.96C235.93,72.45,237.75,68.11,237.52,62.12 M209.41,41.49l-0.27-6.74
			c0.97-0.58,1.94-0.9,2.9-0.93c1.14-0.04,2.45,0.13,3.94,0.52c1.95,0.52,2.94,1.17,2.97,1.96c0.07,1.83-0.92,3.25-3,4.27
			c-1.52,0.75-3.25,1.17-5.18,1.25l-1.05,0.04L209.41,41.49z M219.18,65.32c-1.95,0.92-3.99,1.43-6.09,1.51
			c-0.49,0.02-1.22-0.12-2.17-0.44l-0.19-2.54l-0.12-2.77c-0.08-2-0.03-3.68,0.15-5.02c1.14-0.8,2.85-1.24,5.13-1.33
			c1.23-0.05,2.59,0.4,4.1,1.34c1.83,1.13,2.78,2.59,2.85,4.39C222.94,62.5,221.71,64.12,219.18,65.32"/>
		<path class="st1" d="M273.24,24.78c-4.62-3.77-10.13-5.47-16.38-5.03c-5.92,0.42-10.66,3.41-14.05,8.9
			c-3.87,6.27-5.41,15.12-4.58,26.31c0.63,8.52,3.54,15.4,8.63,20.47c4.06,4.02,8.28,6.06,12.55,6.06c0.32,0,0.64-0.02,0.95-0.04
			c3.85-0.27,8.07-2.01,11.28-4.67c10.12-8.37,11.75-23.38,12.01-27.78C284.43,35.94,277.46,28.21,273.24,24.78 M262.55,66.63
			c-3.54,0.9-6.43-2.82-7.85-5.11c-1.84-2.97-3.16-7.25-3.45-11.15C251,47,252.13,34,258.27,32.6c0.8-0.18,1.57-0.28,2.3-0.28
			c1.61,0,3.04,0.44,4.27,1.33c2.88,2.06,4.64,6.46,5.11,12.74C270.44,52.86,268.37,65.15,262.55,66.63"/>
		<path class="st2" d="M502.95,25.9c-0.23-6.3-2.53-11.77-7.76-14.36c-2.27-1.13-4.84-1.64-8.12-1.64c-3.85,0-8.6,1.88-12.85,2.58
			c-1.72,0.29-3.36,0.56-4.71,0.74c-0.86,0.11-1.65,0.16-2.43,0.16c-1.18,0-2.11-0.13-3.09-0.26c-0.96-0.13-2.05-0.28-3.27-0.28
			c-1.22,0-2.35,0.15-3.47,0.45c-2.74,0.74-5.13,1.89-7.13,3.35c-1.94-1.57-4.17-2.89-6.72-3.96c-4.01-1.69-7.62-2.74-13.18-2.74
			c-0.92,0-1.88,0.03-2.94,0.09c-1.22,0.06-2.69,0.25-4.67,0.59c-1.64,0.28-2.21,0.31-2.23,0.31c-1.06,0.06-4.54,0.33-7.08,0.87
			c-0.23,0.03-0.5,0.05-0.8,0.09c-3.12,0.32-6.93,0.71-10.01,3.22c-3.01-3.42-6.51-5.15-10.42-5.17h-0.15
			c-7.19,0-12.79,1.92-16.66,5.73c-1.46,1.43-2.85,3.11-4.44,6.65c-0.63-2.07-1.43-3.89-2.43-5.5c-1.75-2.85-5.39-6.18-12.82-6.18
			c-1.26,0-2.31,0.09-2.87,0.15c-2.34,0.19-4.36,0.52-6.18,1.02c-3.98,1.04-7.32,3.64-9.99,7.76c-3.22-5.32-7.21-8.88-12.82-8.93
			h-0.23c-8.26,0-14.96,4.02-18.42,11.04c-2.07,4.23-3.07,9.8-3.13,17.51c-0.05,6.02,0.03,12.92,0.26,20.53
			c0.4,13.91,1.15,18.62,1.76,21.16c0.57,2.35,1.93,4.42,3.86,5.88c3.17,2.38,7.01,3.66,11.1,3.7c1.93,0.02,3.85-0.39,6.06-1.22
			l2.37-0.87c1.48-0.56,2.82-1.44,3.91-2.59c1.58-1.65,3.53-4,4.51-6.98c1.33-0.1,2.56-0.28,3.7-0.54c0.18,0.67,0.38,1.3,0.6,1.92
			c2.45,6.95,7.78,11.13,14.26,11.19h0.12c1.93,0,4.39-0.39,7-1.77c3.77,2.24,7.83,2.56,9.76,2.57c6.32,0,9.63-2.53,12.04-5.02
			c1.78-1.82,3.1-4.2,4.41-8.09c0.63,1.32,1.2,2.59,1.63,3.51c0.98,2.14,1.21,2.65,1.8,3.52c4.41,6.47,9.92,7.45,12.81,7.46h0.09
			c3.81,0,7.17-0.97,9.91-2.72c2.45,1.32,5.24,2.03,8.21,2.03c0.33,0,0.67-0.01,1.02-0.03c5.41-0.29,9.9-3.42,12.37-8.48
			c4.46,3.99,9.77,7.02,15.85,7.17c4.3,0.15,7.92-1.28,10.71-3.61c3.53,2.49,8.17,3.65,12.2,3.65c0.55,0,1.09-0.02,1.62-0.07
			c13-1.04,17.61-9.83,17.58-17.71c-0.02-5.1-0.95-8.71-1.7-11.62c-0.28-1.09-0.52-2.03-0.71-2.99c-0.09-0.48-0.29-1.46-0.55-2.69
			c-0.45-2.17-1.63-7.9-1.82-9.22c-0.05-0.5-0.08-0.94-0.09-1.33c3.01-0.55,5.4-1.5,7.41-2.92
			C502.85,38.06,503.05,28.66,502.95,25.9"/>
		<path class="st1" d="M363.44,55.76c-0.23-2.55-0.34-4.46-0.33-5.72c0.01-1.52,0.1-3.77,0.25-6.74c0.14-2.97,0.23-5.22,0.24-6.74
			c0.06-7.24-0.83-12.34-2.68-15.28c-1.11-1.87-6.17-1.2-6.17-1.2c-1.88,0.14-3.48,0.39-4.78,0.75c-2.19,0.56-4.14,2.83-5.86,6.81
			c-0.57,1.31-1.84,5.11-3.83,11.4c-1.4,4.41-2.65,7.08-3.76,8.02c-1.67-4.59-2.83-7.76-3.44-9.49
			c-4.27-11.71-7.65-17.58-10.14-17.6c-4.67-0.04-7.92,1.8-9.76,5.52c-1.4,2.88-2.14,7.48-2.19,13.78
			c-0.05,6.26,0.04,13.36,0.27,21.3c0.3,10.31,0.82,17.02,1.57,20.13c1.48,1.12,3.22,1.68,5.21,1.71c0.58,0,1.42-0.2,2.5-0.61
			l2.5-0.93c1.59-1.67,2.39-2.95,2.4-3.84c0.02-2.48-0.27-6.15-0.84-11.02c-0.58-4.87-0.85-8.54-0.83-11.01
			c0-0.58,0.1-2.31,0.29-5.2c2.31,7.28,3.57,11.18,3.76,11.71c2.14,5.75,3.95,8.63,5.44,8.64c4.56,0.04,7.78-1.24,9.65-3.86
			c0.81-1.1,1.75-3.9,2.81-8.42c1.03-4.3,2.15-7.1,3.35-8.41c0.35,1.26,0.52,2.82,0.5,4.66c-0.01,1.26-0.08,3.15-0.19,5.67
			c-0.12,2.53-0.18,4.42-0.2,5.68c-0.1,11.88,2.01,17.85,6.32,17.89c1.77,0.01,3.52-1.05,5.25-3.19c1.93-2.4,2.91-5.21,2.93-8.41
			l0.09-10.26C363.77,60.22,363.66,58.31,363.44,55.76"/>
		<path class="st1" d="M402.68,51.17c-4.22-17.02-6.38-27.4-7.07-28.35c-1.33-1.91-2.55-2.87-3.63-2.88
			c-4.49-0.01-7.68,0.9-9.56,2.75c-1.22,1.21-3.67,3.55-9.13,27.28c-3.79,16.53-8.84,23.01-8.99,27.02c-0.14,4,4.15,4.99,6.58,5
			c2.69,0.01,3.53-0.68,4.69-1.9c0.79-0.8,1.7-2.94,2.71-6.42c0.91-3.14,3.53-4.35,4.55-4.62c1.75-0.47,3.76-0.97,5.21-0.96
			c2.96,0.01,4.71-0.64,6.4,1.47c2.04,3.73,4.99,10.52,5.23,10.87c1.34,1.97,2.77,2.95,4.31,2.96c4.86,0.02,7.3-2.59,7.32-7.81
			C411.31,74.17,406.06,64.82,402.68,51.17 M392.23,55.87c0,0-5.73-0.03-8.85,0.89c-2.66,0.78-0.6-4.29,0.8-8.55
			c1.36-4.15,2.22-8.51,3.37-8.95C388.61,39.98,393.79,55.31,392.23,55.87"/>
		<path class="st1" d="M452.19,67.94c-1.31-0.52-3.91-2.22-4.79-3.16c-1.82-1.97-6.56-7.56-6.63-8.99
			c-0.02-0.42,2.22-1.12,3.44-2.93c3.44-5.17,6.11-9.27,5.29-16.32c-0.88-7.63-3.66-12-9.97-14.64c-3.69-1.56-6.21-2.19-11.79-1.89
			c-0.8,0.05-1.97,0.2-3.53,0.47c-1.55,0.26-2.72,0.43-3.52,0.47c-1.3,0.06-4.2,0.35-5.74,0.7c-1.21,0.27-5.66,0.38-6.5,1.3
			c-1.57,1.69-1.95,9.11-0.65,11.07c0.56,0.84,3.81,1.39,3.77,2.74c-0.17,6.92,0.16,12.84,1.01,28.92
			c0.32,6.13,1.26,10.66,2.82,13.57c1.55,2.92,3.88,4.29,6.98,4.13c1.89-0.1,3.24-1.34,4.05-3.71c0.58-1.68,0.92-4.07,1.02-7.21
			c0.04-1.33-0.44-9.53-0.44-10.93c0-1.4,2.25-1.46,2.25-1.46c0.96-0.05,11.55,21.75,22.81,21.97c4.47,0.2,6.48-4.37,6.56-7.22
			C458.69,72.77,457.2,70.41,452.19,67.94 M426.79,47.53c-0.4,0.02-0.77-0.09-1.1-0.35c-1-3.87-0.84-7.08-0.96-9.27
			c-0.05-0.94,0.01-1.75,0.19-2.44c0.56-0.03,0.66,0.05,1.75-0.12c1.09-0.16,1.91-0.26,2.47-0.29c1.65-0.09,3.12,0.25,4.38,1.02
			c1.82,1.11,2.8,2.97,2.94,5.58C435.62,45.28,432.39,47.22,426.79,47.53"/>
		<path class="st1" d="M493.77,25.08c-0.12-3.17-0.98-3.79-2.48-4.53c-3.49-1.73-13.92,0.75-20.59,1.6
			c-6.65,0.87-11.33-0.69-13.07-0.21c-4.78,1.29-7.11,4.19-7.01,8.69c0.05,1.77,0.37,2.95,1,3.52c0.31,0.31,0.82,1.54,2.01,1.7
			c1.2,0.16,6.9-0.5,7.54-0.52c1.41-0.03,2.45,0.38,3.11,1.22c0.77,1,1.19,2.81,1.25,5.44c0.55,23.76-2.67,30.92,1.09,38.42
			c0.9,1.8,5.2,3.21,8.52,2.94c6.17-0.49,8.53-3.31,8.51-7.78c-0.02-5.79-1.5-8.99-2.36-13.43c-0.37-1.9-2.47-11.67-2.66-13.59
			c-0.63-6.24,0.78-9.01,1.51-10.64c0.55-1.22,2.6-2.32,4.9-2.48c2.83-0.22,4.79-0.73,5.88-1.5
			C492.93,32.47,493.9,28.59,493.77,25.08"/>
	</g>
</g>
</svg>
