<svg width="24" height="24" viewBox="0 0 24 24" fill="none" xmlns="http://www.w3.org/2000/svg">
<path d="M16.875 0.75C13.9875 0.75 11.0775 1.395 10.5825 2.625H1.87504C1.57695 2.62589 1.29132 2.7447 1.08053 2.95549C0.869744 3.16627 0.750932 3.45191 0.750041 3.75V12.75C0.750932 13.0481 0.869744 13.3337 1.08053 13.5445C1.29132 13.7553 1.57695 13.8741 1.87504 13.875H2.25004V17.5538L0.776291 21.2363C0.758242 21.2802 0.749312 21.3275 0.750041 21.375V22.5C0.750635 22.6987 0.829843 22.8892 0.970367 23.0297C1.11089 23.1702 1.30131 23.2494 1.50004 23.25H15.75C15.9488 23.2494 16.1392 23.1702 16.2797 23.0297C16.4202 22.8892 16.4994 22.6987 16.5 22.5V21.375C16.5008 21.3275 16.4918 21.2802 16.4738 21.2363L15 17.5538V17.1487C15.6228 17.2152 16.2487 17.249 16.875 17.25C20.0438 17.25 23.25 16.4775 23.25 15V3C23.25 1.5225 20.0438 0.75 16.875 0.75ZM1.50004 3.75C1.50004 3.65054 1.53955 3.55516 1.60988 3.48484C1.6802 3.41451 1.77559 3.375 1.87504 3.375H12.375C12.4745 3.375 12.5699 3.41451 12.6402 3.48484C12.7105 3.55516 12.75 3.65054 12.75 3.75V5.625H1.50004V3.75ZM1.87504 13.125C1.77559 13.125 1.6802 13.0855 1.60988 13.0152C1.53955 12.9448 1.50004 12.8495 1.50004 12.75V6.375H12.75V9H10.5V9.75H13.875C13.9745 9.75 14.0699 9.78951 14.1402 9.85983C14.2105 9.93016 14.25 10.0255 14.25 10.125V17.25H3.00004V10.125C3.00004 10.0255 3.03955 9.93016 3.10988 9.85983C3.1802 9.78951 3.27559 9.75 3.37504 9.75H6.75004V9H3.37504C3.07695 9.00089 2.79132 9.1197 2.58053 9.33049C2.36974 9.54127 2.25093 9.82691 2.25004 10.125V13.125H1.87504ZM15.75 22.5H1.50004V21.75H15.75V22.5ZM6.85504 21L7.04254 20.25H10.2075L10.395 21H6.85504ZM15.57 21H11.1675L10.8638 19.785C10.8437 19.7037 10.797 19.6315 10.731 19.5798C10.6651 19.5282 10.5838 19.5001 10.5 19.5H6.75004C6.66629 19.5001 6.58498 19.5282 6.51905 19.5798C6.45313 19.6315 6.40639 19.7037 6.38629 19.785L6.08254 21H1.68004L2.88004 18H14.37L15.57 21ZM22.5 15C22.5 15.6112 20.31 16.5 16.875 16.5C16.2487 16.499 15.6228 16.4652 15 16.3987V14.1487C15.6228 14.2152 16.2487 14.249 16.875 14.25C19.1138 14.25 21.3675 13.8638 22.5 13.1138V15ZM22.5 12C22.5 12.6112 20.31 13.5 16.875 13.5C16.2487 13.499 15.6228 13.4652 15 13.3987V11.1487C15.6228 11.2152 16.2487 11.249 16.875 11.25C19.1138 11.25 21.3675 10.8637 22.5 10.1137V12ZM22.5 9C22.5 9.61125 20.31 10.5 16.875 10.5C16.2487 10.499 15.6228 10.4652 15 10.3987V10.125C14.9992 9.82691 14.8803 9.54127 14.6696 9.33049C14.4588 9.1197 14.1731 9.00089 13.875 9H13.5V7.9275C14.6115 8.14706 15.7421 8.2551 16.875 8.25C19.1138 8.25 21.3675 7.86375 22.5 7.11375V9ZM22.5 6C22.5 6.61125 20.31 7.5 16.875 7.5C15.7415 7.50614 14.6104 7.39429 13.5 7.16625V4.9275C14.6115 5.14706 15.7421 5.2551 16.875 5.25C19.1138 5.25 21.3675 4.86375 22.5 4.11375V6ZM16.875 4.5C15.7415 4.50614 14.6104 4.39429 13.5 4.16625V3.75C13.4992 3.45191 13.3803 3.16627 13.1696 2.95549C12.9588 2.7447 12.6731 2.62589 12.375 2.625H11.4863C12.1388 2.08125 14.1 1.5 16.875 1.5C20.31 1.5 22.5 2.38875 22.5 3C22.5 3.61125 20.31 4.5 16.875 4.5Z" fill="black"/>
<path d="M21.75 5.25H21V6H21.75V5.25Z" fill="black"/>
<path d="M20.25 5.625H19.5V6.375H20.25V5.625Z" fill="black"/>
<path d="M18.75 6H18V6.75H18.75V6Z" fill="black"/>
<path d="M21.75 8.25H21V9H21.75V8.25Z" fill="black"/>
<path d="M20.25 8.625H19.5V9.375H20.25V8.625Z" fill="black"/>
<path d="M18.75 9H18V9.75H18.75V9Z" fill="black"/>
<path d="M21.75 11.25H21V12H21.75V11.25Z" fill="black"/>
<path d="M20.25 11.625H19.5V12.375H20.25V11.625Z" fill="black"/>
<path d="M18.75 12H18V12.75H18.75V12Z" fill="black"/>
<path d="M21.75 14.25H21V15H21.75V14.25Z" fill="black"/>
<path d="M20.25 14.625H19.5V15.375H20.25V14.625Z" fill="black"/>
<path d="M18.75 15H18V15.75H18.75V15Z" fill="black"/>
<path d="M19.125 2.625H14.625V3.375H19.125V2.625Z" fill="black"/>
<path d="M3 4.125H2.25V4.875H3V4.125Z" fill="black"/>
<path d="M4.5 4.125H3.75V4.875H4.5V4.125Z" fill="black"/>
<path d="M6 4.125H5.25V4.875H6V4.125Z" fill="black"/>
<path d="M10.4138 13.1175L9.7125 12.6525C9.97679 12.3756 10.1245 12.0078 10.125 11.625V11.25H10.5V10.5H10.125C10.1239 10.1683 10.0129 9.84629 9.80937 9.58438C9.60581 9.32247 9.32118 9.13543 9 9.0525V8.625H8.25V9.0525C7.92882 9.13543 7.64419 9.32247 7.44063 9.58438C7.23708 9.84629 7.12608 10.1683 7.125 10.5H6.75V11.25H7.125V11.625C7.12552 12.0078 7.27321 12.3756 7.5375 12.6525L6.83625 13.1175C6.57888 13.2882 6.36781 13.5201 6.22188 13.7923C6.07596 14.0645 5.99973 14.3686 6 14.6775V15.375C6 15.4745 6.03951 15.5698 6.10984 15.6402C6.18016 15.7105 6.27554 15.75 6.375 15.75H10.875C10.9745 15.75 11.0698 15.7105 11.1402 15.6402C11.2105 15.5698 11.25 15.4745 11.25 15.375V14.6775C11.2503 14.3686 11.174 14.0645 11.0281 13.7923C10.8822 13.5201 10.6711 13.2882 10.4138 13.1175ZM9 9.855C9.11335 9.92044 9.20761 10.0144 9.2734 10.1276C9.33918 10.2407 9.37421 10.3691 9.375 10.5H9V9.855ZM8.25 9.855V10.5H7.875C7.87579 10.3691 7.91082 10.2407 7.97661 10.1276C8.04239 10.0144 8.13665 9.92044 8.25 9.855ZM7.875 11.25H9.375V11.625C9.375 11.8239 9.29598 12.0147 9.15533 12.1553C9.01468 12.296 8.82391 12.375 8.625 12.375C8.42609 12.375 8.23532 12.296 8.09467 12.1553C7.95402 12.0147 7.875 11.8239 7.875 11.625V11.25ZM9.1125 13.1512L8.625 13.6912L8.1375 13.1512L8.25375 13.0725C8.4963 13.1425 8.7537 13.1425 8.99625 13.0725L9.1125 13.1512ZM10.5 15H6.75V14.6775C6.75013 14.4919 6.79606 14.3093 6.88372 14.1458C6.97138 13.9822 7.09805 13.8428 7.2525 13.74L7.5075 13.5712L8.3475 14.5012C8.38249 14.5402 8.42528 14.5713 8.47309 14.5926C8.5209 14.6139 8.57266 14.6249 8.625 14.6249C8.67734 14.6249 8.7291 14.6139 8.77691 14.5926C8.82472 14.5713 8.86751 14.5402 8.9025 14.5012L9.7425 13.5712L9.9975 13.74C10.1519 13.8428 10.2786 13.9822 10.3663 14.1458C10.4539 14.3093 10.4999 14.4919 10.5 14.6775V15Z" fill="black"/>
</svg>
