<svg width="24" height="24" viewBox="0 0 24 24" fill="none" xmlns="http://www.w3.org/2000/svg">
<g clip-path="url(#clip0_390_4836)">
<path d="M23.4749 13.1813C22.7512 12.345 21.5437 12.2813 21.5362 12.2925C21.4537 12.2813 21.3787 12.2663 21.3149 12.2438C21.3149 12.2438 21.3112 12.2438 21.3112 12.24C21.0899 12.1688 20.9849 12.0563 20.9849 11.8913C21.8362 11.0888 21.9562 9.81375 21.9599 9.765C21.9937 9.48 21.9974 9.21375 21.9712 8.985C21.8249 7.3125 20.4337 6.92625 19.7512 6.945C19.7137 6.945 18.7912 6.91875 18.1274 7.56C17.6962 7.98 17.4824 8.56875 17.4862 9.315C17.4899 9.45375 17.4974 9.60375 17.5124 9.75375C17.5162 9.81 17.6362 11.0888 18.4874 11.8913C18.4762 11.9963 18.4124 12.1238 18.1537 12.2063H18.1499H18.1462C18.0862 12.2288 18.0187 12.24 17.9399 12.255C17.7299 12.2663 16.4774 12.3863 15.8362 13.3538C15.5474 13.305 15.3412 13.29 15.2737 13.2863C15.1049 13.26 14.9512 13.2263 14.8162 13.185H14.8124C14.5574 13.0988 14.3549 12.8625 14.2087 12.4763C14.0099 11.97 13.9837 11.3925 13.9912 11.235C13.9912 11.205 13.9949 11.1788 13.9987 11.1525C15.5849 9.7575 15.8024 7.4025 15.8099 7.30875C15.8662 6.8175 15.8737 6.36 15.8362 5.9625C15.8362 5.9625 15.8362 5.9625 15.8362 5.95875V5.955C15.8362 5.9475 15.8362 5.93625 15.8324 5.925C15.5174 2.33625 12.0224 2.42625 12.0149 2.42625C11.9474 2.4225 10.3687 2.3775 9.23619 3.48C8.50119 4.19625 8.13369 5.2125 8.14494 6.50625C8.14869 6.7575 8.16369 7.0275 8.19369 7.2975C8.20119 7.39875 8.42244 9.7575 10.0087 11.1563C10.0087 11.175 10.0124 11.19 10.0087 11.2125C10.0012 11.7525 9.95619 12.4463 9.91494 12.57C9.91494 12.5738 9.91119 12.5738 9.91119 12.5775C9.78369 12.825 9.53619 13.0088 9.16494 13.1288C9.16494 13.1288 9.16494 13.1288 9.16119 13.1288C9.16119 13.1288 9.16119 13.1288 9.15744 13.1288C9.03369 13.17 8.89119 13.2038 8.71869 13.2263C8.64744 13.23 8.42619 13.245 8.12244 13.3013C7.42869 12.3188 6.09744 12.2513 6.05994 12.2513C5.97744 12.24 5.90619 12.225 5.84244 12.2025C5.83869 12.2025 5.83869 12.2025 5.83494 12.2025H5.83119C5.60994 12.1313 5.50494 12.0188 5.50494 11.8538C6.35619 11.0513 6.47619 9.77625 6.47994 9.7275C6.51369 9.4425 6.51744 9.17625 6.49119 8.9475C6.34494 7.275 4.96494 6.885 4.27119 6.9075C4.23369 6.9075 3.31119 6.88125 2.65119 7.5225C2.21994 7.9425 2.00619 8.53125 2.00994 9.2775C2.01369 9.41625 2.02119 9.56625 2.03619 9.71625C2.03994 9.7725 2.15994 11.0513 3.01119 11.8538C2.99994 11.9588 2.93619 12.0863 2.67744 12.1688H2.67369C2.61369 12.1875 2.54619 12.2025 2.47119 12.2138C2.29494 12.225 1.19619 12.3188 0.51744 13.1025C0.0974397 13.5863 -0.0713102 14.2238 0.0149398 14.9888L0.14244 16.155C0.15744 16.29 0.24369 16.4025 0.37119 16.455C0.43869 16.4813 1.88619 17.0438 4.18494 17.0438C4.25994 17.0438 4.33869 17.04 4.41369 17.04C4.39494 17.355 4.39869 17.685 4.43994 18.03L4.67619 20.1975C4.69119 20.3325 4.77744 20.445 4.90494 20.4975C5.06619 20.5613 7.68744 21.5738 11.8312 21.5738C13.8974 21.5738 16.3424 21.3225 19.0462 20.5763C19.1887 20.535 19.2937 20.415 19.3124 20.265L19.5487 18.0975C19.5899 17.745 19.5937 17.4075 19.5712 17.0888C19.6012 17.0888 19.6312 17.0888 19.6612 17.0888C20.9624 17.0888 22.2787 16.9088 23.5799 16.5488C23.7224 16.5075 23.8274 16.3875 23.8462 16.2375L23.9737 15.0675C24.0637 14.3025 23.8949 13.6688 23.4749 13.1813ZM18.2437 9.69C18.2287 9.555 18.2212 9.43125 18.2212 9.31125C18.2174 8.775 18.3562 8.36625 18.6374 8.0925C19.0724 7.665 19.7249 7.67625 19.7549 7.68C19.8974 7.67625 21.1312 7.68375 21.2512 9.06375C21.2699 9.2475 21.2662 9.4575 21.2399 9.70125C21.2399 9.7125 21.1274 10.935 20.3249 11.5088C20.3137 11.5163 20.3062 11.52 20.2949 11.5275C20.2762 11.5425 20.2574 11.5538 20.2387 11.565C19.9274 11.7563 19.5562 11.7563 19.2449 11.565C19.2262 11.5538 19.2074 11.5388 19.1887 11.5275C19.1774 11.52 19.1699 11.5125 19.1587 11.5088C19.1324 11.49 19.1099 11.4713 19.0874 11.4525C18.3524 10.8525 18.2437 9.705 18.2437 9.69ZM14.2012 13.68L13.3462 15.1538L12.5137 14.3063L13.7549 13.1963C13.8862 13.395 14.0362 13.5563 14.2012 13.68ZM12.0037 14.8238L12.5174 15.3488L12.0299 15.8888C12.0187 15.9 12.0112 15.9113 11.9999 15.9263C11.9924 15.915 11.9812 15.9 11.9699 15.8888L11.5087 15.3825L12.0037 14.8238ZM10.6424 12.6038C10.6874 12.3413 10.7099 11.9775 10.7212 11.6513C11.1262 11.8613 11.5612 11.97 11.9999 11.97C12.4424 11.97 12.8812 11.8575 13.2824 11.6438C13.3049 11.8913 13.3574 12.1913 13.4474 12.495L11.9849 13.8L10.6424 12.6038ZM11.9999 16.4963L12.5662 19.365L11.9999 19.8L11.4299 19.365L11.9999 16.4963ZM9.73494 4.005C10.6387 3.12 11.9737 3.15 12.0149 3.15375C12.1237 3.15 14.6212 3.09375 15.0599 5.64375C13.3124 5.7675 11.0249 4.5675 10.9987 4.55625C10.8749 4.4925 10.7287 4.5 10.6162 4.57875L8.91369 5.77125C9.01494 5.03625 9.28869 4.44375 9.73494 4.005ZM8.91369 7.22625C8.89494 7.03875 8.88369 6.85875 8.87619 6.68625L10.8562 5.3025C11.4862 5.61 13.4587 6.49125 15.1237 6.3675C15.1312 6.6375 15.1237 6.91875 15.0862 7.23375C15.0824 7.26 14.8574 9.68625 13.2449 10.8263C13.2299 10.8338 13.2187 10.8413 13.2074 10.8525C13.1662 10.8825 13.1287 10.9088 13.0874 10.935C12.4087 11.355 11.5987 11.355 10.9162 10.935C10.8749 10.9088 10.8337 10.8825 10.7924 10.8525C10.7812 10.8413 10.7662 10.8338 10.7512 10.8263C10.6949 10.785 10.6387 10.7438 10.5862 10.6988C9.12744 9.51 8.91744 7.25625 8.91369 7.22625ZM10.3012 13.2713L11.4787 14.3213L10.7549 15.1425L9.81369 13.6388C10.0012 13.5375 10.1662 13.4175 10.3012 13.2713ZM2.76369 9.64125C2.74869 9.51 2.74119 9.3825 2.74119 9.2625C2.73744 8.72625 2.87619 8.3175 3.15744 8.04375C3.59244 7.61625 4.24869 7.63125 4.27494 7.63125C4.33119 7.63125 5.64744 7.5975 5.77119 9.015C5.78994 9.195 5.78619 9.405 5.75994 9.64875C5.75994 9.66 5.63994 10.8863 4.84119 11.46C4.82994 11.4675 4.82244 11.4713 4.81119 11.4788C4.79244 11.4938 4.77369 11.505 4.75494 11.5163C4.44369 11.7075 4.07244 11.7075 3.76119 11.5163C3.74244 11.505 3.72369 11.49 3.70494 11.4788C3.69369 11.4713 3.68619 11.4638 3.67494 11.46C3.64869 11.4413 3.62619 11.4225 3.59994 11.4038C2.87244 10.8075 2.76369 9.66 2.76369 9.64125ZM4.52994 16.3088C2.67744 16.3575 1.33494 16.0013 0.84744 15.8438L0.74619 14.9063C0.68244 14.3513 0.79494 13.905 1.07244 13.5788C1.58619 12.9825 2.51619 12.9375 2.52369 12.9375C2.53494 12.9375 2.54994 12.9375 2.56119 12.9338C2.68119 12.9188 2.79744 12.8925 2.90244 12.8588C2.90619 12.8588 2.90619 12.855 2.90994 12.855C3.32619 12.72 3.53244 12.4838 3.64119 12.2625C3.83994 12.345 4.04994 12.3863 4.26369 12.3863C4.46994 12.3863 4.67619 12.345 4.87119 12.2663C4.99869 12.5513 5.25369 12.7725 5.61369 12.8888C5.61744 12.8888 5.61744 12.8888 5.62119 12.8888C5.72619 12.9225 5.83869 12.9488 5.99994 12.9713C6.01119 12.9713 6.80619 13.0125 7.33494 13.4925C6.67119 13.7063 5.89869 14.085 5.30994 14.7675C4.92369 15.21 4.66869 15.7275 4.52994 16.3088ZM18.8324 18.015L18.6224 19.9388C11.6849 21.7875 6.45744 20.2538 5.38119 19.8938L5.16744 17.9513C5.04369 16.8338 5.27244 15.9225 5.84994 15.2513C6.47244 14.5275 7.38369 14.2088 8.02119 14.0663C8.02869 14.0663 8.03244 14.0625 8.03994 14.0625C8.45994 13.9688 8.75994 13.9538 8.76744 13.9538C8.77869 13.9538 8.79369 13.9538 8.80494 13.95C8.91369 13.935 9.01494 13.9163 9.10869 13.8938L10.3912 15.945C10.4512 16.0425 10.5562 16.1063 10.6687 16.1138C10.6799 16.1138 10.6874 16.1138 10.6987 16.1138C10.8037 16.1138 10.9012 16.0688 10.9724 15.99L11.0249 15.93L11.3062 16.2413L10.6687 19.4475C10.6424 19.5825 10.6949 19.725 10.8037 19.8075L11.7749 20.5463C11.8387 20.595 11.9174 20.6213 11.9962 20.6213C12.0749 20.6213 12.1537 20.595 12.2174 20.5463L13.1849 19.8075C13.2937 19.725 13.3462 19.5825 13.3199 19.4475L12.6862 16.2413L13.0237 15.8663L13.1587 16.005C13.2262 16.0763 13.3199 16.1138 13.4174 16.1138C13.4324 16.1138 13.4474 16.1138 13.4624 16.11C13.5749 16.095 13.6762 16.0313 13.7324 15.9338L14.8799 13.9613C14.9812 13.9838 15.0824 14.0025 15.1912 14.0175C15.2024 14.0175 15.2174 14.0213 15.2287 14.0213C15.2474 14.0213 17.0924 14.1 18.1424 15.315C18.7237 15.9863 18.9562 16.8938 18.8324 18.015ZM23.2574 14.9888L23.1562 15.9113C21.9299 16.2263 20.6887 16.3688 19.4662 16.35C19.3274 15.7763 19.0724 15.27 18.6974 14.835C18.0974 14.1375 17.3024 13.755 16.6312 13.545C17.1562 13.0275 17.9962 12.9825 18.0037 12.9825C18.0187 12.9825 18.0374 12.9788 18.0524 12.9788C18.1574 12.96 18.2662 12.9375 18.3749 12.9038C18.3787 12.9038 18.3787 12.9038 18.3824 12.9038C18.3862 12.9038 18.3862 12.9 18.3899 12.9H18.3937C18.3937 12.9 18.3937 12.9 18.3974 12.9C18.8099 12.765 19.0162 12.5325 19.1212 12.3113C19.3199 12.3938 19.5299 12.435 19.7437 12.435C19.9499 12.435 20.1562 12.3938 20.3512 12.315C20.4787 12.6 20.7299 12.8175 21.0862 12.9375C21.0899 12.9375 21.0937 12.9413 21.0974 12.945C21.2062 12.9788 21.3224 13.0013 21.4799 13.0238C21.4874 13.0238 22.4174 13.0725 22.9274 13.665C23.2049 13.9838 23.3174 14.43 23.2574 14.9888Z" fill="black" stroke="black" stroke-width="0.2"/>
</g>
<defs>
<clipPath id="clip0_390_4836">
<rect width="24" height="24" fill="white"/>
</clipPath>
</defs>
</svg>
