<svg width="24" height="24" viewBox="0 0 24 24" fill="none" xmlns="http://www.w3.org/2000/svg">
<path d="M11.0538 4.11526H12.9131C13.1202 4.11526 13.2881 3.94741 13.2881 3.74026C13.2881 3.53311 13.1202 3.36526 12.9131 3.36526H11.0538C10.8467 3.36526 10.6788 3.53311 10.6788 3.74026C10.6788 3.94741 10.8467 4.11526 11.0538 4.11526Z" fill="black"/>
<path d="M22.7503 16.8487H20.6194V15.0784C20.6194 14.7885 20.3844 14.5534 20.0944 14.5534H12.525V13.3081H16.0242H18.1224C18.4123 13.3081 18.6474 13.0731 18.6474 12.7831V4.21739C18.6474 4.01414 18.5301 3.82904 18.346 3.74249L12.2238 0.85829C12.082 0.79154 11.9179 0.79154 11.7763 0.85829L5.65391 3.74249C5.47001 3.82904 5.35271 4.01414 5.35271 4.21739V12.7831C5.35271 13.0731 5.58776 13.3081 5.87771 13.3081H7.97591H11.475V14.5534H3.89621C3.60626 14.5534 3.37121 14.7885 3.37121 15.0784V16.8487H1.24961C0.959659 16.8487 0.724609 17.0838 0.724609 17.3737V22.6668C0.724609 22.9567 0.959659 23.1918 1.24961 23.1918H6.54266C6.83261 23.1918 7.06766 22.9567 7.06766 22.6668V17.3737C7.06766 17.0838 6.83261 16.8487 6.54266 16.8487H4.42121V15.6034H11.475V16.8487H9.35351C9.06356 16.8487 8.82851 17.0838 8.82851 17.3737V22.6668C8.82851 22.9567 9.06356 23.1918 9.35351 23.1918H14.6466C14.9365 23.1918 15.1716 22.9567 15.1716 22.6668V17.3737C15.1716 17.0838 14.9365 16.8487 14.6466 16.8487H12.525V15.6034H19.5693V16.8487H17.4573C17.1673 16.8487 16.9323 17.0838 16.9323 17.3737V22.6668C16.9323 22.9567 17.1673 23.1918 17.4573 23.1918H22.7502C23.0401 23.1918 23.2752 22.9567 23.2752 22.6668V17.3737C23.2753 17.0838 23.0401 16.8487 22.7503 16.8487ZM15.4992 6.40769H8.50091V5.90354H15.4992V6.40769ZM6.40271 4.55039L12 1.91354L17.5974 4.55039V12.2581H16.5492V6.93269V5.37854C16.5492 5.08859 16.3141 4.85354 16.0242 4.85354H7.97591C7.68596 4.85354 7.45091 5.08859 7.45091 5.37854V6.93269V12.2581H6.40271V4.55039ZM8.50091 7.45769H15.4992V12.2581H8.50091V7.45769ZM3.36596 17.8987H4.40771V18.7905H3.36596V17.8987ZM6.01766 22.1418H1.77461V17.8987H2.61581V19.1655C2.61581 19.3726 2.78366 19.5405 2.99081 19.5405H4.78256C4.98971 19.5405 5.15756 19.3726 5.15756 19.1655V17.8987H6.01751V22.1418H6.01766ZM11.4697 17.8987H12.5115V18.7905H11.4697V17.8987ZM14.1214 22.1418H9.87851V17.8987H10.7197V19.1655C10.7197 19.3726 10.8876 19.5405 11.0947 19.5405H12.8865C13.0936 19.5405 13.2615 19.3726 13.2615 19.1655V17.8987H14.1214V22.1418ZM19.5735 17.8987H20.6154V18.7905H19.5735V17.8987ZM22.2253 22.1418H17.9824V17.8987H18.8235V19.1655C18.8235 19.3726 18.9913 19.5405 19.1985 19.5405H20.9904C21.1975 19.5405 21.3654 19.3726 21.3654 19.1655V17.8987H22.2252V22.1418H22.2253Z" fill="black"/>
</svg>
