<svg width="24" height="24" viewBox="0 0 24 24" fill="none" xmlns="http://www.w3.org/2000/svg">
<g clip-path="url(#clip0_390_4841)">
<path d="M8.64883 15.6661C8.60816 15.6384 8.56241 15.6189 8.5142 15.6088C8.466 15.5987 8.41627 15.5982 8.36788 15.6074C8.31949 15.6165 8.27337 15.6351 8.23218 15.6621C8.19098 15.6891 8.15551 15.724 8.1278 15.7647L5.1278 20.1654C5.1 20.2061 5.08049 20.2518 5.07038 20.3001C5.06027 20.3483 5.05977 20.398 5.0689 20.4465C5.07803 20.4949 5.09661 20.541 5.12359 20.5823C5.15056 20.6235 5.18539 20.659 5.2261 20.6868C5.26681 20.7146 5.31259 20.734 5.36083 20.7441C5.40906 20.7542 5.45881 20.7546 5.50722 20.7455C5.55564 20.7363 5.60177 20.7177 5.64299 20.6907C5.6842 20.6637 5.71969 20.6288 5.74743 20.5881L8.74743 16.1874C8.77518 16.1467 8.79464 16.1009 8.8047 16.0527C8.81477 16.0045 8.81523 15.9547 8.80608 15.9063C8.79692 15.8579 8.77832 15.8118 8.75134 15.7706C8.72436 15.7294 8.68952 15.6939 8.64883 15.6661V15.6661ZM5.62511 15.0008C5.40257 15.0008 5.18501 15.0667 4.99995 15.1904C4.81489 15.314 4.67065 15.4897 4.58546 15.6953C4.50027 15.9009 4.47796 16.1271 4.52135 16.3454C4.56475 16.5637 4.6719 16.7642 4.82925 16.9216C4.9866 17.0789 5.18708 17.1861 5.40535 17.2295C5.62362 17.273 5.84986 17.2507 6.05547 17.1656C6.26108 17.0804 6.43682 16.9362 6.56047 16.7511C6.68411 16.5661 6.75011 16.3486 6.75011 16.126C6.74981 15.8277 6.6312 15.5417 6.42029 15.3308C6.20938 15.1198 5.92341 15.0012 5.62511 15.0008ZM5.62511 16.5011C5.55093 16.5011 5.47841 16.4791 5.41673 16.4379C5.35504 16.3967 5.30696 16.3381 5.27856 16.2696C5.25017 16.201 5.24273 16.1256 5.2572 16.0529C5.27166 15.9801 5.30738 15.9133 5.35983 15.8608C5.41228 15.8084 5.47911 15.7726 5.55186 15.7582C5.62462 15.7437 5.70003 15.7511 5.76857 15.7795C5.83711 15.8079 5.89569 15.8559 5.9369 15.9176C5.97811 15.9793 6.00011 16.0518 6.00011 16.126C6.00001 16.2254 5.96047 16.3208 5.89016 16.3911C5.81986 16.4614 5.72454 16.5009 5.62511 16.5011V16.5011ZM7.87511 19.5015C7.65257 19.5015 7.43501 19.5675 7.24995 19.6911C7.06489 19.8147 6.92065 19.9904 6.83546 20.196C6.75027 20.4016 6.72796 20.6278 6.77135 20.8461C6.81475 21.0644 6.9219 21.2649 7.07925 21.4223C7.2366 21.5796 7.43709 21.6868 7.65536 21.7303C7.87363 21.7737 8.09987 21.7514 8.30548 21.6663C8.51109 21.5811 8.68683 21.4369 8.81048 21.2518C8.93412 21.0668 9.00011 20.8493 9.00011 20.6267C8.99981 20.3284 8.88119 20.0424 8.67029 19.8315C8.45938 19.6205 8.1734 19.5019 7.87511 19.5015ZM7.87511 21.0018C7.80093 21.0018 7.72841 20.9798 7.66673 20.9386C7.60504 20.8974 7.55696 20.8388 7.52856 20.7703C7.50017 20.7017 7.49273 20.6263 7.5072 20.5536C7.52166 20.4808 7.55738 20.414 7.60983 20.3615C7.66228 20.3091 7.72911 20.2733 7.80186 20.2589C7.87462 20.2444 7.95003 20.2518 8.01857 20.2802C8.08711 20.3086 8.14569 20.3566 8.1869 20.4183C8.22811 20.48 8.25011 20.5525 8.25011 20.6267C8.25001 20.7261 8.21047 20.8215 8.14016 20.8918C8.06986 20.9621 7.97454 21.0016 7.87511 21.0018Z" fill="black" stroke="black" stroke-width="0.2"/>
<path d="M10.5524 22.9315C10.5274 23.0353 10.4633 23.1256 10.3735 23.1834C10.2836 23.2412 10.1749 23.2621 10.07 23.2418L2.16412 21.3582C2.06465 21.3306 1.9799 21.2652 1.92804 21.176C1.87617 21.0868 1.86131 20.9808 1.88664 20.8807L5.13848 7.67941C5.29757 7.17258 5.61595 6.73062 6.0463 6.41919L8.54285 4.87959L8.97096 3.73434L5.65268 5.78069C5.05484 6.19691 4.61645 6.80421 4.40961 7.50269L1.15842 20.7013C1.12152 20.847 1.1138 20.9985 1.1357 21.1472C1.1576 21.2959 1.20869 21.4388 1.28603 21.5677C1.36336 21.6966 1.46542 21.8089 1.58633 21.8982C1.70723 21.9874 1.8446 22.0519 1.99053 22.0879L9.89622 23.9715C10.1929 24.0318 10.5014 23.9764 10.7587 23.8168C11.0159 23.6571 11.2025 23.4053 11.2802 23.1126L11.8171 20.9849L11.3276 19.8597C11.3276 19.8597 10.5529 22.9292 10.5524 22.9315Z" fill="black" stroke="black" stroke-width="0.2"/>
<path d="M22.7801 18.5677L17.5031 6.25185C17.1897 5.61129 16.6579 5.10365 16.0035 4.82028L13.457 3.88734C13.4286 4.14008 13.385 4.39087 13.3263 4.63833L15.7451 5.52449C16.2049 5.73757 16.5808 6.09736 16.8138 6.54732L22.0907 18.8631C22.1334 18.9629 22.1369 19.0752 22.1005 19.1776C22.0641 19.2799 21.9904 19.3647 21.8942 19.4152C21.8942 19.4152 14.6587 22.8354 14.6405 22.8439C14.5983 22.863 14.5527 22.8733 14.5064 22.8743C14.4601 22.8752 14.4141 22.8668 14.3712 22.8495C14.3283 22.8321 14.2893 22.8063 14.2566 22.7734C14.224 22.7406 14.1983 22.7015 14.1812 22.6585L8.76827 10.2171C8.59134 9.71834 8.57719 9.17632 8.72786 8.66901L10.4689 4.01136C10.5039 3.91584 10.5744 3.83751 10.6657 3.79273C10.757 3.74795 10.8621 3.74018 10.959 3.77104L11.191 3.85603C11.2364 3.59906 11.2547 3.33805 11.2458 3.07726L11.2169 3.06668C11.095 3.02188 10.9661 2.99894 10.8361 2.99893C10.6028 3.00037 10.3754 3.07288 10.1844 3.20679C9.99326 3.3407 9.8475 3.52966 9.7665 3.74849L8.02535 8.40631C7.80774 9.0962 7.82721 9.83906 8.08065 10.5166C8.08065 10.5166 13.4912 22.9526 13.4935 22.9578C13.5518 23.0921 13.6362 23.2134 13.7419 23.3147C13.8475 23.416 13.9723 23.4952 14.109 23.5478C14.2456 23.6003 14.3913 23.6251 14.5376 23.6207C14.684 23.6163 14.8279 23.5827 14.9611 23.5221L22.2147 20.0933C22.4865 19.96 22.6967 19.7273 22.8019 19.4434C22.9071 19.1595 22.8994 18.8461 22.7801 18.5677V18.5677Z" fill="black" stroke="black" stroke-width="0.2"/>
<path d="M9.10219 2.67645C9.17697 2.74154 9.27449 2.77437 9.37341 2.76776C9.47234 2.76116 9.56462 2.71565 9.63009 2.64119C9.69555 2.56674 9.72887 2.46939 9.72276 2.37043C9.71665 2.27147 9.67161 2.17896 9.59748 2.11313C9.51988 2.05002 9.45919 1.96861 9.42086 1.87623C9.38254 1.78384 9.36779 1.68338 9.37794 1.58387C9.39824 1.43618 9.4519 1.29505 9.53485 1.17118C9.61779 1.04731 9.72785 0.94394 9.85667 0.868913C10.536 0.461434 11.2918 1.20973 11.5962 1.66225C12.1523 2.48892 12.0472 3.75272 11.7882 4.58361C11.7577 4.68143 11.7227 4.77941 11.6862 4.87732C11.666 4.87623 11.646 4.87424 11.6256 4.87424C11.3617 4.87312 11.1058 4.96443 10.9022 5.13231C10.6987 5.30018 10.5603 5.53404 10.5112 5.79328C10.462 6.05252 10.5052 6.32079 10.6332 6.55151C10.7613 6.78223 10.966 6.96085 11.212 7.05635C11.4579 7.15186 11.7296 7.15823 11.9798 7.07435C12.2299 6.99047 12.4428 6.82165 12.5815 6.59718C12.7202 6.37271 12.7759 6.10676 12.739 5.8455C12.7021 5.58424 12.5748 5.34416 12.3793 5.16693C12.4247 5.04697 12.4668 4.92689 12.5042 4.80684C12.8274 3.76994 12.9219 2.28929 12.2184 1.24359C11.603 0.328666 10.481 -0.380799 9.47096 0.225738C9.24084 0.361329 9.04524 0.548376 8.8995 0.772218C8.75376 0.99606 8.66185 1.25061 8.63096 1.51593C8.61009 1.73303 8.64204 1.95196 8.72409 2.15404C8.80615 2.35612 8.93587 2.53535 9.10219 2.67645ZM11.6256 6.37447C11.5514 6.37457 11.4788 6.35265 11.417 6.3115C11.3553 6.27034 11.3071 6.21179 11.2787 6.14325C11.2502 6.07472 11.2427 5.99928 11.2571 5.92649C11.2716 5.85369 11.3073 5.78682 11.3597 5.73432C11.4122 5.68182 11.479 5.64607 11.5518 5.63157C11.6246 5.61708 11.7 5.6245 11.7686 5.6529C11.8371 5.6813 11.8957 5.7294 11.937 5.79112C11.9782 5.85283 12.0001 5.92538 12.0001 5.99959C11.9999 6.0989 11.9604 6.19409 11.8902 6.26435C11.82 6.3346 11.7249 6.37419 11.6256 6.37447H11.6256ZM13.037 10.1463C13.0708 10.2254 13.0734 10.3142 13.0445 10.3952C13.0308 10.4372 13.0082 10.4757 12.9783 10.5083C12.9485 10.5408 12.912 10.5666 12.8714 10.5839C12.8313 10.6027 12.7877 10.613 12.7435 10.6141C12.6992 10.6151 12.6552 10.6069 12.6143 10.59C12.5317 10.5606 12.4641 10.4997 12.4262 10.4207L11.9936 9.51081C11.9726 9.46387 11.942 9.42184 11.9038 9.38738C11.8656 9.35293 11.8206 9.32682 11.7717 9.31072C11.6756 9.27741 11.5704 9.28223 11.4778 9.3242C11.3852 9.36617 11.3121 9.44208 11.2738 9.53628C11.2557 9.58428 11.2479 9.63557 11.2509 9.68679C11.254 9.73801 11.2679 9.788 11.2916 9.83349L11.7242 10.7433C11.7898 10.8748 11.8809 10.9918 11.9924 11.0875C12.0995 11.1802 12.2229 11.2523 12.3562 11.3001C12.4899 11.3476 12.6314 11.3694 12.7732 11.3642C12.9189 11.3594 13.0622 11.3253 13.1945 11.2638C13.3297 11.2026 13.4502 11.1132 13.5482 11.0018C13.6433 10.8939 13.7172 10.769 13.7661 10.6337C13.8138 10.5011 13.8363 10.3608 13.8324 10.22C13.8291 10.081 13.7964 9.94418 13.7365 9.81866L13.5712 9.47111C13.5521 9.43312 13.5412 9.39157 13.539 9.3491C13.5368 9.30663 13.5435 9.26418 13.5587 9.22444C13.587 9.14436 13.6455 9.0785 13.7216 9.04088C13.8063 9.00311 13.902 8.9979 13.9903 9.02625C14.0318 9.03883 14.0701 9.06008 14.1028 9.08858C14.1354 9.11708 14.1617 9.15219 14.1797 9.19158L14.6124 10.1016C14.6328 10.1478 14.6624 10.1894 14.6994 10.2238C14.7365 10.2582 14.7801 10.2846 14.8277 10.3015C14.8757 10.3186 14.9266 10.3258 14.9775 10.3228C15.0283 10.3198 15.078 10.3066 15.1236 10.284C15.2157 10.2366 15.2873 10.1571 15.3248 10.0606C15.3431 10.0156 15.3516 9.9672 15.3498 9.91865C15.348 9.87009 15.3359 9.82248 15.3143 9.77895L14.8818 8.8689C14.8194 8.73562 14.7277 8.61812 14.6137 8.52514C14.502 8.43324 14.3748 8.36194 14.2381 8.31459C14.1021 8.26734 13.9586 8.24557 13.8147 8.25036C13.6727 8.25419 13.533 8.2867 13.4039 8.34594C13.2674 8.40689 13.1458 8.49675 13.0475 8.60933C12.9545 8.71523 12.8828 8.83808 12.8363 8.97114C12.7906 9.10317 12.7698 9.24255 12.7751 9.38217C12.7795 9.52413 12.8115 9.66387 12.8693 9.79358L13.037 10.1463ZM16.3909 12.0435C16.3122 11.8737 16.1991 11.7221 16.0588 11.5983C15.9254 11.4806 15.7704 11.3899 15.6025 11.3313C15.4341 11.2729 15.2562 11.2469 15.0781 11.2547C14.8931 11.2621 14.7112 11.3045 14.542 11.3796L12.8157 12.1727C12.7723 12.1919 12.7336 12.2205 12.7024 12.2563C12.6712 12.2921 12.6484 12.3344 12.6354 12.3801C12.605 12.4717 12.6116 12.5716 12.6537 12.6585C12.6748 12.7026 12.7045 12.742 12.7412 12.7744C12.7778 12.8067 12.8206 12.8314 12.8669 12.847C12.9124 12.8654 12.9611 12.8743 13.0101 12.8732C13.0592 12.8721 13.1074 12.8609 13.152 12.8405L13.7448 12.568L14.2868 13.7082L13.6783 13.9879C13.6344 14.0065 13.5951 14.0346 13.5633 14.0702C13.5315 14.1058 13.508 14.1479 13.4944 14.1937C13.4652 14.2862 13.4731 14.3864 13.5164 14.4732C13.5382 14.5167 13.5684 14.5554 13.6052 14.5871C13.642 14.6188 13.6847 14.643 13.7309 14.6581C13.776 14.6745 13.8238 14.6818 13.8717 14.6796C13.9195 14.6773 13.9665 14.6657 14.0098 14.6452L15.7624 13.8398C15.9294 13.7648 16.0778 13.654 16.1973 13.5153C16.3113 13.3834 16.399 13.231 16.4559 13.0662C16.5118 12.9021 16.5348 12.7286 16.5235 12.5556C16.5128 12.378 16.4678 12.204 16.3909 12.0435V12.0435ZM15.7366 12.8396C15.7093 12.9167 15.6663 12.9873 15.6102 13.0469C15.5522 13.1091 15.4823 13.1593 15.4048 13.1945L14.9627 13.3977L14.4208 12.2575L14.8887 12.0424C14.9642 12.0076 15.0461 11.9891 15.1292 11.988C15.2095 11.9862 15.2894 12.0003 15.3642 12.0295C15.4384 12.0591 15.5067 12.1015 15.5662 12.1549C15.6278 12.2088 15.6776 12.275 15.7125 12.3491C15.7504 12.4267 15.7713 12.5116 15.7738 12.598C15.7761 12.6801 15.7635 12.762 15.7366 12.8396L15.7366 12.8396ZM17.2325 14.0738C17.1851 14.0554 17.1344 14.0469 17.0836 14.0488C17.0327 14.0508 16.9828 14.0632 16.937 14.0852L14.3214 15.2869C14.2293 15.3343 14.1577 15.4137 14.1202 15.5102C14.102 15.5572 14.0939 15.6075 14.0966 15.6578C14.0992 15.7081 14.1125 15.7573 14.1355 15.8021L14.8841 17.3767C14.9048 17.4215 14.9346 17.4616 14.9715 17.4945C15.0084 17.5274 15.0516 17.5523 15.0985 17.5678C15.147 17.5855 15.1985 17.5931 15.2499 17.5904C15.3014 17.5876 15.3518 17.5744 15.398 17.5517C15.4441 17.5317 15.4857 17.5025 15.52 17.4658C15.5544 17.4292 15.5808 17.3858 15.5977 17.3385C15.6156 17.2929 15.6238 17.2441 15.6218 17.1951C15.6198 17.1462 15.6077 17.0982 15.5861 17.0542L15.0002 15.8222L17.2675 14.7805C17.314 14.7601 17.3556 14.7301 17.3896 14.6924C17.4235 14.6547 17.4491 14.6103 17.4647 14.562C17.4819 14.5162 17.4897 14.4675 17.4877 14.4186C17.4857 14.3698 17.4739 14.3219 17.4531 14.2777C17.4318 14.2306 17.4014 14.1884 17.3635 14.1533C17.3256 14.1183 17.2811 14.0912 17.2325 14.0738V14.0738ZM18.7609 18.8281C18.7822 18.874 18.8123 18.9152 18.8496 18.9493C18.8869 18.9834 18.9307 19.0097 18.9783 19.0267C19.0259 19.0436 19.0764 19.051 19.1269 19.0482C19.1773 19.0454 19.2267 19.0326 19.2722 19.0105C19.3185 18.9902 19.3603 18.9607 19.3951 18.9239C19.4298 18.8871 19.4568 18.8436 19.4745 18.7962C19.4932 18.7496 19.5018 18.6997 19.4998 18.6496C19.4978 18.5994 19.4852 18.5503 19.4629 18.5054L18.7678 17.0434C18.7467 16.9963 18.7156 16.9545 18.6766 16.9207C18.6376 16.887 18.5916 16.8623 18.542 16.8482C18.4467 16.8163 18.3428 16.8216 18.2513 16.8632L15.6358 18.0651C15.5437 18.107 15.4719 18.1837 15.4362 18.2783C15.4004 18.373 15.4036 18.4779 15.4451 18.5702L16.1401 20.0323C16.161 20.0781 16.191 20.1191 16.2283 20.1529C16.2656 20.1866 16.3094 20.2124 16.357 20.2286C16.4055 20.2462 16.4569 20.2538 16.5084 20.251C16.5599 20.2482 16.6102 20.2351 16.6565 20.2125C16.7019 20.1922 16.7428 20.1629 16.7767 20.1265C16.8106 20.0901 16.8367 20.0472 16.8537 20.0004C16.8724 19.9539 16.881 19.9039 16.879 19.8538C16.8771 19.8037 16.8645 19.7546 16.8422 19.7097L16.3074 18.5849L16.9314 18.2981L17.3033 19.0803C17.3364 19.1486 17.389 19.2056 17.4543 19.2443C17.5196 19.283 17.5948 19.3017 17.6707 19.2981C17.7465 19.2945 17.8196 19.2686 17.8809 19.2238C17.9422 19.179 17.989 19.1172 18.0155 19.0461C18.0339 18.9999 18.0425 18.9505 18.0407 18.9009C18.0389 18.8512 18.0269 18.8025 18.0053 18.7578L17.6334 17.9756L18.2262 17.7033L18.7609 18.8281Z" fill="black" stroke="black" stroke-width="0.2"/>
</g>
<defs>
<clipPath id="clip0_390_4841">
<rect width="24" height="24" fill="white"/>
</clipPath>
</defs>
</svg>
