<svg width="24" height="24" viewBox="0 0 24 24" fill="none" xmlns="http://www.w3.org/2000/svg">
<path d="M22.2857 16.8H21.2571V4.11427C21.2571 3.73609 20.9494 3.42856 20.5714 3.42856H3.42856C3.05055 3.42856 2.74285 3.73609 2.74285 4.11427V16.8H1.71428C1.33627 16.8 1.02856 17.1075 1.02856 17.4857C1.02856 19.1871 2.41272 20.5714 4.11428 20.5714H19.8857C21.5873 20.5714 22.9714 19.1871 22.9714 17.4857C22.9714 17.1075 22.6637 16.8 22.2857 16.8ZM3.42856 4.11427L20.5714 4.11377V16.8H3.42856V4.11427ZM22.2857 17.4857C22.2857 18.8091 21.2089 19.8857 19.8857 19.8857H4.11428C2.79106 19.8857 1.71428 18.8091 1.71428 17.4857L3.08554 17.4857C3.0856 17.4857 3.08564 17.4857 3.08571 17.4857H20.9143C20.9151 17.4857 20.9158 17.4852 20.9166 17.4852L22.2857 17.4852V17.4857Z" fill="black" stroke="black" stroke-width="0.3"/>
<path d="M15.4285 8.57143H14.3999V7.88572C14.3999 6.56234 13.3232 5.48572 11.9999 5.48572C10.6767 5.48572 9.59994 6.56234 9.59994 7.88572V8.57143H8.57137C8.38186 8.57143 8.22852 8.72495 8.22852 8.91429V14.7429C8.22852 15.121 8.53622 15.4286 8.91423 15.4286H15.0857C15.4637 15.4286 15.7714 15.121 15.7714 14.7429V8.91429C15.7714 8.72495 15.618 8.57143 15.4285 8.57143ZM10.2857 7.88572C10.2857 6.94052 11.0547 6.17143 11.9999 6.17143C12.9451 6.17143 13.7142 6.94052 13.7142 7.88572V8.57143H10.2857V7.88572ZM15.0857 14.7429H8.91423V9.25715H9.59994V10.2857C9.59994 10.4751 9.75329 10.6286 9.9428 10.6286C10.1323 10.6286 10.2857 10.4751 10.2857 10.2857V9.25715H13.7142V10.2857C13.7142 10.4751 13.8676 10.6286 14.0571 10.6286C14.2466 10.6286 14.3999 10.4751 14.3999 10.2857V9.25715H15.0857V14.7429Z" fill="black" stroke="black" stroke-width="0.3"/>
</svg>
