<svg width="24" height="24" viewBox="0 0 24 24" fill="none" xmlns="http://www.w3.org/2000/svg">
<g clip-path="url(#clip0_390_4851)">
<path d="M11.5911 9.02823C13.8081 9.02823 15.6053 7.23105 15.6053 5.01411C15.6053 2.79718 13.8081 1 11.5911 1C9.37421 1 7.57703 2.79718 7.57703 5.01411C7.57703 7.23105 9.37421 9.02823 11.5911 9.02823Z" stroke="#231F20" stroke-miterlimit="10" stroke-linecap="round" stroke-linejoin="round"/>
<path d="M11.591 4.61269C12.1553 4.61269 12.6128 4.15522 12.6128 3.59091C12.6128 3.0266 12.1553 2.56914 11.591 2.56914C11.0267 2.56914 10.5692 3.0266 10.5692 3.59091C10.5692 4.15522 11.0267 4.61269 11.591 4.61269Z" stroke="#231F20" stroke-miterlimit="10" stroke-linecap="round" stroke-linejoin="round"/>
<path d="M9.03662 7.09413C9.65698 6.3278 10.5693 5.85341 11.5911 5.85341C12.6493 5.85341 13.5616 6.3278 14.182 7.09413" stroke="#231F20" stroke-miterlimit="10" stroke-linecap="round" stroke-linejoin="round"/>
<path d="M17.7584 19.5014C19.9753 19.5014 21.7725 17.7042 21.7725 15.4873C21.7725 13.2704 19.9753 11.4732 17.7584 11.4732C15.5414 11.4732 13.7443 13.2704 13.7443 15.4873C13.7443 17.7042 15.5414 19.5014 17.7584 19.5014Z" stroke="#231F20" stroke-miterlimit="10" stroke-linecap="round" stroke-linejoin="round"/>
<path d="M21.7722 15.4873C21.7722 16.5456 21.3708 17.4944 20.714 18.1877C19.9841 18.9905 18.9259 19.5014 17.7216 19.5014C16.5174 19.5014 15.4591 18.9905 14.7293 18.1877C14.0724 17.4579 13.671 16.5091 13.671 15.4873C13.671 13.2613 15.4591 11.4732 17.6851 11.4732C19.9111 11.4732 21.7722 13.2978 21.7722 15.4873Z" stroke="#231F20" stroke-miterlimit="10" stroke-linecap="round" stroke-linejoin="round"/>
<path d="M5.42403 19.5014C7.64096 19.5014 9.43814 17.7042 9.43814 15.4873C9.43814 13.2704 7.64096 11.4732 5.42403 11.4732C3.20709 11.4732 1.40991 13.2704 1.40991 15.4873C1.40991 17.7042 3.20709 19.5014 5.42403 19.5014Z" stroke="#231F20" stroke-miterlimit="10" stroke-linecap="round" stroke-linejoin="round"/>
<path d="M18.4516 6.10887L17.7583 5.41553" stroke="#231F20" stroke-miterlimit="10" stroke-linecap="round" stroke-linejoin="round" stroke-dasharray="3 3"/>
<path d="M18.8895 4.28427L21.298 6.69274L22.2468 5.74395L22.5387 9.06472L19.2544 8.73629L20.1667 7.82399L19.1085 6.76572" stroke="#231F20" stroke-miterlimit="10" stroke-linecap="round" stroke-linejoin="round"/>
<path d="M14.1091 20.7056H15.1309" stroke="#231F20" stroke-miterlimit="10" stroke-linecap="round" stroke-linejoin="round" stroke-dasharray="3 3"/>
<path d="M15.1308 22.3113H11.7006V23.625L9.14612 21.5085L11.7006 19.3919V20.7056H13.1967" stroke="#231F20" stroke-miterlimit="10" stroke-linecap="round" stroke-linejoin="round"/>
<path d="M2.72349 8.91876L1.99365 9.61211" stroke="#231F20" stroke-miterlimit="10" stroke-linecap="round" stroke-linejoin="round" stroke-dasharray="3 3"/>
<path d="M0.862549 8.48084L3.27102 6.07238L2.35872 5.16008L5.64299 4.83165L5.35106 8.15242L4.40227 7.20363L3.344 8.26189" stroke="#231F20" stroke-miterlimit="10" stroke-linecap="round" stroke-linejoin="round"/>
<path d="M17.7583 15.0859C18.3227 15.0859 18.7801 14.6284 18.7801 14.0641C18.7801 13.4998 18.3227 13.0423 17.7583 13.0423C17.194 13.0423 16.7366 13.4998 16.7366 14.0641C16.7366 14.6284 17.194 15.0859 17.7583 15.0859Z" stroke="#231F20" stroke-miterlimit="10" stroke-linecap="round" stroke-linejoin="round"/>
<path d="M15.1674 17.5673C15.7877 16.801 16.7 16.3266 17.7218 16.3266C18.7801 16.3266 19.6924 16.801 20.3127 17.5673" stroke="#231F20" stroke-miterlimit="10" stroke-linecap="round" stroke-linejoin="round"/>
<path d="M5.424 15.0859C5.98831 15.0859 6.44577 14.6284 6.44577 14.0641C6.44577 13.4998 5.98831 13.0423 5.424 13.0423C4.85969 13.0423 4.40222 13.4998 4.40222 14.0641C4.40222 14.6284 4.85969 15.0859 5.424 15.0859Z" stroke="#231F20" stroke-miterlimit="10" stroke-linecap="round" stroke-linejoin="round"/>
<path d="M2.86963 17.5673C3.48999 16.801 4.40229 16.3266 5.42406 16.3266C6.48233 16.3266 7.39463 16.801 8.01499 17.5673" stroke="#231F20" stroke-miterlimit="10" stroke-linecap="round" stroke-linejoin="round"/>
</g>
<defs>
<clipPath id="clip0_390_4851">
<rect width="24" height="24" fill="white"/>
</clipPath>
</defs>
</svg>
