<svg width="24" height="24" viewBox="0 0 24 24" fill="none" xmlns="http://www.w3.org/2000/svg">
<path d="M12.0001 7.53751H2.68581C2.58731 7.53738 2.49058 7.5114 2.40528 7.46215C2.31998 7.4129 2.2491 7.34212 2.19975 7.25688C2.15039 7.17165 2.12428 7.07494 2.12403 6.97645C2.12377 6.87795 2.14939 6.78112 2.19831 6.69563L4.43743 2.77501C4.48659 2.68909 4.55756 2.61768 4.64315 2.56796C4.72875 2.51825 4.82595 2.49201 4.92493 2.49188H12.0001C12.1492 2.49188 12.2923 2.55115 12.3978 2.65663C12.5033 2.76212 12.5626 2.9052 12.5626 3.05438C12.5626 3.20357 12.5033 3.34664 12.3978 3.45213C12.2923 3.55762 12.1492 3.61688 12.0001 3.61688H5.25231L3.65518 6.41251H12.0001C12.1492 6.41251 12.2923 6.47177 12.3978 6.57726C12.5033 6.68275 12.5626 6.82582 12.5626 6.97501C12.5626 7.12419 12.5033 7.26726 12.3978 7.37275C12.2923 7.47824 12.1492 7.53751 12.0001 7.53751V7.53751Z" fill="#222222"/>
<path d="M21.3143 7.53751H12C11.8509 7.53751 11.7078 7.47824 11.6023 7.37275C11.4968 7.26727 11.4375 7.12419 11.4375 6.97501C11.4375 6.82582 11.4968 6.68275 11.6023 6.57726C11.7078 6.47177 11.8509 6.41251 12 6.41251H20.3449L18.7478 3.61688H12C11.8509 3.61688 11.7078 3.55762 11.6023 3.45213C11.4968 3.34664 11.4375 3.20357 11.4375 3.05438C11.4375 2.9052 11.4968 2.76212 11.6023 2.65663C11.7078 2.55115 11.8509 2.49188 12 2.49188H19.074C19.173 2.49201 19.2702 2.51825 19.3558 2.56796C19.4414 2.61768 19.5124 2.68909 19.5615 2.77501L21.8025 6.69526C21.8515 6.78075 21.8771 6.87758 21.8768 6.97608C21.8766 7.07457 21.8505 7.17127 21.8011 7.25651C21.7517 7.34174 21.6809 7.41253 21.5956 7.46177C21.5103 7.51102 21.4135 7.53701 21.315 7.53713L21.3143 7.53751ZM5.01454 11.7251C4.24801 11.7242 3.51313 11.4193 2.97111 10.8773C2.42908 10.3353 2.12418 9.60041 2.12329 8.83388V6.97501C2.12329 6.82582 2.18255 6.68275 2.28804 6.57726C2.39353 6.47177 2.53661 6.41251 2.68579 6.41251C2.83498 6.41251 2.97805 6.47177 3.08354 6.57726C3.18903 6.68275 3.24829 6.82582 3.24829 6.97501V8.83426C3.24488 9.06835 3.28804 9.30078 3.37526 9.51803C3.46248 9.73529 3.59203 9.93304 3.75636 10.0998C3.92069 10.2665 4.11653 10.3989 4.3325 10.4893C4.54846 10.5797 4.78024 10.6262 5.01435 10.6262C5.24847 10.6262 5.48024 10.5797 5.69621 10.4893C5.91217 10.3989 6.10801 10.2665 6.27235 10.0998C6.43668 9.93304 6.56622 9.73529 6.65344 9.51803C6.74067 9.30078 6.78383 9.06835 6.78042 8.83426V6.97501C6.78042 6.82582 6.83968 6.68275 6.94517 6.57726C7.05066 6.47177 7.19373 6.41251 7.34292 6.41251C7.4921 6.41251 7.63517 6.47177 7.74066 6.57726C7.84615 6.68275 7.90542 6.82582 7.90542 6.97501V8.83426C7.90452 9.60069 7.59966 10.3355 7.05771 10.8774C6.51576 11.4194 5.78097 11.7242 5.01454 11.7251V11.7251Z" fill="#222222"/>
<path d="M9.67165 11.7251C8.90511 11.7242 8.17023 11.4193 7.62821 10.8773C7.08619 10.3353 6.78129 9.60041 6.7804 8.83388V6.97501C6.7804 6.82582 6.83966 6.68275 6.94515 6.57726C7.05064 6.47177 7.19371 6.41251 7.3429 6.41251C7.49208 6.41251 7.63515 6.47177 7.74064 6.57726C7.84613 6.68275 7.9054 6.82582 7.9054 6.97501V8.83426C7.90198 9.06834 7.94514 9.30077 8.03237 9.51803C8.11959 9.73529 8.24913 9.93304 8.41347 10.0998C8.5778 10.2665 8.77364 10.3989 8.9896 10.4893C9.20557 10.5797 9.43735 10.6262 9.67146 10.6262C9.90557 10.6262 10.1373 10.5797 10.3533 10.4893C10.5693 10.3989 10.7651 10.2665 10.9295 10.0998C11.0938 9.93304 11.2233 9.73529 11.3105 9.51803C11.3978 9.30077 11.4409 9.06834 11.4375 8.83426V6.97501C11.4375 6.82582 11.4968 6.68275 11.6023 6.57726C11.7078 6.47177 11.8508 6.41251 12 6.41251C12.1492 6.41251 12.2923 6.47177 12.3978 6.57726C12.5033 6.68275 12.5625 6.82582 12.5625 6.97501V8.83426C12.5616 9.60069 12.2568 10.3355 11.7148 10.8774C11.1729 11.4194 10.4381 11.7242 9.67165 11.7251V11.7251Z" fill="#222222"/>
<path d="M14.3284 11.7251C13.5619 11.7242 12.827 11.4193 12.2851 10.8773C11.7431 10.3353 11.4383 9.60038 11.4375 8.83388V6.97501C11.4375 6.82582 11.4968 6.68275 11.6023 6.57726C11.7077 6.47177 11.8508 6.41251 12 6.41251C12.1492 6.41251 12.2923 6.47177 12.3977 6.57726C12.5032 6.68275 12.5625 6.82582 12.5625 6.97501V8.83426C12.5591 9.06834 12.6022 9.30077 12.6895 9.51803C12.7767 9.73529 12.9062 9.93304 13.0706 10.0998C13.2349 10.2665 13.4307 10.3989 13.6467 10.4893C13.8627 10.5797 14.0944 10.6262 14.3286 10.6262C14.5627 10.6262 14.7945 10.5797 15.0104 10.4893C15.2264 10.3989 15.4222 10.2665 15.5866 10.0998C15.7509 9.93304 15.8804 9.73529 15.9677 9.51803C16.0549 9.30077 16.098 9.06834 16.0946 8.83426V6.97501C16.0946 6.82582 16.1539 6.68275 16.2594 6.57726C16.3649 6.47177 16.5079 6.41251 16.6571 6.41251C16.8063 6.41251 16.9494 6.47177 17.0549 6.57726C17.1604 6.68275 17.2196 6.82582 17.2196 6.97501V8.83426C17.2186 9.60072 16.9137 10.3355 16.3717 10.8774C15.8297 11.4194 15.0948 11.7242 14.3284 11.7251V11.7251Z" fill="#222222"/>
<path d="M18.9855 11.7251C18.219 11.7242 17.4841 11.4193 16.9422 10.8773C16.4002 10.3353 16.0954 9.60038 16.0946 8.83388V6.97501C16.0946 6.82582 16.1539 6.68275 16.2594 6.57726C16.3648 6.47177 16.5079 6.41251 16.6571 6.41251C16.8063 6.41251 16.9494 6.47177 17.0549 6.57726C17.1603 6.68275 17.2196 6.82582 17.2196 6.97501V8.83426C17.2162 9.06834 17.2594 9.30077 17.3466 9.51803C17.4338 9.73529 17.5633 9.93304 17.7277 10.0998C17.892 10.2665 18.0878 10.3989 18.3038 10.4893C18.5198 10.5797 18.7516 10.6262 18.9857 10.6262C19.2198 10.6262 19.4516 10.5797 19.6675 10.4893C19.8835 10.3989 20.0793 10.2665 20.2437 10.0998C20.408 9.93304 20.5375 9.73529 20.6248 9.51803C20.712 9.30077 20.7551 9.06834 20.7517 8.83426V6.97501C20.7517 6.82582 20.811 6.68275 20.9165 6.57726C21.022 6.47177 21.165 6.41251 21.3142 6.41251C21.4634 6.41251 21.6065 6.47177 21.712 6.57726C21.8175 6.68275 21.8767 6.82582 21.8767 6.97501V8.83426C21.8757 9.60072 21.5708 10.3355 21.0288 10.8774C20.4868 11.4194 19.7519 11.7242 18.9855 11.7251V11.7251Z" fill="#222222"/>
<path d="M16.6567 7.53749C16.5358 7.53746 16.4182 7.49849 16.3212 7.42635C16.2242 7.35421 16.153 7.25275 16.1182 7.13699L14.9392 3.21637C14.8962 3.0735 14.9117 2.9194 14.9823 2.78796C15.0529 2.65652 15.1728 2.55851 15.3157 2.51549C15.4586 2.47248 15.6127 2.48798 15.7441 2.55859C15.8756 2.6292 15.9736 2.74913 16.0166 2.89199L17.1956 6.81262C17.2386 6.95524 17.2232 7.10908 17.1529 7.24041C17.0826 7.37173 16.9631 7.4698 16.8206 7.51312C16.7675 7.52943 16.7123 7.53764 16.6567 7.53749V7.53749ZM7.34322 7.53749C7.2882 7.53761 7.23347 7.52953 7.18084 7.51349C7.03833 7.47018 6.91881 7.3721 6.84851 7.24078C6.77821 7.10946 6.76286 6.95561 6.80584 6.81299L7.98334 2.89199C8.02636 2.74913 8.12437 2.6292 8.25581 2.55859C8.32089 2.52363 8.39222 2.50183 8.46573 2.49443C8.53923 2.48704 8.61348 2.4942 8.68422 2.51549C8.75496 2.53679 8.82081 2.57182 8.87802 2.61857C8.93523 2.66532 8.98266 2.72287 9.01763 2.78796C9.05259 2.85304 9.07439 2.92437 9.08178 2.99788C9.08918 3.07138 9.08202 3.14563 9.06072 3.21637L7.88172 7.13662C7.84697 7.25245 7.77583 7.35399 7.67883 7.4262C7.58183 7.49841 7.46414 7.53743 7.34322 7.53749V7.53749ZM12 7.53749C11.8508 7.53749 11.7077 7.47823 11.6022 7.37274C11.4967 7.26725 11.4375 7.12418 11.4375 6.97499V3.05437C11.4375 2.90519 11.4967 2.76211 11.6022 2.65662C11.7077 2.55113 11.8508 2.49187 12 2.49187C12.1492 2.49187 12.2922 2.55113 12.3977 2.65662C12.5032 2.76211 12.5625 2.90519 12.5625 3.05437V6.97499C12.5625 7.12418 12.5032 7.26725 12.3977 7.37274C12.2922 7.47823 12.1492 7.53749 12 7.53749V7.53749ZM12 21.5081H3.63147C3.48229 21.5081 3.33921 21.4489 3.23372 21.3434C3.12823 21.2379 3.06897 21.0948 3.06897 20.9456V10.7044C3.06897 10.5552 3.12823 10.4121 3.23372 10.3066C3.33921 10.2011 3.48229 10.1419 3.63147 10.1419C3.78065 10.1419 3.92373 10.2011 4.02922 10.3066C4.13471 10.4121 4.19397 10.5552 4.19397 10.7044V20.3831H12C12.1492 20.3831 12.2922 20.4424 12.3977 20.5479C12.5032 20.6534 12.5625 20.7964 12.5625 20.9456C12.5625 21.0948 12.5032 21.2379 12.3977 21.3434C12.2922 21.4489 12.1492 21.5081 12 21.5081V21.5081Z" fill="#222222"/>
<path d="M20.3685 21.5081H12C11.8508 21.5081 11.7077 21.4489 11.6023 21.3434C11.4968 21.2379 11.4375 21.0948 11.4375 20.9456C11.4375 20.7964 11.4968 20.6534 11.6023 20.5479C11.7077 20.4424 11.8508 20.3831 12 20.3831H19.806V10.7044C19.806 10.5552 19.8653 10.4121 19.9708 10.3066C20.0762 10.2011 20.2193 10.1419 20.3685 10.1419C20.5177 10.1419 20.6608 10.2011 20.7662 10.3066C20.8717 10.4121 20.931 10.5552 20.931 10.7044V20.9456C20.931 21.0948 20.8717 21.2379 20.7662 21.3434C20.6608 21.4489 20.5177 21.5081 20.3685 21.5081Z" fill="#222222"/>
<path d="M16.4554 21.3675C16.3062 21.3675 16.1632 21.3082 16.0577 21.2027C15.9522 21.0973 15.8929 20.9542 15.8929 20.805V14.8556H8.10718V20.7645C8.10718 20.9137 8.04791 21.0568 7.94243 21.1622C7.83694 21.2677 7.69386 21.327 7.54468 21.327C7.39549 21.327 7.25242 21.2677 7.14693 21.1622C7.04144 21.0568 6.98218 20.9137 6.98218 20.7645V14.2931C6.98218 14.1439 7.04144 14.0009 7.14693 13.8954C7.25242 13.7899 7.39549 13.7306 7.54468 13.7306H16.4554C16.6046 13.7306 16.7477 13.7899 16.8532 13.8954C16.9587 14.0009 17.0179 14.1439 17.0179 14.2931V20.805C17.0179 20.9542 16.9587 21.0973 16.8532 21.2027C16.7477 21.3082 16.6046 21.3675 16.4554 21.3675Z" fill="#222222"/>
</svg>
