<svg width="24" height="24" viewBox="0 0 24 24" fill="none" xmlns="http://www.w3.org/2000/svg">
<path d="M4 18.5C3.173 18.5 2.5 17.827 2.5 17C2.5 16.173 3.173 15.5 4 15.5C4.827 15.5 5.5 16.173 5.5 17C5.5 17.827 4.827 18.5 4 18.5ZM4 16.5C3.7245 16.5 3.5 16.724 3.5 17C3.5 17.276 3.7245 17.5 4 17.5C4.2755 17.5 4.5 17.276 4.5 17C4.5 16.724 4.2755 16.5 4 16.5ZM5.5 23.5H2.5C1.9485 23.5 1.5 23.0515 1.5 22.5V21C1.5 20.173 2.173 19.5 3 19.5H5C5.827 19.5 6.5 20.173 6.5 21V22.5C6.5 23.0515 6.0515 23.5 5.5 23.5ZM3 20.5C2.7245 20.5 2.5 20.724 2.5 21V22.5H5.5005L5.5 21C5.5 20.724 5.2755 20.5 5 20.5H3ZM20 18.5C19.173 18.5 18.5 17.827 18.5 17C18.5 16.173 19.173 15.5 20 15.5C20.827 15.5 21.5 16.173 21.5 17C21.5 17.827 20.827 18.5 20 18.5ZM20 16.5C19.724 16.5 19.5 16.724 19.5 17C19.5 17.276 19.724 17.5 20 17.5C20.276 17.5 20.5 17.276 20.5 17C20.5 16.724 20.276 16.5 20 16.5ZM21.5 23.5H18.5C17.9485 23.5 17.5 23.0515 17.5 22.5V21C17.5 20.173 18.173 19.5 19 19.5H21C21.827 19.5 22.5 20.173 22.5 21V22.5C22.5 23.0515 22.0515 23.5 21.5 23.5ZM19 20.5C18.724 20.5 18.5 20.724 18.5 21V22.5H21.501L21.5 21C21.5 20.724 21.276 20.5 21 20.5H19ZM12 7C10.897 7 10 6.103 10 5C10 3.897 10.897 3 12 3C13.103 3 14 3.897 14 5C14 6.103 13.103 7 12 7ZM12 4C11.4485 4 11 4.4485 11 5C11 5.5515 11.4485 6 12 6C12.5515 6 13 5.5515 13 5C13 4.4485 12.5515 4 12 4ZM14 13.5H10C9.4485 13.5 9 13.0515 9 12.5V10C9 8.897 9.897 8 11 8H13C14.103 8 15 8.897 15 10V12.5C15 13.0515 14.5515 13.5 14 13.5ZM11 9C10.4485 9 10 9.4485 10 10V12.5H14.001L14 10C14 9.4485 13.5515 9 13 9H11Z" fill="black"/>
<path d="M12 18.504C11.6995 18.504 11.41 18.3785 11.2045 18.159L8.7185 15.5H6.5C5.9485 15.5 5.5 15.0515 5.5 14.5V1.5C5.5 0.9485 5.9485 0.5 6.5 0.5H17.5C18.0515 0.5 18.5 0.9485 18.5 1.5V14.5C18.5 15.0515 18.0515 15.5 17.5 15.5H15.2815L12.795 18.1585C12.5905 18.3785 12.3005 18.504 12 18.504ZM6.5 1.5V14.5H8.7185C8.994 14.5 9.26 14.615 9.4485 14.817L11.9355 17.476C11.979 17.522 12.022 17.522 12.0655 17.476L14.552 14.8175C14.74 14.615 15.0065 14.5 15.2815 14.5H17.5V1.5H6.5Z" fill="black"/>
</svg>
